<svg version="1.1" id="Layer_1" xmlns="http://www.w3.org/2000/svg" xmlns:xlink="http://www.w3.org/1999/xlink" x="0px" y="0px"
viewBox="0 0 500 100" style="enable-background:new 0 0 500 100;" xml:space="preserve">
<g>
<rect x="100" y="0" style="opacity:0.8;fill:none;" width="100" height="100"/>
<path style="fill:#FFFFFF;" d="M145,53.128c0,1.805-1.463,3.269-3.269,3.269c-1.805,0-3.269-1.463-3.269-3.269
s1.463-3.269,3.269-3.269C143.537,49.86,145,51.323,145,53.128z M158.268,49.86c-1.805,0-3.269,1.463-3.269,3.269
s1.464,3.269,3.269,3.269c1.805,0,3.269-1.463,3.269-3.269C161.537,51.323,160.074,49.86,158.268,49.86z M181.831,51.306v6.212
c0,3.119-2.528,5.647-5.647,5.647h-4.098C168.025,74.44,157.657,81.25,150,81.25c-7.657,0-18.025-6.81-22.086-18.084h-4.098
c-3.119,0-5.647-2.528-5.647-5.647v-6.212c0-2.146,1.197-4.013,2.961-4.968c0.059-8.82,2.63-15.708,7.651-20.47
c4.981-4.723,12.12-7.118,21.219-7.118c9.099,0,16.239,2.395,21.219,7.118c5.021,4.762,7.592,11.65,7.651,20.47
C180.634,47.294,181.831,49.16,181.831,51.306z M169.879,53.149c0-1.453-0.074-2.818-0.184-4.141
c-2.506-2.293-7.056-4.033-12.798-4.679c0.754,0.848,1.405,1.963,1.8,3.431c-3.517-2.771-10.421-2.111-15.643-8.312
c-0.299-0.346-0.558-0.677-0.782-0.98c-0.003-0.004-0.005-0.006-0.008-0.01l0.001,0c-0.929-1.256-1.246-2.004-1.264-1.176
c-0.153,7.127-5.205,12.683-10.814,13.467c-0.035,0.784-0.065,1.575-0.065,2.401c0,3.012,0.492,5.758,1.328,8.232
c3.151,3.801,8.354,4.874,12.96,5.158c0.855-1.36,2.773-2.31,5.007-2.31c3.029,0,5.484,1.743,5.484,3.893s-2.455,3.893-5.484,3.893
c-2.33,0-4.315-1.033-5.11-2.488c-3.219-0.187-6.757-0.736-9.911-2.225c4.435,6.537,11.31,9.994,15.604,9.994
C156.747,77.297,169.879,68.773,169.879,53.149z M175.471,45.659c-0.359-15.39-9.144-23.52-25.471-23.52s-25.111,8.13-25.471,23.52
h2.173c0.794-5.187,2.474-9.453,5.023-12.734c4.063-5.227,10.211-7.877,18.275-7.877c8.064,0,14.213,2.65,18.275,7.877
c2.549,3.28,4.228,7.546,5.023,12.734H175.471L175.471,45.659z"/>
<rect x="300" y="0" style="opacity:0.8;fill:none;" width="100" height="100"/>
<path style="fill:#FFFFFF;" d="M350.004,18.75l-32.318,24.128V81.25h64.628V42.878L350.004,18.75z M341.064,35.967
c0.948-1.732,2.253-3.038,3.912-3.904c1.654-0.875,3.542-1.314,5.674-1.314c1.801,0,3.408,0.353,4.813,1.051
c1.405,0.707,2.473,1.702,3.218,2.994c0.737,1.297,1.112,2.71,1.112,4.24c0,1.827-0.564,3.477-1.689,4.955
c-1.413,1.861-3.218,2.792-5.429,2.792c-0.595,0-1.038-0.099-1.344-0.31c-0.297-0.211-0.504-0.513-0.603-0.918
c-0.832,0.823-1.814,1.237-2.917,1.237c-1.189,0-2.176-0.414-2.96-1.228c-0.784-0.823-1.176-1.917-1.176-3.274
c0-1.693,0.47-3.223,1.418-4.61c1.15-1.693,2.615-2.542,4.408-2.542c1.275,0,2.219,0.487,2.822,1.465l0.271-1.193h2.839
l-1.62,7.704c-0.103,0.491-0.151,0.801-0.151,0.944c0,0.185,0.039,0.31,0.121,0.405c0.078,0.09,0.181,0.134,0.293,0.134
c0.349,0,0.793-0.203,1.336-0.625c0.732-0.539,1.323-1.28,1.771-2.189c0.452-0.918,0.681-1.87,0.681-2.852
c0-1.758-0.633-3.231-1.909-4.425c-1.28-1.176-3.063-1.775-5.347-1.775c-1.943,0-3.589,0.396-4.938,1.193
c-1.349,0.784-2.365,1.904-3.059,3.343c-0.681,1.43-1.021,2.93-1.021,4.485c0,1.508,0.388,2.887,1.146,4.123
c0.767,1.245,1.835,2.146,3.214,2.719c1.379,0.564,2.96,0.849,4.735,0.849c1.706,0,3.18-0.237,4.416-0.715
c1.232-0.478,2.223-1.185,2.977-2.146h2.284c-0.715,1.456-1.814,2.594-3.292,3.425c-1.702,0.944-3.774,1.413-6.213,1.413
c-2.37,0-4.408-0.396-6.127-1.193c-1.723-0.801-2.999-1.978-3.843-3.533c-0.836-1.56-1.249-3.257-1.249-5.093
C339.638,39.586,340.108,37.708,341.064,35.967z M319.965,43.641l23.843,15.989l-23.843,18.453L319.965,43.641z M321.775,79.315
l28.229-21.844l28.221,21.844L321.775,79.315z M380.035,78.083L356.191,59.63l23.843-15.989V78.083z M351.168,37.725
c0.379,0.431,0.569,1.051,0.569,1.861c0,0.724-0.142,1.508-0.418,2.34c-0.271,0.84-0.603,1.482-0.982,1.917
c-0.259,0.306-0.534,0.53-0.806,0.672c-0.358,0.202-0.737,0.302-1.146,0.302c-0.547,0.004-1-0.215-1.374-0.646
c-0.366-0.431-0.547-1.094-0.547-2.003c0-0.681,0.129-1.465,0.396-2.348c0.267-0.883,0.659-1.555,1.181-2.038
c0.526-0.478,1.094-0.715,1.706-0.715C350.319,37.07,350.797,37.29,351.168,37.725z"/>
<rect x="200" y="0" style="opacity:0.8;fill:none;" width="100" height="100"/>
<g>
<path style="fill:#FFFFFF;" d="M280.384,44.876c-0.577-0.577-1.275-0.866-2.093-0.866h-10.465V20.266
c0-0.433-0.144-0.794-0.433-1.083c-0.289-0.289-0.626-0.433-1.01-0.433l-32.766,0c-0.385,0-0.722,0.144-1.01,0.433
c-0.289,0.289-0.433,0.65-0.433,1.083V44.01h-10.465c-0.818,0-1.516,0.289-2.093,0.866c-0.577,0.577-0.866,1.299-0.866,2.165
v23.744c0,0.866,0.301,1.612,0.902,2.237c0.601,0.625,1.287,0.866,2.057,0.722c0.866-0.192,1.684,0.096,2.454,0.866
s1.359,1.648,1.768,2.634s0.878,1.768,1.407,2.346s1.034,0.626,1.516,0.144v-5.99h3.32v5.99c0,0.385,0.144,0.733,0.433,1.046
c0.289,0.313,0.626,0.469,1.01,0.469h32.765c0.385,0,0.722-0.156,1.01-0.469c0.289-0.313,0.433-0.662,0.433-1.046v-5.99h3.464
v5.99c0.866-0.096,1.588-0.481,2.165-1.155c0.577-0.674,0.986-1.383,1.227-2.129c0.24-0.746,0.662-1.395,1.263-1.949
c0.601-0.553,1.383-0.806,2.346-0.758c0.77,0.096,1.455-0.156,2.057-0.757c0.601-0.601,0.902-1.335,0.902-2.201V47.041
C281.25,46.175,280.961,45.453,280.384,44.876z M264.434,77.641h-28.868V67.537h28.868V77.641z M264.434,51.66h-28.868V22.792
h28.868V51.66z M275.728,55.16c-0.505,0.505-1.119,0.757-1.84,0.757c-0.722,0-1.335-0.253-1.84-0.757
c-0.505-0.505-0.758-1.119-0.758-1.84c0-0.722,0.253-1.335,0.758-1.84c0.505-0.505,1.119-0.758,1.84-0.758
c0.722,0,1.335,0.253,1.84,0.758c0.505,0.505,0.758,1.119,0.758,1.84C276.486,54.041,276.233,54.655,275.728,55.16z"/>
</g>
<rect x="400" y="0" style="opacity:0.8;fill:none;" width="100" height="100"/>
<g>
<g id="schedule_1_">
<path style="fill:#FFFFFF;fill-opacity:0.9;" d="M450,18.75c-17.187,0-31.25,14.062-31.25,31.25S432.813,81.25,450,81.25
S481.25,67.187,481.25,50S467.187,18.75,450,18.75z M450,75c-13.75,0-25-11.25-25-25s11.25-25,25-25s25,11.25,25,25
S463.75,75,450,75z"/>
<polygon style="fill:#FFFFFF;fill-opacity:0.9;" points="451.563,34.375 446.875,34.375 446.875,53.125 463.125,63.125 
465.625,59.062 451.563,50.625 			"/>
</g>
</g>
<rect x="0" y="0" style="opacity:0.8;fill:none;" width="100" height="100"/>
<path style="fill:#FFFFFF;" d="M71.048,39.798C71.048,51.423,50,81.25,50,81.25S28.952,51.423,28.952,39.798S38.376,18.75,50,18.75
S71.048,28.174,71.048,39.798z M50,27.771c-6.643,0-12.027,5.385-12.027,12.027S43.357,51.826,50,51.826
s12.027-5.385,12.027-12.027S56.643,27.771,50,27.771z"/>
</g>
</svg>
