<?xml version="1.0" encoding="iso-8859-1"?>
<!-- Generator: Adobe Illustrator 19.0.0, SVG Export Plug-In . SVG Version: 6.00 Build 0)  -->
<svg version="1.1"
	 id="svg2" inkscape:version="0.91 r13725" sodipodi:docname="item-ribbons.svg" xmlns:svg="http://www.w3.org/2000/svg" xmlns:rdf="http://www.w3.org/1999/02/22-rdf-syntax-ns#" xmlns:cc="http://creativecommons.org/ns#" xmlns:dc="http://purl.org/dc/elements/1.1/" xmlns:inkscape="http://www.inkscape.org/namespaces/inkscape" xmlns:sodipodi="http://sodipodi.sourceforge.net/DTD/sodipodi-0.dtd"
	 xmlns="http://www.w3.org/2000/svg" xmlns:xlink="http://www.w3.org/1999/xlink" x="0px" y="0px" viewBox="-426 360 170 50"
	 style="enable-background:new -426 360 170 50;" xml:space="preserve">
<sodipodi:namedview  id="base" inkscape:window-maximized="0" inkscape:window-x="0" inkscape:window-height="1025" inkscape:window-y="26" inkscape:pageshadow="2" inkscape:window-width="1916" fit-margin-bottom="0" inkscape:current-layer="layer1" inkscape:pageopacity="0.0" fit-margin-right="0" inkscape:document-units="px" bordercolor="#666666" fit-margin-left="0" borderopacity="1.0" showgrid="false" pagecolor="#ffffff" inkscape:zoom="2.8284271" units="px" inkscape:cx="84.986412" fit-margin-top="0" inkscape:cy="71.038056">
	</sodipodi:namedview>
<polygon id="XMLID_40_" style="opacity:0.7;fill:#F77F00;" points="-269.369,366.717 -264.627,365.915 -264.741,370.771 
	-259.966,371.345 -261.426,375.972 -257.007,377.884 -259.704,381.905 -256,385 -259.704,388.095 -257.007,392.116 
	-261.427,394.028 -259.967,398.656 -264.741,399.23 -264.628,404.086 -269.37,403.284 -270.611,407.977 -274.937,405.855 
	-277.443,410 -281,406.73 -284.556,410 -287.063,405.855 -291.389,407.976 -292.63,403.283 -297.372,404.085 -297.259,399.229 
	-302.033,398.655 -300.573,394.028 -304.993,392.116 -302.295,388.095 -306,385 -302.295,381.905 -304.993,377.884 
	-300.573,375.972 -302.033,371.344 -297.258,370.77 -297.371,365.914 -292.629,366.716 -291.388,362.023 -287.063,364.145 
	-284.556,360 -281,363.27 -277.443,360 -274.936,364.145 -270.61,362.024 "/>
<polygon id="XMLID_39_" style="fill:none;stroke:#FFFFFF;stroke-miterlimit:10;" points="-263.652,396.26 -267.592,396.734 
	-267.498,400.742 -271.411,400.081 -272.434,403.949 -275.997,402.202 -278.063,405.618 -281,402.918 -283.936,405.617 
	-286.002,402.202 -289.566,403.949 -290.589,400.081 -294.502,400.741 -294.407,396.733 -298.348,396.259 -297.144,392.444 
	-300.785,390.87 -298.561,387.557 -301.621,385 -298.561,382.443 -300.785,379.13 -297.144,377.555 -298.347,373.74 
	-294.406,373.266 -294.501,369.258 -290.589,369.919 -289.565,366.051 -286.003,367.798 -283.936,364.383 -281,367.082 
	-278.063,364.382 -275.997,367.798 -272.433,366.052 -271.41,369.919 -267.497,369.259 -267.591,373.267 -263.651,373.741 
	-264.855,377.556 -261.214,379.13 -263.438,382.443 -260.378,385 -263.437,387.557 -261.214,390.87 -264.855,392.445 "/>
<path id="XMLID_18_" inkscape:connector-curvature="0" style="fill:#231F20;" d="M-294.915,386.396
	c0.915-0.015,1.627-0.105,2.135-0.274l-1.884-5.221h1.559l1.57,4.57c0.401-0.326,0.687-0.842,0.857-1.549
	c0.171-0.706,0.256-1.713,0.256-3.021h1.479c0,1.709-0.189,3.047-0.566,4.013c-0.378,0.965-0.989,1.675-1.833,2.129
	c-0.845,0.453-2.035,0.714-3.572,0.782V386.396z"/>
<path id="XMLID_10_" inkscape:connector-curvature="0" style="fill:#231F20;" d="M-282.332,387.574h-5.584v-1.301h3.578
	l-4.003-5.371h1.725l2.018,2.763c0.234-0.115,0.404-0.287,0.508-0.516s0.179-0.566,0.22-1.005l0.117-1.241h1.474l-0.112,1.253
	c-0.049,0.502-0.128,0.889-0.236,1.163c-0.109,0.274-0.265,0.506-0.472,0.693c-0.207,0.188-0.487,0.356-0.847,0.503l1.613,2.124
	C-282.332,386.637-282.332,387.574-282.332,387.574z"/>
<path id="XMLID_8_" inkscape:connector-curvature="0" style="fill:#231F20;" d="M-281.07,382.202v-1.301h2.247
	c1.035,0,1.787,0.218,2.254,0.655c0.467,0.438,0.7,1.155,0.7,2.151v2.564h0.709v1.301h-6.159v-1.301h4.013v-2.376
	c0-0.627-0.116-1.067-0.348-1.316c-0.233-0.252-0.63-0.377-1.19-0.377C-278.845,382.202-281.07,382.202-281.07,382.202z"/>
<path id="XMLID_6_" inkscape:connector-curvature="0" style="fill:#231F20;" d="M-270.329,380.869c0.906,0,1.564,0.268,1.975,0.803
	s0.618,1.372,0.618,2.509v3.392h-3.433v-1.301h1.985v-1.978c0-0.756-0.089-1.299-0.269-1.627c-0.179-0.328-0.494-0.491-0.945-0.491
	c-0.419,0-0.768,0.211-1.051,0.632c-0.283,0.421-0.546,1.137-0.791,2.147l-0.644,2.619h-1.533l0.718-2.785
	c0.178-0.675,0.344-1.203,0.5-1.586l-1.32-2.225h1.592l0.5,0.946c0.213-0.331,0.504-0.588,0.875-0.774
	C-271.18,380.962-270.773,380.869-270.329,380.869z"/>
<polygon id="XMLID_23_" style="opacity:0.7;fill:#FDE100;" points="-319.967,371.345 -321.427,375.972 -317.007,377.884 
	-319.705,381.905 -316,385 -319.705,388.095 -317.007,392.116 -321.427,394.028 -319.967,398.656 -324.742,399.23 -324.628,404.086 
	-329.37,403.284 -330.612,407.976 -334.937,405.855 -337.444,410 -341,406.73 -344.557,410 -347.063,405.855 -351.389,407.976 
	-352.631,403.283 -357.373,404.085 -357.259,399.229 -362.033,398.655 -360.573,394.027 -364.993,392.116 -362.295,388.095 
	-366,385 -362.295,381.904 -364.993,377.883 -360.573,375.971 -362.033,371.344 -357.258,370.77 -357.372,365.914 -352.63,366.716 
	-351.388,362.023 -347.063,364.145 -344.556,360 -341,363.27 -337.443,360 -334.937,364.145 -330.611,362.024 -329.369,366.717 
	-324.627,365.915 -324.741,370.771 "/>
<polygon id="XMLID_22_" style="fill:none;stroke:#FFFFFF;stroke-miterlimit:10;" points="-331.412,400.081 -332.434,403.949 
	-335.997,402.202 -338.063,405.618 -341,402.918 -343.937,405.617 -346.002,402.202 -349.566,403.949 -350.589,400.081 
	-354.502,400.741 -354.407,396.733 -358.349,396.259 -357.145,392.444 -360.785,390.869 -358.561,387.557 -361.621,385 
	-358.561,382.443 -360.785,379.13 -357.145,377.555 -358.348,373.74 -354.407,373.266 -354.501,369.258 -350.589,369.919 
	-349.565,366.051 -346.003,367.798 -343.937,364.382 -341,367.082 -338.063,364.382 -335.997,367.798 -332.434,366.051 
	-331.411,369.919 -327.498,369.258 -327.591,373.267 -323.651,373.741 -324.855,377.555 -321.215,379.13 -323.438,382.443 
	-320.378,385 -323.437,387.557 -321.215,390.87 -324.856,392.445 -323.652,396.26 -327.592,396.734 -327.499,400.742 "/>
<path id="XMLID_15_" inkscape:connector-curvature="0" style="fill:#231F20;" d="M-348.561,380.902h1.469l-0.159,1.838
	c-0.043,0.506-0.123,0.906-0.24,1.199c-0.117,0.293-0.282,0.523-0.492,0.688c-0.212,0.165-0.546,0.303-1.004,0.413l-0.797,0.188
	l0.218,1.102h0.127c0.887,0,1.572-0.075,2.055-0.228c0.483-0.152,0.842-0.399,1.078-0.741c0.235-0.342,0.393-0.864,0.471-1.562
	l0.335-2.898h1.486l-0.34,2.86c-0.11,0.925-0.281,1.618-0.511,2.08c-0.231,0.462-0.565,0.819-1.001,1.07
	c-0.436,0.252-1.033,0.433-1.789,0.546c-0.756,0.113-1.813,0.17-3.172,0.17l-1.246-6.726h1.506l0.58,3.215l0.389-0.075
	c0.241-0.046,0.419-0.126,0.534-0.239s0.204-0.282,0.264-0.506c0.06-0.224,0.113-0.623,0.159-1.196
	C-348.641,382.101-348.561,380.902-348.561,380.902z"/>
<path id="XMLID_9_" inkscape:connector-curvature="0" style="fill:#231F20;" d="M-338.367,387.574h-1.437v-5.372h-3.578v-1.301
	h5.833v1.301h-0.82L-338.367,387.574L-338.367,387.574z"/>
<path id="XMLID_6_-1" inkscape:connector-curvature="0" style="fill:#231F20;" d="M-331.938,383.885c0-0.602-0.114-1.033-0.34-1.293
	c-0.228-0.259-0.625-0.39-1.193-0.39h-1.42v5.372h-1.437v-6.673h2.858c1.05,0,1.808,0.219,2.275,0.658
	c0.467,0.44,0.7,1.155,0.7,2.148v3.866h-1.442C-331.938,387.573-331.938,383.885-331.938,383.885z"/>
<polygon id="XMLID_10_-3" style="opacity:0.7;fill:#7BC142;" points="-384.627,365.915 -384.741,370.771 -379.967,371.345 
	-381.427,375.972 -377.007,377.884 -379.705,381.905 -376,385 -379.705,388.095 -377.007,392.116 -381.427,394.028 
	-379.967,398.656 -384.742,399.23 -384.628,404.086 -389.37,403.284 -390.612,407.976 -394.937,405.855 -397.444,410 -401,406.73 
	-404.557,410 -407.063,405.855 -411.389,407.976 -412.631,403.283 -417.373,404.085 -417.259,399.229 -422.033,398.655 
	-420.573,394.027 -424.993,392.116 -422.295,388.095 -426,385 -422.295,381.904 -424.993,377.883 -420.573,375.971 
	-422.033,371.344 -417.258,370.77 -417.372,365.914 -412.63,366.716 -411.388,362.023 -407.063,364.145 -404.556,360 -401,363.27 
	-397.443,360 -394.937,364.145 -390.611,362.024 -389.369,366.717 "/>
<polygon id="XMLID_9_-1" style="fill:none;stroke:#FFFFFF;stroke-miterlimit:10;" points="-387.592,396.734 -387.499,400.742 
	-391.412,400.081 -392.434,403.949 -395.997,402.202 -398.063,405.618 -401,402.918 -403.937,405.617 -406.002,402.202 
	-409.566,403.949 -410.589,400.081 -414.502,400.741 -414.407,396.733 -418.349,396.259 -417.145,392.444 -420.785,390.869 
	-418.561,387.557 -421.621,385 -418.561,382.443 -420.785,379.13 -417.145,377.555 -418.348,373.74 -414.407,373.266 
	-414.501,369.258 -410.589,369.919 -409.565,366.051 -406.003,367.798 -403.937,364.382 -401,367.082 -398.063,364.382 
	-395.997,367.798 -392.434,366.051 -391.411,369.919 -387.498,369.258 -387.591,373.267 -383.651,373.741 -384.855,377.555 
	-381.215,379.13 -383.438,382.443 -380.378,385 -383.437,387.557 -381.215,390.87 -384.856,392.445 -383.652,396.26 "/>
<path id="XMLID_52_" inkscape:connector-curvature="0" style="fill:#231F20;" d="M-413.39,389.644h-1.437v-4.979
	c0-0.369-0.036-0.677-0.109-0.922c-0.073-0.245-0.2-0.53-0.383-0.854c-0.182-0.325-0.601-0.988-1.253-1.986h1.645l0.415,0.629
	c0.387,0.613,0.651,1.089,0.793,1.428c0.142,0.339,0.238,0.71,0.288,1.116c0.301-0.108,0.522-0.287,0.66-0.535
	c0.139-0.25,0.234-0.685,0.288-1.304l0.112-1.333h1.48l-0.128,1.521c-0.074,0.839-0.288,1.466-0.641,1.882
	c-0.353,0.415-0.933,0.706-1.738,0.871C-413.398,385.178-413.39,389.644-413.39,389.644z"/>
<path id="XMLID_36_" inkscape:connector-curvature="0" style="fill:#231F20;" d="M-409.594,386.332
	c1.022-0.336,1.817-0.783,2.384-1.338c0.567-0.556,0.851-1.167,0.851-1.834c0-0.638-0.395-0.958-1.186-0.958h-2.704v-3.581h1.469
	v2.281h1.474c1.597,0,2.395,0.704,2.395,2.112c0,1.112-0.413,2.093-1.24,2.941c-0.827,0.849-1.975,1.495-3.444,1.937
	C-409.594,387.891-409.594,386.332-409.594,386.332z"/>
<path id="XMLID_32_" inkscape:connector-curvature="0" style="fill:#231F20;" d="M-400.045,380.868c0.906,0,1.564,0.268,1.975,0.803
	s0.618,1.372,0.618,2.509v3.392h-3.433v-1.301h1.985v-1.978c0-0.756-0.089-1.299-0.269-1.627c-0.179-0.328-0.494-0.491-0.945-0.491
	c-0.419,0-0.768,0.211-1.051,0.632c-0.283,0.421-0.546,1.137-0.791,2.147l-0.644,2.619h-1.533l0.718-2.785
	c0.178-0.675,0.344-1.203,0.5-1.586l-1.32-2.225h1.592l0.5,0.946c0.213-0.331,0.504-0.588,0.875-0.774
	C-400.895,380.962-400.488,380.868-400.045,380.868z"/>
<path id="XMLID_30_" inkscape:connector-curvature="0" style="fill:#231F20;" d="M-395.653,380.902h1.437v6.673h-1.437V380.902z"/>
<path id="XMLID_6_-3" inkscape:connector-curvature="0" style="fill:#231F20;" d="M-388.841,380.868
	c0.906,0,1.564,0.268,1.975,0.803s0.618,1.372,0.618,2.509v3.392h-3.433v-1.301h1.985v-1.978c0-0.756-0.089-1.299-0.269-1.627
	c-0.179-0.328-0.494-0.491-0.945-0.491c-0.419,0-0.768,0.211-1.051,0.632c-0.283,0.421-0.546,1.137-0.791,2.147l-0.644,2.619h-1.533
	l0.718-2.785c0.178-0.675,0.344-1.203,0.5-1.586l-1.32-2.225h1.592l0.5,0.946c0.213-0.331,0.504-0.588,0.875-0.774
	C-389.691,380.962-389.285,380.868-388.841,380.868z"/>
</svg>
