<?xml version="1.0" encoding="UTF-8" standalone="no"?>
<!-- Created with Inkscape (http://www.inkscape.org/) -->

<svg
   xmlns:dc="http://purl.org/dc/elements/1.1/"
   xmlns:cc="http://creativecommons.org/ns#"
   xmlns:rdf="http://www.w3.org/1999/02/22-rdf-syntax-ns#"
   xmlns:svg="http://www.w3.org/2000/svg"
   xmlns="http://www.w3.org/2000/svg"
   xmlns:sodipodi="http://sodipodi.sourceforge.net/DTD/sodipodi-0.dtd"
   xmlns:inkscape="http://www.inkscape.org/namespaces/inkscape"
   width="170"
   height="49.999996"
   viewBox="0 0 170 49.999998"
   id="svg2"
   version="1.1"
   inkscape:version="0.91 r13725"
   sodipodi:docname="item-ribbons.svg">
  <defs
     id="defs4" />
  <sodipodi:namedview
     id="base"
     pagecolor="#ffffff"
     bordercolor="#666666"
     borderopacity="1.0"
     inkscape:pageopacity="0.0"
     inkscape:pageshadow="2"
     inkscape:zoom="2.8284271"
     inkscape:cx="84.986412"
     inkscape:cy="71.038056"
     inkscape:document-units="px"
     inkscape:current-layer="layer1"
     showgrid="false"
     fit-margin-top="0"
     fit-margin-left="0"
     fit-margin-right="0"
     fit-margin-bottom="0"
     units="px"
     inkscape:window-width="1916"
     inkscape:window-height="1025"
     inkscape:window-x="0"
     inkscape:window-y="26"
     inkscape:window-maximized="0" />
  <metadata
     id="metadata7">
    <rdf:RDF>
      <cc:Work
         rdf:about="">
        <dc:format>image/svg+xml</dc:format>
        <dc:type
           rdf:resource="http://purl.org/dc/dcmitype/StillImage" />
        <dc:title></dc:title>
      </cc:Work>
    </rdf:RDF>
  </metadata>
  <g
     inkscape:label="Layer 1"
     inkscape:groupmode="layer"
     id="layer1"
     transform="translate(-446.12501,-435.9672)">
    <g
       id="XMLID_4_"
       transform="matrix(0.93023256,0,0,0.93967299,566.43664,435.59603)">
      <g
         style="opacity:0.7"
         id="XMLID_21_">
        <polygon
           points="39.043,7.543 44.141,6.69 44.018,11.857 49.151,12.468 47.582,17.392 52.333,19.427 49.433,23.706 53.415,27 49.433,30.294 52.333,34.573 47.581,36.608 49.15,41.533 44.018,42.144 44.14,47.311 39.042,46.458 37.708,51.452 33.058,49.194 30.364,53.605 26.54,50.125 22.717,53.605 20.022,49.194 15.372,51.451 14.038,46.457 8.94,47.31 9.062,42.143 3.93,41.532 5.499,36.608 0.748,34.573 3.648,30.294 -0.335,27 3.648,23.706 0.748,19.427 5.499,17.392 3.93,12.467 9.063,11.856 8.941,6.689 14.039,7.542 15.373,2.548 20.022,4.806 22.717,0.395 26.54,3.875 30.364,0.395 33.059,4.806 37.709,2.549 "
           style="fill:#ebc31d"
           id="XMLID_40_" />
        <polygon
           points="45.189,38.983 40.954,39.487 41.055,43.753 36.848,43.049 35.748,47.165 31.918,45.306 29.697,48.942 26.54,46.068 23.384,48.941 21.163,45.306 17.332,47.165 16.232,43.049 12.025,43.752 12.127,39.486 7.891,38.982 9.185,34.922 5.271,33.247 7.662,29.721 4.372,27 7.662,24.279 5.271,20.753 9.185,19.077 7.892,15.017 12.128,14.513 12.026,10.247 16.232,10.951 17.333,6.834 21.162,8.694 23.384,5.059 26.54,7.932 29.697,5.058 31.918,8.694 35.749,6.835 36.849,10.951 41.056,10.248 40.955,14.514 45.19,15.018 43.896,19.078 47.81,20.753 45.419,24.279 48.709,27 45.42,29.721 47.81,33.247 43.896,34.923 "
           style="fill:none;stroke:#ffffff;stroke-miterlimit:10"
           id="XMLID_39_" />
      </g>
      <g
         id="XMLID_43_">
        <path
           d="m 11.581,28.486 c 0.984,-0.016 1.749,-0.112 2.295,-0.292 l -2.025,-5.556 1.676,0 1.688,4.863 c 0.431,-0.347 0.738,-0.896 0.921,-1.648 0.184,-0.751 0.275,-1.823 0.275,-3.215 l 1.59,0 c 0,1.819 -0.203,3.243 -0.609,4.271 -0.406,1.027 -1.063,1.783 -1.971,2.266 -0.908,0.482 -2.188,0.76 -3.84,0.832 l 0,-1.521 z"
           style="fill:#231f20"
           id="XMLID_18_"
           inkscape:connector-curvature="0" />
        <path
           d="m 25.108,29.739 -6.003,0 0,-1.385 3.846,0 -4.303,-5.716 1.854,0 2.169,2.94 c 0.252,-0.122 0.434,-0.305 0.546,-0.549 0.112,-0.244 0.192,-0.602 0.237,-1.07 l 0.126,-1.321 1.585,0 -0.12,1.333 c -0.053,0.534 -0.138,0.946 -0.254,1.238 -0.117,0.292 -0.285,0.538 -0.507,0.738 -0.222,0.2 -0.524,0.379 -0.91,0.535 l 1.734,2.26 0,0.997 z"
           style="fill:#231f20"
           id="XMLID_10_"
           inkscape:connector-curvature="0" />
        <path
           d="m 26.465,24.022 0,-1.384 2.415,0 c 1.113,0 1.921,0.232 2.423,0.697 0.502,0.466 0.752,1.229 0.752,2.289 l 0,2.729 0.762,0 0,1.385 -6.621,0 0,-1.385 4.314,0 0,-2.529 c 0,-0.667 -0.125,-1.135 -0.374,-1.401 -0.25,-0.268 -0.677,-0.401 -1.279,-0.401 l -2.392,0 z"
           style="fill:#231f20"
           id="XMLID_8_"
           inkscape:connector-curvature="0" />
        <path
           d="m 38.011,22.604 c 0.974,0 1.681,0.285 2.123,0.855 0.442,0.57 0.664,1.46 0.664,2.67 l 0,3.61 -3.69,0 0,-1.385 2.134,0 0,-2.105 c 0,-0.805 -0.096,-1.382 -0.289,-1.731 -0.192,-0.349 -0.531,-0.523 -1.016,-0.523 -0.45,0 -0.826,0.225 -1.13,0.673 -0.304,0.448 -0.587,1.21 -0.85,2.285 l -0.692,2.787 -1.648,0 0.772,-2.964 c 0.191,-0.718 0.37,-1.28 0.538,-1.688 l -1.419,-2.368 1.711,0 0.538,1.007 c 0.229,-0.352 0.542,-0.626 0.941,-0.824 0.399,-0.2 0.836,-0.299 1.313,-0.299 z"
           style="fill:#231f20"
           id="XMLID_6_"
           inkscape:connector-curvature="0" />
      </g>
    </g>
    <g
       id="XMLID_4_-7"
       transform="matrix(0.93023256,0,0,0.93967299,506.12501,435.9672)">
      <g
         style="opacity:0.7"
         id="XMLID_21_-7">
        <polygon
           points="49.486,12.073 47.916,16.997 52.668,19.032 49.767,23.311 53.75,26.605 49.767,29.899 52.668,34.178 47.916,36.213 49.485,41.138 44.352,41.749 44.475,46.916 39.377,46.063 38.042,51.056 33.393,48.799 30.698,53.21 26.875,49.73 23.051,53.21 20.357,48.799 15.707,51.056 14.372,46.062 9.274,46.915 9.397,41.748 4.264,41.137 5.834,36.212 1.082,34.178 3.983,29.899 0,26.605 3.983,23.31 1.082,19.031 5.834,16.996 4.265,12.072 9.398,11.461 9.275,6.294 14.373,7.147 15.708,2.153 20.357,4.411 23.052,0 26.875,3.48 30.699,0 33.393,4.411 38.043,2.154 39.378,7.148 44.476,6.295 44.353,11.462 "
           style="fill:#fde100"
           id="XMLID_23_" />
        <polygon
           points="37.182,42.654 36.083,46.77 32.253,44.911 30.032,48.547 26.875,45.673 23.718,48.546 21.498,44.911 17.667,46.77 16.567,42.654 12.36,43.357 12.462,39.091 8.225,38.587 9.519,34.527 5.606,32.851 7.997,29.326 4.707,26.605 7.997,23.884 5.606,20.358 9.519,18.682 8.226,14.622 12.463,14.118 12.361,9.852 16.567,10.556 17.668,6.439 21.497,8.299 23.718,4.663 26.875,7.537 30.032,4.663 32.253,8.299 36.084,6.44 37.183,10.556 41.39,9.852 41.29,14.119 45.525,14.623 44.231,18.682 48.144,20.358 45.754,23.884 49.044,26.605 45.755,29.326 48.144,32.852 44.23,34.528 45.524,38.588 41.289,39.092 41.389,43.358 "
           style="fill:none;stroke:#231f20;stroke-miterlimit:10"
           id="XMLID_22_" />
      </g>
      <g
         id="XMLID_33_">
        <path
           d="m 18.747,22.244 1.579,0 -0.171,1.956 c -0.046,0.538 -0.132,0.964 -0.258,1.276 -0.126,0.312 -0.303,0.557 -0.529,0.732 -0.228,0.176 -0.587,0.322 -1.079,0.44 l -0.857,0.2 0.234,1.173 0.137,0 c 0.954,0 1.69,-0.08 2.209,-0.243 0.519,-0.162 0.905,-0.425 1.159,-0.789 0.253,-0.364 0.422,-0.919 0.506,-1.662 l 0.36,-3.084 1.597,0 -0.366,3.044 c -0.118,0.984 -0.302,1.722 -0.549,2.214 -0.248,0.492 -0.607,0.872 -1.076,1.139 -0.469,0.268 -1.11,0.461 -1.923,0.581 -0.813,0.12 -1.949,0.181 -3.41,0.181 l -1.339,-7.158 1.619,0 0.624,3.421 0.418,-0.08 c 0.259,-0.049 0.45,-0.134 0.574,-0.254 0.124,-0.12 0.219,-0.3 0.284,-0.538 0.064,-0.238 0.121,-0.663 0.171,-1.273 l 0.086,-1.276 z"
           style="fill:#231f20"
           id="XMLID_15_"
           inkscape:connector-curvature="0" />
        <path
           d="m 29.705,29.344 -1.545,0 0,-5.717 -3.846,0 0,-1.384 6.271,0 0,1.384 -0.881,0 0,5.717 z"
           style="fill:#231f20"
           id="XMLID_9_"
           inkscape:connector-curvature="0" />
        <path
           d="m 36.617,25.418 c 0,-0.641 -0.123,-1.099 -0.366,-1.376 -0.245,-0.276 -0.672,-0.415 -1.282,-0.415 l -1.527,0 0,5.717 -1.545,0 0,-7.101 3.072,0 c 1.129,0 1.944,0.233 2.446,0.7 0.502,0.468 0.752,1.229 0.752,2.286 l 0,4.114 -1.55,0 0,-3.925 z"
           style="fill:#231f20"
           id="XMLID_6_-1"
           inkscape:connector-curvature="0" />
      </g>
    </g>
    <g
       id="XMLID_4_-3"
       transform="matrix(0.93023256,0,0,0.93967299,446.125,435.9672)">
      <g
         style="opacity:0.7"
         id="XMLID_18_-2">
        <polygon
           points="44.476,6.295 44.353,11.462 49.486,12.073 47.916,16.997 52.668,19.032 49.767,23.311 53.75,26.605 49.767,29.899 52.668,34.178 47.916,36.213 49.485,41.138 44.352,41.749 44.475,46.916 39.377,46.063 38.042,51.056 33.393,48.799 30.698,53.21 26.875,49.73 23.051,53.21 20.357,48.799 15.707,51.056 14.372,46.062 9.274,46.915 9.397,41.748 4.264,41.137 5.834,36.212 1.082,34.178 3.983,29.899 0,26.605 3.983,23.31 1.082,19.031 5.834,16.996 4.265,12.072 9.398,11.461 9.275,6.294 14.373,7.147 15.708,2.153 20.357,4.411 23.052,0 26.875,3.48 30.699,0 33.393,4.411 38.043,2.154 39.378,7.148 "
           style="fill:#7bc142"
           id="XMLID_10_-3" />
        <polygon
           points="41.289,39.092 41.389,43.358 37.182,42.654 36.083,46.77 32.253,44.911 30.032,48.547 26.875,45.673 23.718,48.546 21.498,44.911 17.667,46.77 16.567,42.654 12.36,43.357 12.462,39.091 8.225,38.587 9.519,34.527 5.606,32.851 7.997,29.326 4.707,26.605 7.997,23.884 5.606,20.358 9.519,18.682 8.226,14.622 12.463,14.118 12.361,9.852 16.567,10.556 17.668,6.439 21.497,8.299 23.718,4.663 26.875,7.537 30.032,4.663 32.253,8.299 36.084,6.44 37.183,10.556 41.39,9.852 41.29,14.119 45.525,14.623 44.231,18.682 48.144,20.358 45.754,23.884 49.044,26.605 45.755,29.326 48.144,32.852 44.23,34.528 45.524,38.588 "
           style="fill:none;stroke:#ffffff;stroke-miterlimit:10"
           id="XMLID_9_-1" />
      </g>
      <g
         id="XMLID_8_-8">
        <path
           d="m 13.556,31.547 -1.545,0 0,-5.299 c 0,-0.393 -0.039,-0.72 -0.117,-0.981 -0.078,-0.261 -0.215,-0.564 -0.412,-0.909 -0.196,-0.346 -0.646,-1.051 -1.347,-2.114 l 1.768,0 0.446,0.669 c 0.416,0.652 0.7,1.159 0.853,1.52 0.153,0.361 0.256,0.756 0.31,1.188 0.324,-0.115 0.561,-0.305 0.709,-0.569 0.149,-0.266 0.252,-0.729 0.31,-1.388 l 0.12,-1.419 1.591,0 -0.138,1.619 c -0.08,0.893 -0.31,1.56 -0.689,2.003 -0.38,0.442 -1.003,0.751 -1.868,0.927 l 0.009,4.753 z"
           style="fill:#231f20"
           id="XMLID_52_"
           inkscape:connector-curvature="0" />
        <path
           d="m 17.636,28.022 c 1.099,-0.358 1.953,-0.833 2.563,-1.424 0.61,-0.592 0.915,-1.242 0.915,-1.952 0,-0.679 -0.425,-1.019 -1.275,-1.019 l -2.907,0 0,-3.811 1.579,0 0,2.427 1.585,0 c 1.717,0 2.575,0.749 2.575,2.248 0,1.183 -0.444,2.227 -1.333,3.13 -0.889,0.904 -2.123,1.591 -3.702,2.061 l 0,-1.66 z"
           style="fill:#231f20"
           id="XMLID_36_"
           inkscape:connector-curvature="0" />
        <path
           d="m 27.902,22.208 c 0.974,0 1.681,0.285 2.123,0.855 0.442,0.57 0.664,1.46 0.664,2.67 l 0,3.61 -3.69,0 0,-1.385 2.134,0 0,-2.105 c 0,-0.805 -0.096,-1.382 -0.289,-1.731 -0.192,-0.349 -0.531,-0.523 -1.016,-0.523 -0.45,0 -0.826,0.225 -1.13,0.673 -0.304,0.448 -0.587,1.21 -0.85,2.285 l -0.692,2.787 -1.648,0 0.772,-2.964 c 0.191,-0.718 0.37,-1.28 0.538,-1.688 l -1.419,-2.368 1.711,0 0.538,1.007 c 0.229,-0.352 0.542,-0.626 0.941,-0.824 0.399,-0.199 0.836,-0.299 1.313,-0.299 z"
           style="fill:#231f20"
           id="XMLID_32_"
           inkscape:connector-curvature="0" />
        <path
           d="m 32.623,22.244 1.545,0 0,7.101 -1.545,0 0,-7.101 z"
           style="fill:#231f20"
           id="XMLID_30_"
           inkscape:connector-curvature="0" />
        <path
           d="m 39.946,22.208 c 0.974,0 1.681,0.285 2.123,0.855 0.442,0.57 0.664,1.46 0.664,2.67 l 0,3.61 -3.69,0 0,-1.385 2.134,0 0,-2.105 c 0,-0.805 -0.096,-1.382 -0.289,-1.731 -0.192,-0.349 -0.531,-0.523 -1.016,-0.523 -0.45,0 -0.826,0.225 -1.13,0.673 -0.304,0.448 -0.587,1.21 -0.85,2.285 l -0.692,2.787 -1.648,0 0.772,-2.964 c 0.191,-0.718 0.37,-1.28 0.538,-1.688 l -1.419,-2.368 1.711,0 0.538,1.007 c 0.229,-0.352 0.542,-0.626 0.941,-0.824 0.399,-0.199 0.836,-0.299 1.313,-0.299 z"
           style="fill:#231f20"
           id="XMLID_6_-3"
           inkscape:connector-curvature="0" />
      </g>
    </g>
  </g>
</svg>
