<?xml version="1.0" encoding="utf-8"?>
<!-- Generator: Adobe Illustrator 18.1.1, SVG Export Plug-In . SVG Version: 6.00 Build 0)  -->
<svg version="1.1" id="Layer_1" xmlns="http://www.w3.org/2000/svg" xmlns:xlink="http://www.w3.org/1999/xlink" x="0px" y="0px"
	 viewBox="0 0 478.1 234.3" enable-background="new 0 0 478.1 234.3" xml:space="preserve">
<path fill="#FFFFFF" d="M239.4,234.3c-7.2,0-12.9-3-16.6-5.3c-3.2,1.3-7.7,2.9-13,2.9c-1.4,0-2.8-0.1-4.1-0.3
	c-7.2-1.2-12.3-5.1-15.7-7.9c-2.4,0.5-5.3,1.1-8.7,1.1c-3.1,0-6.1-0.5-8.8-1.4c-7-2.4-11.4-7.3-14.2-10.7c-0.6,0-1.2,0-1.8,0
	c-3.9,0-9.8-0.4-15.6-3.9c-6.6-3.9-9.9-9.8-11.9-13.8c-3.5-0.8-8.4-2-13-5.3c-27.1,2.8-48.4,5.6-65,8.5l-24,4.2l23.3-30.7L0,155.2
	l29.2-8.5c0.7-0.2,15.9-4.5,42.9-8.9v-1c0-5.5,4.5-8.5,10.5-10.7c-0.9-2.6-1-5.5-1-8.9c0-8.7,4.6-14.9,7.4-18.8
	c-0.9-4.7-1.9-12.1,1.6-19.8c3.5-7.5,9.7-11.3,13.7-13.7c0.9-4.5,2.5-11.5,8.2-17.2c5.4-5.5,12.1-7.2,16.5-8.2c2-4,5.4-9.9,12-13.8
	c5.8-3.5,11.7-3.9,15.6-3.9c0.6,0,1.2,0,1.8,0c2.8-3.4,7.2-8.3,14.2-10.7c2.8-1,5.7-1.4,8.8-1.4c3.3,0,6.3,0.6,8.7,1.1
	c3.3-2.9,8.5-6.8,15.7-7.9c1.4-0.2,2.7-0.3,4.1-0.3c5.3,0,9.8,1.6,13,2.9C226.5,3,232.2,0,239.4,0c7.2,0,12.9,3,16.6,5.3
	c3.3-1.3,7.7-2.9,13-2.9c1.4,0,2.8,0.1,4.1,0.3c7.2,1.2,12.3,5.1,15.7,7.9c2.4-0.5,5.3-1.1,8.7-1.1c3.1,0,6.1,0.5,8.8,1.4
	c7,2.4,11.4,7.3,14.2,10.7c0.6,0,1.2,0,1.8,0c3.9,0,9.8,0.4,15.6,3.9c6.6,3.9,9.9,9.8,11.9,13.8c4.4,1,11,2.7,16.5,8.2
	c5.7,5.8,7.3,12.7,8.1,17.2c4,2.4,10.1,6.2,13.6,13.7c3.6,7.8,2.4,15.2,1.5,19.8c2.8,3.9,7.1,10.1,7.1,18.8c0,3.3-2,6.2-3,8.8
	c3.1,1.1,8.4,3.6,8.4,10.8v1c28,4.4,44.4,8.7,45.1,8.9l30.8,8.6l-49.8,16.3l23.4,30.7l-23.8-4.2c-16.6-2.9-37.9-5.7-65-8.5
	c-4.6,3.3-9.5,4.5-13,5.3c-2,4-5.3,9.9-11.9,13.8c-5.8,3.5-11.7,3.9-15.6,3.9c-0.6,0-1.2,0-1.8,0c-2.8,3.4-7.2,8.3-14.2,10.7
	c-2.8,1-5.7,1.4-8.8,1.4c-3.3,0-6.3-0.6-8.7-1.1c-3.3,2.9-8.5,6.8-15.7,7.9c-1.3,0.2-2.7,0.3-4.1,0.3c-5.3,0-9.8-1.6-13-2.9
	C252.3,231.3,246.6,234.3,239.4,234.3z"/>
<path fill-rule="evenodd" clip-rule="evenodd" fill="#516600" d="M150.4,176.4c7.9,0-56.7,4.6-101.2,12.3l16.7-22l-33.1-10.8
	c0,0,36.1-10.3,97.9-15.1C129.5,153.7,150.4,176.4,150.4,176.4z"/>
<path fill-rule="evenodd" clip-rule="evenodd" fill="#334000" d="M153.1,176.7c0,0-74.3,7.8-69.7-6.3c4.4-14,70.5-10.8,70.5-10.8
	L153.1,176.7z"/>
<path fill-rule="evenodd" clip-rule="evenodd" fill="#516600" d="M328.4,176.4c-7.9,0,56.7,4.6,101.2,12.3l-16.7-22l33.1-10.8
	c0,0-36.1-10.3-97.9-15.1C349.3,153.7,328.4,176.4,328.4,176.4z"/>
<path fill-rule="evenodd" clip-rule="evenodd" fill="#334000" d="M325.6,176.7c0,0,74.3,7.8,69.8-6.3c-4.4-14-70.5-10.8-70.5-10.8
	L325.6,176.7z"/>
<path fill-rule="evenodd" clip-rule="evenodd" fill="#003B43" d="M239.4,224.7c-5.4,0-9.7-2.7-12.9-4.6c-0.9-0.6-2.2-1.4-2.9-1.7
	c-0.7,0.2-2.2,0.8-3.2,1.2c-2.9,1.2-6.5,2.7-10.7,2.7c-0.9,0-1.8-0.1-2.6-0.2c-5.4-0.9-9.2-4.2-12-6.7c-0.8-0.7-1.9-1.7-2.6-2.1
	c-0.9,0.1-2.2,0.4-3.4,0.7c-2.3,0.5-4.9,1.1-7.8,1.1c-2,0-3.9-0.3-5.7-0.9c-5.2-1.8-8.4-5.8-10.7-8.8c-0.6-0.8-1.6-2-2.1-2.5
	c-0.2,0-0.7-0.1-1.5-0.1c-0.7,0-1.4,0-2.1,0c-0.9,0-1.8,0.1-2.7,0.1c-3,0-7-0.3-10.7-2.5c-4.8-2.9-7.1-7.5-8.8-11
	c-0.5-0.9-1.1-2.3-1.6-2.9c-0.7-0.3-2.4-0.6-3.5-0.9c-3.7-0.8-8.8-1.8-12.6-5.7c-4-4.1-5-9.3-5.7-13.2c-0.2-1.1-0.5-2.6-0.7-3.3
	c-0.6-0.5-2-1.4-3-1.9c-3.4-2-8-4.7-10.4-9.8c-2.5-5.3-1.4-10.7-0.7-14.6c0.2-1.1,0.5-2.7,0.5-3.5c-0.3-0.7-1.3-2-1.9-2.9
	c-2.4-3.3-5.6-7.7-5.6-13.7c0-5.9,3.3-10.4,5.6-13.7c0.7-0.9,1.6-2.2,1.9-2.9c0-0.7-0.3-2.4-0.5-3.5c-0.7-3.9-1.8-9.3,0.7-14.6
	c2.4-5.2,7-7.9,10.4-9.8c1-0.6,2.5-1.4,3-1.9c0.2-0.7,0.5-2.2,0.7-3.3c0.7-3.8,1.7-9.1,5.7-13.2c3.8-3.9,8.9-5,12.6-5.7
	c1.1-0.2,2.7-0.6,3.5-0.9c0.4-0.6,1.1-2,1.6-2.9c1.7-3.4,4-8.1,8.8-11c3.7-2.2,7.7-2.5,10.7-2.5c0.9,0,1.8,0,2.7,0.1
	c0.7,0,1.4,0,2.1,0c0.8,0,1.2,0,1.5-0.1c0.6-0.5,1.5-1.7,2.1-2.5c2.3-2.9,5.6-7,10.7-8.8c1.8-0.6,3.7-0.9,5.7-0.9
	c2.9,0,5.5,0.6,7.8,1.1c1.2,0.3,2.6,0.6,3.4,0.7c0.6-0.4,1.8-1.4,2.6-2.1c2.8-2.5,6.7-5.8,12-6.7c0.8-0.1,1.7-0.2,2.6-0.2
	c4.1,0,7.8,1.5,10.7,2.7c1,0.4,2.5,1,3.2,1.2c0.7-0.3,2-1.1,2.9-1.7c3.2-2,7.5-4.6,12.9-4.6c5.4,0,9.7,2.7,12.9,4.6
	c0.9,0.6,2.2,1.4,2.9,1.7c0.7-0.2,2.2-0.8,3.2-1.2c2.9-1.2,6.5-2.7,10.7-2.7c0.9,0,1.8,0.1,2.6,0.2c5.4,0.9,9.2,4.2,12,6.7
	c0.8,0.7,1.9,1.7,2.6,2.1c0.9-0.1,2.2-0.4,3.4-0.7c2.3-0.5,4.9-1.1,7.8-1.1c2,0,3.9,0.3,5.7,0.9c5.2,1.8,8.4,5.8,10.7,8.8
	c0.7,0.8,1.6,2,2.1,2.5c0.2,0,0.7,0.1,1.5,0.1c0.7,0,1.4,0,2.1,0c0.9,0,1.8-0.1,2.7-0.1c3,0,7,0.3,10.7,2.5c4.8,2.9,7.1,7.5,8.8,11
	c0.5,0.9,1.1,2.3,1.6,2.9c0.7,0.3,2.4,0.6,3.5,0.9c3.7,0.8,8.8,1.8,12.6,5.8c4,4.1,5,9.3,5.7,13.2c0.2,1.1,0.5,2.6,0.7,3.3
	c0.6,0.5,2,1.4,3,1.9c3.4,2,8,4.7,10.4,9.8c2.5,5.3,1.4,10.7,0.7,14.6c-0.2,1.1-0.5,2.7-0.5,3.5c0.3,0.7,1.3,2,1.9,2.9
	c2.4,3.3,5.6,7.7,5.6,13.7s-3.3,10.4-5.6,13.7c-0.7,0.9-1.6,2.2-1.9,2.9c0,0.7,0.3,2.4,0.5,3.5c0.7,3.9,1.8,9.3-0.7,14.6
	c-2.4,5.2-7,7.9-10.4,9.8c-1,0.6-2.5,1.4-3,1.9c-0.2,0.7-0.5,2.2-0.7,3.3c-0.7,3.8-1.7,9.1-5.7,13.2c-3.8,3.9-8.9,5-12.6,5.8
	c-1.1,0.2-2.7,0.6-3.5,0.9c-0.4,0.6-1.1,2-1.6,2.9c-1.7,3.4-4,8.1-8.8,11c-3.7,2.2-7.7,2.5-10.7,2.5c-0.9,0-1.8,0-2.7-0.1
	c-0.7,0-1.4,0-2.1,0c-0.8,0-1.2,0-1.5,0.1c-0.6,0.5-1.5,1.7-2.1,2.5c-2.3,2.9-5.6,7-10.7,8.8c-1.8,0.6-3.7,0.9-5.7,0.9
	c-2.9,0-5.5-0.6-7.8-1.1c-1.2-0.3-2.6-0.6-3.4-0.7c-0.6,0.4-1.8,1.4-2.6,2.1c-2.8,2.5-6.7,5.8-12,6.7c-0.8,0.1-1.7,0.2-2.6,0.2
	c-4.1,0-7.8-1.5-10.7-2.7c-1-0.4-2.5-1-3.2-1.2c-0.7,0.3-2,1.1-2.9,1.7C249.1,222.1,244.8,224.7,239.4,224.7z"/>
<path fill-rule="evenodd" clip-rule="evenodd" fill="#FFFFFF" d="M239.4,219c-3.8,0-7-2-9.9-3.8c-1.9-1.2-3.9-2.4-5.4-2.6
	c-0.1,0-0.2,0-0.3,0c-1.5,0-3.6,0.9-5.7,1.7c-2.7,1.1-5.4,2.3-8.4,2.3c-0.6,0-1.1,0-1.7-0.1c-3.7-0.6-6.6-3.1-9.2-5.3
	c-1.7-1.5-3.5-3-4.9-3.4c-0.3-0.1-0.7-0.1-1.2-0.1c-1.4,0-3.1,0.4-5,0.8c-2.1,0.5-4.3,1-6.5,1c-1.4,0-2.7-0.2-3.8-0.6
	c-3.6-1.3-6-4.3-8.1-6.9c-1.4-1.8-2.9-3.6-4.2-4.2c-1.1-0.5-2.7-0.6-3.9-0.6c-0.7,0-1.5,0-2.3,0c-0.8,0-1.7,0.1-2.5,0.1
	c-2.4,0-5.3-0.2-7.8-1.7c-3.3-2-5.1-5.5-6.6-8.6c-1-2-2-4.1-3.1-4.9c-1.3-1-3.6-1.5-5.9-1.9c-3.3-0.7-7.1-1.5-9.7-4.2
	c-2.8-2.8-3.5-6.7-4.2-10.2c-0.4-2.2-0.8-4.4-1.6-5.6c-0.9-1.3-2.9-2.4-4.9-3.6c-3-1.8-6.4-3.7-8.1-7.3c-1.7-3.7-0.9-7.6-0.3-11.1
	c0.4-2.1,0.8-4.4,0.5-5.8c-0.3-1.4-1.6-3.2-2.9-5c-2.1-2.9-4.5-6.2-4.5-10.3c0-4.1,2.4-7.4,4.5-10.3c1.3-1.8,2.6-3.6,2.9-5
	c0.3-1.4-0.1-3.7-0.5-5.8c-0.7-3.5-1.4-7.5,0.3-11.1c1.6-3.5,5-5.5,8.1-7.3c2-1.1,4-2.3,4.9-3.6c0.8-1.2,1.2-3.4,1.6-5.6
	c0.6-3.5,1.4-7.4,4.2-10.2c2.6-2.7,6.4-3.5,9.7-4.2c2.3-0.5,4.6-1,5.9-1.9c1.1-0.9,2.2-2.9,3.1-4.9c1.5-3.1,3.3-6.6,6.6-8.6
	c2.5-1.5,5.5-1.7,7.8-1.7c0.8,0,1.6,0,2.5,0.1c0.8,0,1.5,0,2.3,0c1.3,0,2.8-0.1,3.9-0.6c1.3-0.6,2.8-2.4,4.2-4.2
	c2.1-2.7,4.5-5.7,8.1-6.9c1.2-0.4,2.4-0.6,3.8-0.6c2.2,0,4.4,0.5,6.5,1c1.8,0.4,3.5,0.8,5,0.8c0.5,0,0.9,0,1.2-0.1
	c1.4-0.4,3.2-1.9,4.9-3.4c2.5-2.2,5.4-4.7,9.2-5.3c0.5-0.1,1.1-0.1,1.7-0.1c3,0,5.8,1.2,8.4,2.3c2,0.8,4.1,1.7,5.7,1.7
	c0.1,0,0.2,0,0.3,0c1.5-0.1,3.5-1.4,5.4-2.6c2.9-1.8,6.1-3.8,9.9-3.8c3.8,0,7,2,9.9,3.8c1.9,1.2,3.9,2.4,5.4,2.6c0.1,0,0.2,0,0.3,0
	c1.5,0,3.6-0.9,5.7-1.7c2.7-1.1,5.4-2.3,8.4-2.3c0.6,0,1.1,0,1.7,0.1c3.7,0.6,6.6,3.1,9.2,5.3c1.7,1.5,3.5,3,4.9,3.4
	c0.3,0.1,0.7,0.1,1.2,0.1c1.4,0,3.1-0.4,5-0.8c2.1-0.5,4.3-1,6.5-1c1.4,0,2.7,0.2,3.8,0.6c3.6,1.3,6,4.3,8.1,6.9
	c1.4,1.8,2.9,3.6,4.2,4.2c1.1,0.5,2.7,0.6,3.9,0.6c0.7,0,1.5,0,2.3,0c0.8,0,1.7-0.1,2.5-0.1c2.4,0,5.3,0.2,7.8,1.7
	c3.3,2,5.1,5.5,6.6,8.6c1,2,2,4.1,3.1,4.9c1.3,1,3.6,1.5,5.9,1.9c3.3,0.7,7.1,1.5,9.7,4.2c2.8,2.8,3.5,6.7,4.2,10.2
	c0.4,2.2,0.8,4.4,1.6,5.6c0.9,1.3,2.9,2.4,4.9,3.6c3,1.8,6.4,3.7,8.1,7.3c1.7,3.7,0.9,7.6,0.3,11.1c-0.4,2.1-0.8,4.4-0.5,5.8
	c0.3,1.4,1.6,3.2,2.9,5c2.1,2.9,4.5,6.2,4.5,10.3s-2.4,7.4-4.5,10.3c-1.3,1.8-2.6,3.6-2.9,5c-0.3,1.4,0.1,3.7,0.5,5.8
	c0.7,3.5,1.4,7.5-0.3,11.1c-1.6,3.5-5,5.5-8.1,7.3c-2,1.1-4,2.3-4.9,3.6c-0.8,1.2-1.2,3.4-1.6,5.6c-0.6,3.5-1.4,7.4-4.2,10.2
	c-2.6,2.7-6.4,3.5-9.7,4.2c-2.3,0.5-4.6,1-5.9,1.9c-1.1,0.9-2.2,2.9-3.1,4.9c-1.5,3.1-3.3,6.6-6.6,8.6c-2.5,1.5-5.4,1.7-7.8,1.7
	c-0.8,0-1.6,0-2.5-0.1c-0.8,0-1.5,0-2.3,0c-1.3,0-2.8,0.1-3.9,0.6c-1.3,0.6-2.8,2.4-4.2,4.2c-2.1,2.7-4.5,5.7-8.1,6.9
	c-1.2,0.4-2.4,0.6-3.8,0.6c-2.2,0-4.4-0.5-6.5-1c-1.8-0.4-3.5-0.8-5-0.8c-0.5,0-0.9,0-1.2,0.1c-1.4,0.4-3.2,1.9-4.9,3.4
	c-2.5,2.2-5.4,4.7-9.2,5.3c-0.5,0.1-1.1,0.1-1.7,0.1c-3,0-5.8-1.2-8.4-2.3c-2-0.8-4.1-1.7-5.7-1.7c-0.1,0-0.2,0-0.3,0
	c-1.5,0.1-3.5,1.4-5.4,2.6C246.4,217,243.2,219,239.4,219z"/>
<path fill-rule="evenodd" clip-rule="evenodd" fill="#003B43" d="M377.6,117.1c0,5.1-6.2,9.5-7.4,14.4c-1.1,4.9,2.6,11.6,0.5,16.2
	c-2.1,4.5-9.6,6-12.6,10.2c-2.9,4-1.8,11.6-5.4,15.3c-3.5,3.5-11.1,2.6-15.2,5.8c-3.9,3-4.9,10.6-9.4,13.3c-4.3,2.5-11.4-0.2-16.1,2
	c-4.5,2.1-7.1,9.3-12,11c-4.7,1.6-11.2-2.4-16.2-1.2c-4.8,1.2-8.7,7.8-13.7,8.7c-4.9,0.8-10.6-4.3-15.8-3.9c-5,0.4-9.8,6.3-15,6.3
	c-5.1,0-10-5.9-15-6.3c-5.1-0.4-10.8,4.7-15.8,3.9c-5.1-0.8-8.9-7.4-13.7-8.7c-5-1.2-11.5,2.8-16.2,1.2c-4.9-1.7-7.4-8.9-12-11
	c-4.7-2.2-11.9,0.6-16.1-2c-4.4-2.6-5.4-10.2-9.4-13.3c-4.1-3.2-11.7-2.2-15.2-5.8c-3.6-3.7-2.5-11.2-5.4-15.3
	c-3-4.2-10.5-5.7-12.6-10.2c-2.1-4.6,1.6-11.3,0.5-16.2c-1.1-4.9-7.4-9.3-7.4-14.4c0-5.1,6.2-9.5,7.4-14.4
	c1.1-4.9-2.6-11.6-0.5-16.2c2.1-4.5,9.6-6,12.6-10.2c2.9-4,1.8-11.6,5.4-15.3c3.5-3.5,11.1-2.6,15.2-5.8c3.9-3,4.9-10.6,9.4-13.3
	c4.3-2.5,11.4,0.2,16.1-2c4.5-2.1,7.1-9.3,12-11c4.7-1.6,11.2,2.4,16.2,1.2c4.8-1.2,8.7-7.8,13.7-8.7c4.9-0.8,10.6,4.3,15.8,3.9
	c5-0.4,9.8-6.3,15-6.3c5.1,0,10,5.9,15,6.3c5.1,0.4,10.8-4.7,15.8-3.9c5.1,0.8,8.9,7.4,13.7,8.7c5,1.2,11.5-2.8,16.2-1.2
	c4.9,1.7,7.4,8.9,12,11c4.7,2.2,11.9-0.6,16.1,2c4.4,2.6,5.4,10.2,9.4,13.3c4.1,3.2,11.7,2.2,15.2,5.8c3.6,3.7,2.5,11.2,5.4,15.3
	c3,4.2,10.5,5.7,12.6,10.2c2.1,4.6-1.6,11.3-0.5,16.2C371.3,107.6,377.6,112,377.6,117.1z"/>
<path fill-rule="evenodd" clip-rule="evenodd" fill="#7B9A00" d="M239.5,118.9c108.6,2.1,155.8,15.6,155.8,17.9v37.7
	c-58.9-14-103.6-16.5-155.8-16.9c-52.2,0.4-97.1,2.9-156,16.9v-37.7C83.5,134.4,130.8,120.9,239.5,118.9z"/>
<g>
	<path fill="#F5F1E3" d="M238.3,152.7L238.3,152.7L238.3,152.7L238.3,152.7z M238.3,154.4L238.3,154.4l0-1.6c2,0,3.9,0,5.9,0l0,1.6
		C242.2,154.4,240.2,154.4,238.3,154.4L238.3,154.4z M229.5,152.8L229.5,152.8c1.9,0,3.9,0,5.9,0l0,1.7c-2,0-3.9,0-5.8,0
		L229.5,152.8L229.5,152.8z M247,154.4L247,154.4l0-1.6c2,0,3.9,0,5.9,0l-0.1,1.6C250.9,154.4,249,154.4,247,154.4L247,154.4z
		 M220.7,152.9L220.7,152.9c1.9,0,3.9-0.1,5.9-0.1l0.1,1.6c-2,0-3.9,0.1-5.8,0.1L220.7,152.9L220.7,152.9L220.7,152.9z M255.8,154.5
		L255.8,154.5l0.1-1.7c2,0,3.9,0.1,5.9,0.1l-0.1,1.6C259.7,154.5,257.8,154.5,255.8,154.5L255.8,154.5z M211.9,153.1L211.9,153.1
		c1.9-0.1,3.9-0.1,5.9-0.2l0.1,1.6c-2,0-3.9,0.1-5.8,0.2L211.9,153.1L211.9,153.1z M264.6,154.6L264.6,154.6l0.1-1.6
		c2,0,3.9,0.1,5.9,0.1l-0.1,1.6C268.4,154.7,266.5,154.7,264.6,154.6L264.6,154.6z M203.1,153.4L203.1,153.4
		c1.9-0.1,3.9-0.2,5.9-0.2l0.2,1.6c-2,0.1-3.9,0.1-5.8,0.2L203.1,153.4L203.1,153.4z M273.3,154.9L273.3,154.9l0.2-1.6
		c1.9,0.1,3.9,0.1,5.8,0.2l-0.2,1.6C277.2,155,275.2,154.9,273.3,154.9L273.3,154.9z M203.1,153.4L203.1,153.4L203.1,153.4
		L203.1,153.4L203.1,153.4L203.1,153.4z M282.2,153.6L282.2,153.6L282.2,153.6C282.2,153.6,282.2,153.6,282.2,153.6L282.2,153.6z
		 M282,155.2L282,155.2l0.2-1.6c1.9,0.1,3.9,0.2,5.8,0.3l-0.3,1.6C285.8,155.4,283.9,155.3,282,155.2L282,155.2z M194.4,153.9
		L194.4,153.9c1.9-0.1,3.9-0.2,5.8-0.3l0.2,1.6c-2,0.1-3.9,0.2-5.8,0.3L194.4,153.9L194.4,153.9z M291,154L291,154L291,154
		c1.9,0.1,3.9,0.2,5.8,0.4l-0.3,1.6c-1.9-0.1-3.9-0.2-5.8-0.4L291,154L291,154z M185.6,154.4L185.6,154.4c1.9-0.1,3.9-0.2,5.8-0.4
		l0.3,1.6c-2,0.1-3.9,0.2-5.8,0.4L185.6,154.4L185.6,154.4z M299.7,154.6L299.7,154.6L299.7,154.6c1.9,0.1,3.9,0.3,5.8,0.4l-0.4,1.6
		c-1.9-0.2-3.9-0.3-5.8-0.4L299.7,154.6L299.7,154.6z M176.9,155L176.9,155c1.9-0.1,3.9-0.3,5.8-0.4l0.4,1.6c-2,0.1-3.9,0.3-5.8,0.4
		L176.9,155L176.9,155z M168.2,155.7L168.2,155.7c1.9-0.2,3.8-0.3,5.8-0.5l0.4,1.6c-2,0.2-3.9,0.3-5.8,0.5L168.2,155.7L168.2,155.7z
		 M308.4,155.2L308.4,155.2L308.4,155.2c1.9,0.2,3.9,0.3,5.8,0.5l-0.5,1.6c-1.9-0.2-3.8-0.4-5.7-0.5L308.4,155.2L308.4,155.2z
		 M159.5,156.5L159.5,156.5c1.9-0.2,3.8-0.4,5.8-0.6l0.5,1.6c-1.9,0.2-3.9,0.4-5.7,0.6L159.5,156.5L159.5,156.5z M316.6,157.7
		L316.6,157.7l0.5-1.6c1.9,0.2,3.8,0.4,5.8,0.6l-0.6,1.6C320.4,158,318.5,157.8,316.6,157.7L316.6,157.7z M150.8,157.4L150.8,157.4
		c1.9-0.2,3.8-0.4,5.8-0.6l0.5,1.6c-1.9,0.2-3.9,0.4-5.7,0.6L150.8,157.4L150.8,157.4z M325.2,158.6L325.2,158.6l0.6-1.6
		c1.9,0.2,3.8,0.5,5.7,0.7l-0.6,1.6C329,159,327.1,158.8,325.2,158.6L325.2,158.6z M142.2,158.5L142.2,158.5
		c1.9-0.2,3.8-0.5,5.7-0.7l0.6,1.6c-1.9,0.2-3.8,0.5-5.7,0.7L142.2,158.5L142.2,158.5L142.2,158.5z M333.7,159.6L333.7,159.6
		l0.7-1.6c1.9,0.2,3.8,0.5,5.7,0.8l-0.7,1.6C337.5,160.1,335.6,159.9,333.7,159.6L333.7,159.6z M133.6,159.6L133.6,159.6
		c1.9-0.3,3.8-0.5,5.7-0.8l0.7,1.6c-1.9,0.3-3.8,0.5-5.7,0.8L133.6,159.6L133.6,159.6z M342.2,160.8L342.2,160.8l0.7-1.6
		c1.9,0.3,3.8,0.6,5.7,0.9l-0.8,1.6C345.9,161.4,344.1,161.1,342.2,160.8L342.2,160.8z M125.1,160.8L125.1,160.8
		c1.8-0.3,3.7-0.6,5.7-0.8l0.7,1.6c-1.9,0.3-3.8,0.6-5.6,0.8L125.1,160.8L125.1,160.8z M351.4,160.5L351.4,160.5L351.4,160.5
		c1.9,0.3,3.7,0.6,5.6,0.9l-0.8,1.6c-1.9-0.3-3.7-0.6-5.6-0.9L351.4,160.5L351.4,160.5z M116.6,162.2L116.6,162.2
		c1.8-0.3,3.7-0.6,5.6-0.9l0.8,1.6c-1.9,0.3-3.8,0.6-5.6,0.9L116.6,162.2L116.6,162.2z M359.9,161.9L359.9,161.9L359.9,161.9
		c1.8,0.3,3.7,0.7,5.6,1l-0.9,1.6c-1.9-0.3-3.7-0.7-5.5-1L359.9,161.9L359.9,161.9z M108.2,163.7L108.2,163.7c1.8-0.3,3.6-0.7,5.6-1
		l0.9,1.6c-1.9,0.3-3.8,0.7-5.6,1L108.2,163.7L108.2,163.7z M367.3,165L367.3,165l0.9-1.6c1.8,0.3,3.7,0.7,5.5,1.1l-1,1.6
		C371,165.7,369.1,165.4,367.3,165L367.3,165z M99.9,165.3L99.9,165.3c1.7-0.3,3.6-0.7,5.5-1.1l0.9,1.6c-2,0.4-3.8,0.7-5.5,1.1
		L99.9,165.3L99.9,165.3z M376.5,165.1L376.5,165.1L376.5,165.1c1.8,0.4,3.7,0.7,5.5,1.1l-1,1.5c-1.8-0.4-3.7-0.8-5.5-1.1
		L376.5,165.1L376.5,165.1z M91.6,167.1L91.6,167.1c1.6-0.4,3.4-0.8,5.5-1.2l1,1.5c-2,0.4-3.8,0.8-5.4,1.2L91.6,167.1L91.6,167.1z
		 M384.8,166.8L384.8,166.8L384.8,166.8c1.8,0.4,3.6,0.8,5.5,1.2l-1.1,1.5c-1.8-0.4-3.6-0.8-5.4-1.2L384.8,166.8L384.8,166.8z
		 M83.5,169.1L83.5,169.1c0,0,1.9-0.5,5.4-1.4l1.1,1.5c-3.5,0.8-5.3,1.3-5.3,1.3L83.5,169.1L83.5,169.1L83.5,169.1z M391.9,170.1
		L391.9,170.1l1.1-1.5c0.3,0.1,0.6,0.1,0.8,0.2l-1.1,1.5C392.4,170.3,392.2,170.2,391.9,170.1z"/>
</g>
<g>
	<path fill="#F5F1E3" d="M239.2,122.2c0.6,0,1.2,0,1.8,0c1.4,0,2.7,0,4.1,0l0,1.6c-1.3,0-2.7,0-4.1,0c-0.6,0-1.2,0-1.8,0V122.2
		L239.2,122.2z M235.1,122.2L235.1,122.2c0.4,0,0.8,0,1.2,0v1.6c-0.4,0-0.8,0-1.2,0c-1.6,0-3.1,0-4.7,0l0-1.6
		C232,122.2,233.5,122.2,235.1,122.2L235.1,122.2z M248,122.2L248,122.2L248,122.2c2,0,3.9,0,5.8,0l0,1.7c-1.9,0-3.9,0-5.8,0
		L248,122.2L248,122.2z M256.8,122.2L256.8,122.2L256.8,122.2c2,0,3.9,0,5.9,0l-0.1,1.6c-1.9,0-3.9,0-5.8,0L256.8,122.2L256.8,122.2
		z M221.6,122.3L221.6,122.3c1.9,0,3.9-0.1,5.9-0.1l0,1.6c-2,0-3.9,0-5.8,0.1L221.6,122.3L221.6,122.3z M265.5,122.3L265.5,122.3
		L265.5,122.3c2,0,3.9,0.1,5.9,0.1l-0.1,1.6c-1.9,0-3.9-0.1-5.8-0.1L265.5,122.3L265.5,122.3z M212.8,122.4L212.8,122.4
		c1.9-0.1,3.9-0.1,5.9-0.1l0.1,1.6c-2,0-3.9,0.1-5.8,0.1L212.8,122.4L212.8,122.4z M274.3,122.4L274.3,122.4L274.3,122.4
		c2,0,3.9,0.1,5.9,0.2l-0.2,1.6c-1.9-0.1-3.9-0.1-5.8-0.2L274.3,122.4L274.3,122.4z M204,122.7L204,122.7c1.9-0.1,3.9-0.1,5.9-0.2
		l0.2,1.6c-2,0.1-3.9,0.1-5.8,0.2L204,122.7L204,122.7L204,122.7z M282.9,124.3L282.9,124.3l0.2-1.6l0,0c1.9,0.1,3.9,0.1,5.9,0.2
		l-0.2,1.6C286.8,124.5,284.9,124.4,282.9,124.3L282.9,124.3z M195.3,123.1L195.3,123.1c1.9-0.1,3.9-0.2,5.8-0.3l0.2,1.6
		c-2,0.1-3.9,0.2-5.8,0.3L195.3,123.1L195.3,123.1z M291.6,124.7L291.6,124.7l0.2-1.6c1.9,0.1,3.9,0.2,5.8,0.3l-0.3,1.6
		C295.5,124.9,293.5,124.8,291.6,124.7L291.6,124.7z M195.3,123.1L195.3,123.1L195.3,123.1L195.3,123.1L195.3,123.1z M186.5,123.6
		L186.5,123.6c1.9-0.1,3.9-0.2,5.8-0.3l0.3,1.6c-2,0.1-3.9,0.2-5.8,0.3L186.5,123.6L186.5,123.6z M300.3,125.2L300.3,125.2l0.3-1.6
		c1.9,0.1,3.9,0.3,5.8,0.4l-0.4,1.6C304.1,125.4,302.2,125.3,300.3,125.2L300.3,125.2z M177.8,124.1L177.8,124.1
		c1.9-0.1,3.9-0.3,5.8-0.4l0.3,1.6c-2,0.1-3.9,0.3-5.8,0.4L177.8,124.1L177.8,124.1z M309,125.8L309,125.8l0.4-1.6
		c1.9,0.2,3.9,0.3,5.8,0.5l-0.5,1.6C312.8,126.1,310.9,126,309,125.8L309,125.8z M169.1,124.8L169.1,124.8c1.9-0.2,3.8-0.3,5.8-0.5
		l0.4,1.6c-2,0.1-3.9,0.3-5.8,0.5L169.1,124.8L169.1,124.8z M317.6,126.6L317.6,126.6l0.5-1.6c1.9,0.2,3.8,0.4,5.8,0.6l-0.6,1.6
		C321.3,127,319.4,126.8,317.6,126.6L317.6,126.6z M160.4,125.6L160.4,125.6c1.9-0.2,3.8-0.4,5.8-0.5l0.4,1.6
		c-2,0.2-3.9,0.3-5.8,0.5L160.4,125.6L160.4,125.6L160.4,125.6z M151.7,126.4L151.7,126.4c1.9-0.2,3.8-0.4,5.8-0.6l0.5,1.6
		c-1.9,0.2-3.9,0.4-5.7,0.6L151.7,126.4L151.7,126.4L151.7,126.4z M326.1,127.5L326.1,127.5l0.6-1.6c1.9,0.2,3.8,0.5,5.7,0.7
		l-0.6,1.6C329.9,128,328,127.7,326.1,127.5L326.1,127.5z M143.1,127.4L143.1,127.4c1.9-0.2,3.8-0.4,5.7-0.7l0.6,1.6
		c-1.9,0.2-3.8,0.4-5.7,0.7L143.1,127.4L143.1,127.4z M334.6,128.6L334.6,128.6l0.7-1.6c1.9,0.3,3.8,0.5,5.7,0.8l-0.7,1.6
		C338.4,129.1,336.5,128.8,334.6,128.6L334.6,128.6z M134.5,128.5L134.5,128.5c1.9-0.2,3.8-0.5,5.7-0.7l0.6,1.6
		c-1.9,0.2-3.8,0.5-5.7,0.7L134.5,128.5L134.5,128.5z M343.9,128.2L343.9,128.2L343.9,128.2c1.9,0.3,3.7,0.6,5.7,0.9l-0.8,1.6
		c-1.9-0.3-3.8-0.6-5.6-0.9L343.9,128.2L343.9,128.2z M125.9,129.7L125.9,129.7c1.8-0.3,3.7-0.5,5.7-0.8l0.7,1.6
		c-1.9,0.3-3.8,0.5-5.6,0.8L125.9,129.7L125.9,129.7z M352.3,129.6L352.3,129.6L352.3,129.6c1.9,0.3,3.7,0.6,5.6,1l-0.9,1.6
		c-1.9-0.3-3.7-0.7-5.6-1L352.3,129.6L352.3,129.6z M117.4,131L117.4,131c1.8-0.3,3.7-0.6,5.7-0.9l0.8,1.6c-1.9,0.3-3.8,0.6-5.6,0.9
		L117.4,131L117.4,131z M360.7,131L360.7,131L360.7,131L360.7,131L360.7,131L360.7,131z M359.8,132.6L359.8,132.6l0.9-1.6
		c1.8,0.3,3.7,0.7,5.6,1l-0.9,1.6C363.5,133.3,361.7,132.9,359.8,132.6L359.8,132.6z M109,132.5L109,132.5c1.8-0.3,3.7-0.6,5.6-1
		l0.8,1.6c-1.9,0.3-3.8,0.7-5.6,1L109,132.5L109,132.5z M368.1,134.2L368.1,134.2l1-1.6c1.8,0.4,3.7,0.7,5.5,1.1l-1,1.6
		C371.8,134.9,369.9,134.5,368.1,134.2L368.1,134.2z M100.6,134.1L100.6,134.1c1.7-0.3,3.6-0.7,5.6-1.1l0.9,1.6
		c-2,0.4-3.8,0.7-5.5,1.1L100.6,134.1L100.6,134.1z M376.3,135.8L376.3,135.8l1-1.5c1.8,0.4,3.6,0.8,5.5,1.2l-1.1,1.5
		C380,136.6,378.1,136.2,376.3,135.8L376.3,135.8z M92.4,135.8L92.4,135.8c1.6-0.4,3.4-0.8,5.5-1.2l1,1.5c-2,0.4-3.8,0.8-5.4,1.2
		L92.4,135.8L92.4,135.8z M384.5,137.6L384.5,137.6l1.1-1.5c1.8,0.4,3.6,0.8,5.4,1.2l-1.1,1.5C388.1,138.4,386.3,138,384.5,137.6
		L384.5,137.6z M84.2,137.8L84.2,137.8c0,0,1.9-0.5,5.4-1.4l1.1,1.5c-3.5,0.8-5.3,1.3-5.3,1.3L84.2,137.8L84.2,137.8z M84.2,137.8
		L84.2,137.8L84.2,137.8L84.2,137.8L84.2,137.8z M393.7,137.9L393.7,137.9L393.7,137.9c0.1,0,0.3,0.1,0.4,0.1l-1.1,1.5
		c-0.1,0-0.3-0.1-0.4-0.1L393.7,137.9z"/>
</g>
<path fill="#FFFFFF" d="M157.6,102.6l0.2,1.5l-9.6,1l-0.2-1.5c-0.1-1.3-0.1-3.1,0.1-5.5c0.2-2.4,0.5-4.5,1-6.2l3.2-12.3l-19.6,2
	l-0.8-7.5l30.3-3.1l0.6,5.6L158.9,91C157.7,95.5,157.3,99.3,157.6,102.6z M146.2,117.7l-9.7,1L133.2,87l9.7-1L146.2,117.7z"/>
<path fill="#FFFFFF" d="M179.1,102.4l-9.7,0.7L167,70.8l9.7-0.7L179.1,102.4z"/>
<path fill="#FFFFFF" d="M201,101.2l-14.2,0.7l-4.3-32.3l9.4-0.4l2,15c0.2,0,0.4-0.1,0.7-0.2s0.5-0.3,0.7-0.5
	c0.2-0.2,0.4-0.6,0.5-1.1c0.2-0.5,0.3-1.1,0.3-1.7l0.4-11.7l9.4-0.4L205.5,80c0,1.4-0.2,2.6-0.5,3.7c-0.3,1.1-0.7,2-1.2,2.8
	c-0.5,0.7-1,1.4-1.7,1.9c-0.6,0.6-1.3,1-1.8,1.3c-0.6,0.3-1.2,0.5-1.9,0.7c-1,0.3-2,0.4-3.1,0.5l-0.4,0l0.4,2.9l6.5-0.3
	c2.1-0.1,3.8-1,5.1-2.7c1.3-1.7,2-4.4,2.2-8l0.6-14.6l9.4-0.4l-0.6,14.9c-0.1,2.9-0.5,5.4-1.2,7.5c-0.7,2.2-1.6,3.9-2.6,5.2
	c-1,1.3-2.3,2.4-3.8,3.3c-1.5,0.9-3,1.4-4.6,1.8C204.7,100.9,203,101.1,201,101.2z"/>
<path fill="#FF7F12" stroke="#FF7F12" stroke-width="2" stroke-linecap="round" stroke-linejoin="round" stroke-miterlimit="10" d="
	M233.8,67.5c0.1,1.2-0.2,3.7-0.8,7.3c-0.4,1.4-1.4,2.8-2.9,3.9c-1,0.6-2,1.2-2.9,1.8c0.4-2.7,0.7-9.9,0.7-21.5
	c0-0.9,0.7-1.4,1.9-1.4c2.4-0.1,3.6,0.8,3.6,2.5C233.5,62.1,233.6,64.5,233.8,67.5z"/>
<path fill="#FF7F12" stroke="#FF7F12" stroke-width="2" stroke-linecap="round" stroke-linejoin="round" stroke-miterlimit="10" d="
	M302.3,44.8c-3-0.4-5.2-0.7-6.7-0.7c-0.9,0-2.1,0.1-3.6,0.4c-6.1,1.1-10.8,2.9-14,5.6c-3,2.4-5.9,6.6-8.8,12.5
	c-1.8,3.5-3,6.8-3.7,9.9c-0.2,0.7-0.2,1.5-0.3,2.3l0,0.3c0,0.8-0.1,1.5-0.2,2.3c0.5,0.5,1.5,0.8,3.2,0.7l0.4,0l0.2,0
	c0.5,0.1,1.1,0.2,1.6,0.3c0.5,0.1,1,0.4,1.3,0.8c0.2,0.5,0.3,0.8,0.2,1c-0.1,0.1-0.6,0.4-1.6,1.1c-0.2,0-0.4,0.1-0.7,0.2
	c-0.3,0.1-0.7,0.2-1.3,0.3c-1.7,0.2-2.9,0.1-3.7-0.2c-0.6,3.6-0.9,5.6-0.9,6c-0.1,1.5-0.2,3.4-0.2,5.8c0,1.4,0.4,3.2,1.1,5.3
	c0.4,1,0.3,2.1-0.1,3.2c0,0.4-0.3,0.7-1,1c-0.2,0.1-0.8,0.2-1.7,0.1c-0.8,0-1.3-0.1-1.4-0.2c-0.3-0.1-0.6-0.5-0.9-1.1
	c-0.5-1.2-2.5-3.9-5.9-8.1c-0.7-1.1-3.5-4.3-8.3-9.7c-2.9-3.1-5.4-6.1-7.5-9.2c-0.2-0.2-0.2-0.5-0.2-0.8c0-0.8,0.6-1.5,1.7-2.2
	c1.1-0.7,2.1-1.1,3.2-1c0.9,0,3.5,0.7,7.8,2c2.1,0.8,5.4,1.9,9.7,3.3c0.5-2.2,0.9-4.3,1.4-6.5c0.5-2.2,1.2-4.4,2.1-6.8
	c4.1-9.8,9.5-16,16.2-18.5c1.2-0.5,3-1,5.5-1.7c3-0.8,5.4-1.2,7.1-1.1c1.9,0.1,4.5,0.8,7.6,2.1C300.6,44,301.5,44.4,302.3,44.8z
	 M259.4,80.4c-1.7-0.8-6.7-2.2-14.9-4.3c0.7,0.6,1.3,1.2,1.7,1.8c1.2,1.6,3.2,4,5.8,7.1c1.6,1.8,3.7,4.1,6.4,7
	C258.2,87.8,258.5,84,259.4,80.4z"/>
<path fill="#FFFFFF" d="M310.1,70.5l-0.7,11.8c-0.1,1-0.2,1.9-0.4,2.7c-0.2,0.8-0.5,1.6-0.9,2.4c-0.9,1.8-2.6,3.1-5.3,3.9
	c2.9,5.2,5,9.1,6.5,11.7l-10.8-0.7l-7.9-15.2c-0.3,0.5-0.6,1.4-0.6,2.7l-0.7,11.9l-9.7-0.6l0.7-11.8c0.1-1,0.2-1.9,0.4-2.7
	c0.2-0.8,0.5-1.6,1-2.5c0.9-1.8,2.7-3.1,5.3-3.9c-1.9-3.5-4.1-7.3-6.5-11.7l10.8,0.7l5.8,11.4l2.1,3.7c0.3-0.6,0.5-1.5,0.6-2.7
	l0.7-11.9L310.1,70.5z"/>
<path fill="#FFFFFF" d="M325.6,71.4c3,0.3,5.4,0.8,7.1,1.5c1.9,0.8,3.2,1.7,3.9,2.7c0.9,1.2,1.4,2.5,1.5,3.9c0.2,1.4,0.2,3.1,0,5
	l-1.3,13.5l3.5,0.3l-0.7,7.5l-27.1-2.6l0.7-7.5l13.9,1.3l1.3-13.1c0.3-3.2-1.2-5-4.5-5.3c-2.1-0.2-4.6-0.3-7.5-0.3h-1.6l0.7-7.4
	C317.7,70.9,321,71,325.6,71.4z"/>
<g>
	<path fill="#FFFFFF" d="M105.8,144.1c0.4,0.2,0.6,0.4,0.9,0.6c0.2,0.2,0.5,0.5,0.6,0.9c0.3,0.6,0.6,1.4,0.8,2.4l1.9,9.2l-4.3,0.9
		l-1.8-9c-0.3-1.4-1.2-2-2.6-1.7c-0.4,0.1-0.6,0.1-0.8,0.2l1.4,6.8c0.1,0.5,0.2,1,0.2,1.5c0,0.4,0,0.9-0.2,1.3s-0.3,0.8-0.6,1.2
		c-0.6,0.7-1.6,1.2-3.1,1.5c-0.3,0.1-0.7,0.1-1,0.1c-0.4,0-0.6,0-0.8-0.1l-0.3-0.1l-0.6-3.1c0.6,0,1-0.1,1.4-0.1s0.6-0.2,0.7-0.4
		c0.1-0.2,0.1-0.5,0-0.9l-1.3-6.5l-1.5,0.4l-0.7-3.3c2.4-0.8,4.7-1.4,6.9-1.8C103.2,143.5,104.8,143.6,105.8,144.1z"/>
	<path fill="#FFFFFF" d="M117.1,156.1l-4.3,0.7l-2.4-14.3l4.3-0.7L117.1,156.1z"/>
	<path fill="#FFFFFF" d="M117,141.3c1.5-0.4,2.8-0.6,4-0.8c1.2-0.2,2.1-0.2,2.7-0.2c0.7,0,1.2,0.1,1.7,0.3c0.5,0.2,0.9,0.4,1.2,0.6
		c0.3,0.3,0.6,0.6,0.8,1c0.2,0.4,0.4,0.8,0.5,1.3c0.1,0.4,0.2,0.9,0.3,1.5l1.3,9.1l-4.3,0.6l-1.3-9.1c-0.2-1.4-1-2-2.5-1.8
		c-1.1,0.2-2.4,0.4-4,0.8L117,141.3z"/>
	<path fill="#FFFFFF" d="M131.8,149.2l-1.3-9.8l4.3-0.6l0.9,6.7l-2,3.3L131.8,149.2z"/>
	<path fill="#FFFFFF" d="M146.5,152.1l-6.3,0.7l-2.8-14.3l4.2-0.5l1.3,6.7c0.1,0,0.2,0,0.3-0.1c0.1-0.1,0.2-0.2,0.3-0.3
		c0.1-0.1,0.1-0.3,0.2-0.5c0.1-0.2,0.1-0.5,0.1-0.8l-0.1-5.3l4.2-0.5l0.1,5.2c0,0.6,0,1.2-0.1,1.7c-0.1,0.5-0.3,0.9-0.4,1.3
		c-0.2,0.3-0.4,0.6-0.7,0.9c-0.3,0.3-0.5,0.5-0.8,0.6c-0.3,0.1-0.5,0.3-0.8,0.4c-0.4,0.2-0.9,0.3-1.4,0.3l-0.2,0l0.3,1.3l2.9-0.3
		c0.9-0.1,1.7-0.6,2.2-1.4c0.5-0.8,0.8-2,0.8-3.6l-0.1-6.6l4.2-0.5l0.1,6.7c0,1.3-0.1,2.4-0.3,3.4c-0.3,1-0.6,1.8-1,2.4
		s-1,1.1-1.6,1.6c-0.7,0.4-1.3,0.7-2,0.9C148.1,151.9,147.3,152,146.5,152.1z"/>
	<path fill="#FFFFFF" d="M162.2,135.8c1.8-0.2,3.1,0,4,0.3c0.5,0.2,0.8,0.4,1.2,0.7c0.3,0.3,0.6,0.6,0.8,1.1
		c0.2,0.4,0.3,0.9,0.4,1.3s0.2,1,0.2,1.6l0.8,9.2l-4.4,0.4l-0.8-9.2c-0.1-1.4-0.9-2.1-2.4-2c-1.3,0.1-2.9,0.3-4.6,0.7l-0.9,0.2
		l-0.3-3.3C157.9,136.3,159.9,136,162.2,135.8z M161.8,150.6l-4.3,0.4l-0.7-8.4l4.3-0.4L161.8,150.6z"/>
	<path fill="#FFFFFF" d="M189.2,134.8c0.3,0.2,0.6,0.5,0.8,0.7s0.4,0.6,0.5,1c0.2,0.6,0.4,1.5,0.4,2.5l0.6,9.4l-4.4,0.3l-0.6-9.2
		c-0.1-1.4-0.9-2.1-2.3-2c-0.4,0-0.6,0-0.8,0.1l0.4,6.9c0,0.6,0,1.1,0,1.5c-0.1,0.4-0.2,0.9-0.4,1.3c-0.2,0.4-0.4,0.8-0.8,1.1
		c-0.7,0.6-1.8,1-3.3,1.1c-0.3,0-0.7,0-1-0.1c-0.3-0.1-0.6-0.1-0.8-0.2l-0.3-0.1l-0.2-3.1c0.6,0.1,1,0.1,1.4,0.1
		c0.4,0,0.6-0.1,0.8-0.3c0.1-0.2,0.2-0.5,0.1-0.9l-0.4-6.7l-1.5,0.2l-0.2-3.3c2.5-0.4,4.8-0.7,7.1-0.9S188.2,134.2,189.2,134.8z"/>
	<path fill="#FFFFFF" d="M206.3,133.1l0.3,5.3c0,0.5,0,0.9,0,1.2c0,0.3-0.1,0.7-0.3,1.1c-0.3,0.8-1,1.5-2.1,2
		c1.5,2.2,2.7,3.8,3.5,4.9l-4.9,0.2l-4.3-6.4c-0.1,0.2-0.2,0.6-0.2,1.2l0.3,5.3l-4.3,0.2l-0.3-5.3c0-0.4,0-0.8,0-1.2
		c0-0.4,0.1-0.7,0.3-1.1c0.3-0.8,1-1.5,2.2-2c-1-1.4-2.2-3.1-3.5-4.9l4.8-0.2l3.1,4.8l1.1,1.6c0.1-0.3,0.1-0.7,0.1-1.2l-0.3-5.3
		L206.3,133.1z"/>
	<path fill="#FFFFFF" d="M221.3,132.3c1.8-0.1,3.1,0.1,4,0.6c0.4,0.2,0.8,0.5,1.1,0.8c0.3,0.3,0.5,0.7,0.7,1.1
		c0.2,0.4,0.3,0.9,0.4,1.3s0.1,1,0.1,1.6l0.3,9.2l-4.4,0.1l-0.3-9.2c0-1.4-0.8-2.1-2.3-2.1c-1.3,0-2.9,0.2-4.7,0.4l-0.9,0.1
		l-0.1-3.3C217.1,132.6,219.1,132.4,221.3,132.3z M220.1,147.1l-4.3,0.1l-0.3-8.5l4.3-0.1L220.1,147.1z"/>
	<path fill="#FFFFFF" d="M237.9,146.7l-6.4,0.1l-1.5-14.5l4.2-0.1l0.7,6.7c0.1,0,0.2,0,0.3-0.1c0.1-0.1,0.2-0.1,0.3-0.2
		s0.2-0.3,0.2-0.5c0.1-0.2,0.1-0.5,0.1-0.8l0.3-5.2l4.2-0.1l-0.3,5.2c0,0.6-0.1,1.2-0.3,1.7c-0.2,0.5-0.3,0.9-0.6,1.2
		s-0.5,0.6-0.8,0.9c-0.3,0.2-0.6,0.4-0.8,0.6c-0.3,0.1-0.6,0.2-0.9,0.3c-0.4,0.1-0.9,0.2-1.4,0.2l-0.2,0l0.2,1.3l2.9-0.1
		c0.9,0,1.7-0.4,2.3-1.2c0.6-0.8,1-1.9,1.1-3.6l0.4-6.5l4.2-0.1l-0.5,6.6c-0.1,1.3-0.3,2.4-0.6,3.4s-0.7,1.7-1.2,2.3
		c-0.5,0.6-1.1,1.1-1.8,1.4c-0.7,0.4-1.4,0.6-2.1,0.8S238.8,146.7,237.9,146.7z"/>
	<path fill="#FFFFFF" d="M251.5,146.4c-0.3,0.2-0.6,0.4-1,0.5c-0.4,0.2-0.8,0.2-1.2,0.2c-0.4,0-0.9-0.1-1.4-0.3l0.5-3.8
		c0.5,0.1,1,0.2,1.4,0.2c0.8,0,1.5-0.2,2-0.5c0.5-0.4,0.8-1,0.8-1.9l0.1-3.8c0-0.9-0.3-1.4-0.9-1.4c-0.7,0-1.3,0-1.9,0.2l-0.3,0.1
		l0.1-3.4c1-0.2,1.9-0.3,2.7-0.3c0.9,0,1.6,0.1,2.2,0.3c0.6,0.2,1,0.4,1.4,0.7c0.3,0.3,0.6,0.6,0.8,1c0.2,0.4,0.3,0.8,0.3,1.3
		c0,0.4,0.1,0.9,0,1.5l-0.3,10.1l-3.3-0.1l-0.6-2.1l-0.2,0c-0.1,0.2-0.3,0.4-0.5,0.7S251.7,146.2,251.5,146.4z"/>
	<path fill="#FFFFFF" d="M259.6,137.6c0-0.8,0.2-1.5,0.5-2.1c0.3-0.6,0.6-1.1,1.1-1.5c0.4-0.4,0.9-0.7,1.5-0.9
		c1-0.4,2.2-0.6,3.5-0.5c1.5,0.1,2.7,0.4,3.7,1.1c0.3,0.3,0.7,0.6,1,1s0.6,0.9,0.8,1.4c0.5,1.1,0.7,2.6,0.6,4.3
		c0,1.2-0.2,2.3-0.5,3.2c-0.3,0.9-0.6,1.6-1,2.1c-0.4,0.5-0.9,0.9-1.5,1.3c-0.6,0.3-1.2,0.5-1.8,0.6s-1.3,0.1-2.1,0.1
		c-0.8,0-1.7-0.1-2.5-0.2c-0.8-0.1-1.5-0.2-1.8-0.2l-0.6-0.1l0.1-3.3c1.7,0.2,3.4,0.4,5.1,0.4c0.8,0,1.3-0.3,1.6-1
		c0.2-0.4,0.3-0.8,0.4-1.3c0-0.4,0.1-0.8,0.1-1c0-0.2,0-0.5,0-0.9c0-0.3,0-0.6,0-0.9s0-0.5,0-0.8c0-0.3,0-0.6-0.1-0.8
		c0-0.2-0.1-0.4-0.2-0.6s-0.2-0.4-0.3-0.5c-0.3-0.3-0.7-0.5-1.1-0.5c-0.4,0-0.8,0-1,0.1s-0.5,0.2-0.6,0.3c-0.1,0.1-0.2,0.3-0.3,0.4
		c-0.1,0.2-0.2,0.5-0.2,0.8c0,0.3,0,0.5,0.1,0.8c0.1,0.2,0.2,0.4,0.4,0.5c0.3,0.2,0.5,0.3,0.8,0.4l0.9,0.2l-0.8,3.1l-1.1-0.1
		C261.1,142.4,259.5,140.7,259.6,137.6z"/>
	<path fill="#FFFFFF" d="M292.9,135c0.3,0.3,0.5,0.5,0.7,0.8s0.3,0.6,0.4,1c0.1,0.7,0.2,1.5,0.1,2.5l-0.5,9.4l-4.4-0.3l0.5-9.2
		c0.1-1.4-0.6-2.2-2.1-2.3c-0.4,0-0.6,0-0.8,0l-0.4,6.9c0,0.6-0.1,1-0.2,1.5c-0.1,0.4-0.3,0.8-0.5,1.2s-0.5,0.7-0.9,1
		c-0.8,0.5-1.9,0.8-3.4,0.7c-0.3,0-0.7-0.1-1-0.2c-0.3-0.1-0.6-0.2-0.8-0.3l-0.3-0.1l0.2-3.1c0.6,0.1,1,0.2,1.4,0.2
		c0.4,0,0.7-0.1,0.8-0.2c0.1-0.2,0.2-0.5,0.2-0.9l0.4-6.7l-1.6,0l0.2-3.3c2.5-0.1,4.9-0.1,7.1,0C290.5,133.8,292,134.3,292.9,135z"
		/>
	<path fill="#FFFFFF" d="M300.8,149.3l-4.3-0.3l1-14.5l4.3,0.3L300.8,149.3z"/>
	<path fill="#FFFFFF" d="M304.1,144.8l0.8-9.8l4.3,0.3l-0.5,6.8L306,145L304.1,144.8z"/>
	<path fill="#FFFFFF" d="M311.2,135.5c1.5,0,2.9,0,4,0.1c1.2,0.1,2.1,0.2,2.7,0.4c0.7,0.2,1.2,0.4,1.6,0.7c0.4,0.3,0.8,0.6,1,0.9
		c0.3,0.3,0.4,0.7,0.6,1.2c0.1,0.5,0.2,0.9,0.2,1.4c0,0.4,0,1-0.1,1.6l-0.8,9.2l-4.3-0.4l0.8-9.2c0.1-1.4-0.5-2.2-2-2.4
		c-1.1-0.1-2.5-0.1-4-0.1L311.2,135.5z"/>
	<path fill="#FFFFFF" d="M330.8,137.2c0.6,0,1.2,0,1.8,0c0.6,0.1,1.1,0.2,1.6,0.4c0.5,0.2,1,0.5,1.4,0.9c0.4,0.4,0.7,0.9,0.9,1.4
		c0.4,1.2,0.5,2.9,0.3,5.1c-0.3,2.4-1,4.2-2.3,5.5c-1.3,1.2-2.9,1.7-5,1.5c-0.9-0.1-1.7-0.3-2.4-0.8c-0.7-0.4-1.3-1-1.8-1.7
		s-0.8-1.6-1.1-2.6c-0.2-1-0.3-2.1-0.1-3.3l0.7-7l4.3,0.5l-0.7,7c-0.3,2.8,0.2,4.2,1.5,4.4c0.7,0.1,1.2-0.2,1.6-0.8
		c0.4-0.6,0.7-1.7,0.8-3.1s0.1-2.5-0.1-3.1c-0.2-0.6-0.7-0.9-1.4-1h-0.5L330.8,137.2z"/>
	<path fill="#FFFFFF" d="M342.7,153.3l-4.3-0.6l1.1-8.4l4.3,0.6L342.7,153.3z M346.3,138.9c1.8,0.2,3.1,0.6,3.9,1.2
		c0.4,0.3,0.7,0.6,1,0.9s0.4,0.7,0.5,1.2c0.1,0.5,0.1,0.9,0.1,1.4c0,0.4,0,1-0.1,1.6l-1.2,9.2l-4.3-0.6l1.2-9.2
		c0.2-1.4-0.5-2.2-1.9-2.4c-1.3-0.2-2.9-0.3-4.7-0.3l-0.9,0l0.4-3.3C342,138.5,344,138.6,346.3,138.9z"/>
	<path fill="#FFFFFF" d="M360.3,155.8l-6.3-1l1.1-14.6l4.2,0.7l-0.5,6.8c0.1,0,0.2,0,0.3,0c0.1,0,0.2-0.1,0.3-0.2
		c0.1-0.1,0.2-0.2,0.3-0.4s0.2-0.4,0.3-0.7l1.3-5.1l4.1,0.7l-1.3,5c-0.1,0.6-0.3,1.1-0.6,1.6c-0.2,0.5-0.5,0.8-0.8,1.1
		s-0.6,0.5-0.9,0.7s-0.6,0.3-0.9,0.4c-0.3,0.1-0.6,0.1-0.9,0.1c-0.5,0-0.9,0-1.4-0.1l-0.2,0l-0.1,1.3l2.9,0.5
		c0.9,0.1,1.7-0.1,2.5-0.7c0.7-0.6,1.3-1.7,1.7-3.3l1.6-6.4l4.2,0.7l-1.6,6.5c-0.3,1.2-0.7,2.3-1.2,3.2c-0.5,0.9-1,1.6-1.6,2.1
		c-0.6,0.5-1.2,0.8-2,1.1c-0.7,0.2-1.5,0.4-2.2,0.4C361.9,156,361.1,156,360.3,155.8z"/>
	<path fill="#FFFFFF" d="M377.7,143.9c0.9,0.2,1.7,0.5,2.4,0.9c0.7,0.4,1.2,0.8,1.5,1.3c0.4,0.5,0.6,1.1,0.8,1.7
		c0.3,1.1,0.3,2.4,0,3.8l-0.4,1.8c-0.1,0.7-0.3,1.3-0.5,1.9c-0.2,0.6-0.5,1.1-0.9,1.6s-0.8,0.9-1.3,1.2c-0.5,0.3-1.2,0.5-1.9,0.6
		c-0.8,0.1-1.7,0-2.6-0.2c-1.9-0.4-3.4-0.8-4.4-1.2l0.7-3.3c1.1,0.4,2.5,0.7,4,1c0.8,0.2,1.4,0,1.8-0.5c0.4-0.5,0.7-1.2,0.9-2.1
		l0.4-1.8c0.1-0.4,0.1-0.7,0.2-1s0-0.6,0-0.9c0-0.3-0.1-0.6-0.3-0.8c-0.3-0.5-1-0.8-1.9-1c-1-0.2-2-0.4-3.1-0.5l-0.5-0.1l0.7-3.3
		C374.5,143.3,376,143.6,377.7,143.9z"/>
</g>
<g>
	<path fill="#FFFFFF" d="M176.2,179l5.1,2.2l-1.5,3.3l-5.1-2.2L176.2,179z"/>
	<path fill="#FFFFFF" d="M193.6,176.8c0.3-0.9,0.6-1.9,0.6-2.7c0-0.8-0.2-1.5-0.8-1.7c-1-0.3-1.7,0.6-2.2,2.2c-0.3,0.9-0.2,2,0,3.2
		s0.6,2.5,1,3.9c0.4,1.6,0.9,3.3,1.1,4.9c0.2,1.6,0.2,3.1-0.3,4.6c-0.6,1.8-1.5,3.3-2.7,4.3c-1.3,0.9-2.9,1.3-5,0.6
		c-2.5-0.9-3.6-2.3-3.9-4s0.2-3.7,0.9-5.7l4,0.9c-0.4,1.1-0.7,2.3-0.7,3.2c0,1,0.2,1.7,1,2c1.2,0.4,2-0.7,2.6-2.4
		c0.3-0.9,0.2-2,0-3.3c-0.2-0.6-0.3-1.3-0.5-1.9c-0.4-1.3-0.8-2.9-1.2-4.5c-0.4-1.6-0.6-3.2-0.5-4.8c0-0.8,0.2-1.5,0.4-2.2
		c0.5-1.4,1.4-2.9,2.6-3.8c1.2-0.9,2.8-1.3,4.6-0.7c2.4,0.8,3.4,2.2,3.7,3.9c0.3,1.7-0.1,3.6-0.6,5L193.6,176.8z"/>
	<path fill="#FFFFFF" d="M201.2,171.2l4,1l-7.1,27.2l-4-1L201.2,171.2z"/>
	<path fill="#FFFFFF" d="M209.2,186.9l-0.1-1.3l-0.2,0l-2.9,15.7l-3.7-0.7l5-27.7l3.6,0.7l1.3,15.1l0.1,1.3l0.2,0l2.9-15.7l3.7,0.7
		l-5,27.7l-3.6-0.7L209.2,186.9z"/>
	<path fill="#FFFFFF" d="M230.3,194.6l-0.3,3.8c-0.1,1.1-0.5,2.1-1,3c-0.4,0.7-1,1.4-1.8,1.9c-0.8,0.5-1.9,0.8-3.2,0.7
		c-1.4-0.1-2.4-0.6-3.1-1.2c-0.7-0.6-1.1-1.4-1.4-2.2c-0.3-0.9-0.5-2-0.4-3.1l1.5-16.5c0.1-1.1,0.5-2.1,1-2.9c0.4-0.7,1-1.5,1.8-2
		c0.8-0.5,1.9-0.8,3.3-0.7s2.4,0.6,3.1,1.2c0.7,0.6,1.2,1.4,1.5,2.2c0.3,0.9,0.5,2,0.4,3.1l-0.3,3.8l-3.8-0.3l0.3-3.8
		c0.1-0.8-0.1-1.3-0.5-1.8c-0.2-0.2-0.5-0.4-0.9-0.4c-0.7-0.1-1.1,0.4-1.3,0.9c-0.1,0.3-0.2,0.6-0.3,1l-1.5,16.5
		c0,0.8,0.1,1.4,0.5,1.8c0.2,0.2,0.4,0.3,0.8,0.4c0.9,0.1,1.3-0.3,1.5-0.9c0.1-0.3,0.2-0.6,0.2-1l0.3-3.8L230.3,194.6z"/>
	<path fill="#FFFFFF" d="M233.5,176.2l9.4,0.1l0,4.2l-5.3-0.1l-0.1,7.4l3.8,0l-0.1,4.5l-3.8,0l-0.1,7.7l5.3,0.1l0,4.2l-9.4-0.1
		L233.5,176.2z"/>
	<path fill="#FFFFFF" d="M249.5,182.1l-0.2-2.6c1.7-0.5,2.6-1.5,3.3-2.3c0.3-0.5,0.6-1,0.8-1.5l2.5-0.2l2.5,28l-4.1,0.4l-2-21.9
		L249.5,182.1z"/>
	<path fill="#FFFFFF" d="M258.5,181c-0.1-0.6-0.3-2.2,0.2-3.6c0.5-1.4,1.6-2.8,4.1-3.2c2.5-0.4,4,0.5,4.9,1.8
		c0.9,1.2,1.3,2.7,1.4,3.4l2.6,15.8c0.2,1,0.4,2.6-0.1,4.1c-0.5,1.5-1.6,2.9-4.2,3.3c-2.6,0.4-4-0.5-5-1.8c-0.9-1.2-1.2-2.9-1.4-3.9
		l-0.3-1.7l4.1-0.7c0.3,1.8,0.5,3.1,0.8,3.7c0.3,0.7,0.6,0.9,1.2,0.8c0.5-0.1,0.8-0.4,0.9-0.9c0.1-0.5,0-1.3-0.1-2.3l-0.8-5.2
		c-0.6,0.5-1.2,0.9-1.9,1c-2.1,0.3-3.4-0.6-4.2-1.7s-1.1-2.6-1.3-3.4L258.5,181z M264.9,178.7c-0.1-0.3-0.5-1.2-1.4-1
		c-0.9,0.1-1.1,1.1-1,1.4l1.3,8c0.1,0.3,0.6,1.2,1.4,1s1.1-0.9,1.1-1.3L264.9,178.7z"/>
	<path fill="#FFFFFF" d="M275.7,175.9l-6,1.5l-1-4l10.1-2.5l1,4l1.8,24.3l-4.2,1L275.7,175.9z"/>
	<path fill="#FFFFFF" d="M290.7,182.6c-0.4-1.1-1.1-1.8-1.9-1.5c-0.4,0.1-0.7,0.6-0.8,1.1c-0.1,0.5-0.1,1.1,0,1.4l-3.3,1.1l-4.8-14
		l9.4-3.2l1.3,3.9l-6.1,2.1l1.9,5.5c0.3-0.5,0.7-0.9,1.2-1.3c0.2-0.2,0.5-0.3,0.8-0.4c2-0.7,3.5,0.1,4.5,1.2c1,1.1,1.6,2.4,1.7,2.9
		l2,5.9c0.4,1.3,0.9,3,0.7,4.6c-0.2,1.7-1.1,3.3-3.5,4.1c-2.4,0.8-4,0.1-5.3-1.2c-1.2-1.3-2-3.3-2.6-5.1l3.9-1.3l0.4,1
		c0.5,1.3,0.9,2.3,1.2,2.7c0.4,0.5,0.7,0.6,1.2,0.5c0.4-0.1,0.6-0.5,0.6-1.1s-0.2-1.5-0.7-2.9L290.7,182.6z"/>
	<path fill="#FFFFFF" d="M297.5,181.3l5.1-2.2l1.5,3.3l-5.1,2.2L297.5,181.3z"/>
</g>
</svg>
