<svg xmlns="http://www.w3.org/2000/svg" viewBox="0 0 478.1 234.3" style="enable-background:new 0 0 478.1 234.3"><path d="m239.4 234.3c-7.2 0-12.9-3-16.6-5.3-3.2 1.3-7.7 2.9-13 2.9-1.4 0-2.8-.1-4.1-.3-7.2-1.2-12.3-5.1-15.7-7.9-2.4.5-5.3 1.1-8.7 1.1-3.1 0-6.1-.5-8.8-1.4-7-2.4-11.4-7.3-14.2-10.7-.6 0-1.2 0-1.8 0-3.9 0-9.8-.4-15.6-3.9-6.6-3.9-9.9-9.8-11.9-13.8-3.5-.8-8.4-2-13-5.3-27.1 2.8-48.4 5.6-65 8.5l-24 4.2 23.3-30.7-50.3-16.5 29.2-8.5c.7-.2 15.9-4.5 42.9-8.9v-1c0-5.5 4.5-8.5 10.5-10.7-.9-2.6-1-5.5-1-8.9 0-8.7 4.6-14.9 7.4-18.8-.9-4.7-1.9-12.1 1.6-19.8 3.5-7.5 9.7-11.3 13.7-13.7.9-4.5 2.5-11.5 8.2-17.2 5.4-5.5 12.1-7.2 16.5-8.2 2-4 5.4-9.9 12-13.8 5.8-3.5 11.7-3.9 15.6-3.9.6 0 1.2 0 1.8 0 2.8-3.4 7.2-8.3 14.2-10.7 2.8-1 5.7-1.4 8.8-1.4 3.3 0 6.3.6 8.7 1.1 3.3-2.9 8.5-6.8 15.7-7.9 1.4-.2 2.7-.3 4.1-.3 5.3 0 9.8 1.6 13 2.9 3.6-2.5 9.3-5.5 16.5-5.5 7.2 0 12.9 3 16.6 5.3 3.3-1.3 7.7-2.9 13-2.9 1.4 0 2.8.1 4.1.3 7.2 1.2 12.3 5.1 15.7 7.9 2.4-.5 5.3-1.1 8.7-1.1 3.1 0 6.1.5 8.8 1.4 7 2.4 11.4 7.3 14.2 10.7.6 0 1.2 0 1.8 0 3.9 0 9.8.4 15.6 3.9 6.6 3.9 9.9 9.8 11.9 13.8 4.4 1 11 2.7 16.5 8.2 5.7 5.8 7.3 12.7 8.1 17.2 4 2.4 10.1 6.2 13.6 13.7 3.6 7.8 2.4 15.2 1.5 19.8 2.8 3.9 7.1 10.1 7.1 18.8 0 3.3-2 6.2-3 8.8 3.1 1.1 8.4 3.6 8.4 10.8v1c28 4.4 44.4 8.7 45.1 8.9l30.8 8.6-49.8 16.3 23.4 30.7-23.8-4.2c-16.6-2.9-37.9-5.7-65-8.5-4.6 3.3-9.5 4.5-13 5.3-2 4-5.3 9.9-11.9 13.8-5.8 3.5-11.7 3.9-15.6 3.9-.6 0-1.2 0-1.8 0-2.8 3.4-7.2 8.3-14.2 10.7-2.8 1-5.7 1.4-8.8 1.4-3.3 0-6.3-.6-8.7-1.1-3.3 2.9-8.5 6.8-15.7 7.9-1.3.2-2.7.3-4.1.3-5.3 0-9.8-1.6-13-2.9-3.6 2.6-9.3 5.6-16.5 5.6" style="fill:#fff"/><g style="fill-rule:evenodd"><path d="m150.4 176.4c7.9 0-56.7 4.6-101.2 12.3l16.7-22-33.1-10.8c0 0 36.1-10.3 97.9-15.1-1.2 12.9 19.7 35.6 19.7 35.6" style="fill:#516600"/><path d="m153.1 176.7c0 0-74.3 7.8-69.7-6.3 4.4-14 70.5-10.8 70.5-10.8l-.8 17.1" style="fill:#334000"/><path d="m328.4 176.4c-7.9 0 56.7 4.6 101.2 12.3l-16.7-22 33.1-10.8c0 0-36.1-10.3-97.9-15.1 1.2 12.9-19.7 35.6-19.7 35.6" style="fill:#516600"/><path d="m325.6 176.7c0 0 74.3 7.8 69.8-6.3-4.4-14-70.5-10.8-70.5-10.8l.7 17.1" style="fill:#334000"/><path d="m239.4 224.7c-5.4 0-9.7-2.7-12.9-4.6-.9-.6-2.2-1.4-2.9-1.7-.7.2-2.2.8-3.2 1.2-2.9 1.2-6.5 2.7-10.7 2.7-.9 0-1.8-.1-2.6-.2-5.4-.9-9.2-4.2-12-6.7-.8-.7-1.9-1.7-2.6-2.1-.9.1-2.2.4-3.4.7-2.3.5-4.9 1.1-7.8 1.1-2 0-3.9-.3-5.7-.9-5.2-1.8-8.4-5.8-10.7-8.8-.6-.8-1.6-2-2.1-2.5-.2 0-.7-.1-1.5-.1-.7 0-1.4 0-2.1 0-.9 0-1.8.1-2.7.1-3 0-7-.3-10.7-2.5-4.8-2.9-7.1-7.5-8.8-11-.5-.9-1.1-2.3-1.6-2.9-.7-.3-2.4-.6-3.5-.9-3.7-.8-8.8-1.8-12.6-5.7-4-4.1-5-9.3-5.7-13.2-.2-1.1-.5-2.6-.7-3.3-.6-.5-2-1.4-3-1.9-3.4-2-8-4.7-10.4-9.8-2.5-5.3-1.4-10.7-.7-14.6.2-1.1.5-2.7.5-3.5-.3-.7-1.3-2-1.9-2.9-2.4-3.3-5.6-7.7-5.6-13.7 0-5.9 3.3-10.4 5.6-13.7.7-.9 1.6-2.2 1.9-2.9 0-.7-.3-2.4-.5-3.5-.7-3.9-1.8-9.3.7-14.6 2.4-5.2 7-7.9 10.4-9.8 1-.6 2.5-1.4 3-1.9.2-.7.5-2.2.7-3.3.7-3.8 1.7-9.1 5.7-13.2 3.8-3.9 8.9-5 12.6-5.7 1.1-.2 2.7-.6 3.5-.9.4-.6 1.1-2 1.6-2.9 1.7-3.4 4-8.1 8.8-11 3.7-2.2 7.7-2.5 10.7-2.5.9 0 1.8 0 2.7.1.7 0 1.4 0 2.1 0 .8 0 1.2 0 1.5-.1.6-.5 1.5-1.7 2.1-2.5 2.3-2.9 5.6-7 10.7-8.8 1.8-.6 3.7-.9 5.7-.9 2.9 0 5.5.6 7.8 1.1 1.2.3 2.6.6 3.4.7.6-.4 1.8-1.4 2.6-2.1 2.8-2.5 6.7-5.8 12-6.7.8-.1 1.7-.2 2.6-.2 4.1 0 7.8 1.5 10.7 2.7 1 .4 2.5 1 3.2 1.2.7-.3 2-1.1 2.9-1.7 3.2-2 7.5-4.6 12.9-4.6 5.4 0 9.7 2.7 12.9 4.6.9.6 2.2 1.4 2.9 1.7.7-.2 2.2-.8 3.2-1.2 2.9-1.2 6.5-2.7 10.7-2.7.9 0 1.8.1 2.6.2 5.4.9 9.2 4.2 12 6.7.8.7 1.9 1.7 2.6 2.1.9-.1 2.2-.4 3.4-.7 2.3-.5 4.9-1.1 7.8-1.1 2 0 3.9.3 5.7.9 5.2 1.8 8.4 5.8 10.7 8.8.7.8 1.6 2 2.1 2.5.2 0 .7.1 1.5.1.7 0 1.4 0 2.1 0 .9 0 1.8-.1 2.7-.1 3 0 7 .3 10.7 2.5 4.8 2.9 7.1 7.5 8.8 11 .5.9 1.1 2.3 1.6 2.9.7.3 2.4.6 3.5.9 3.7.8 8.8 1.8 12.6 5.8 4 4.1 5 9.3 5.7 13.2.2 1.1.5 2.6.7 3.3.6.5 2 1.4 3 1.9 3.4 2 8 4.7 10.4 9.8 2.5 5.3 1.4 10.7.7 14.6-.2 1.1-.5 2.7-.5 3.5.3.7 1.3 2 1.9 2.9 2.4 3.3 5.6 7.7 5.6 13.7s-3.3 10.4-5.6 13.7c-.7.9-1.6 2.2-1.9 2.9 0 .7.3 2.4.5 3.5.7 3.9 1.8 9.3-.7 14.6-2.4 5.2-7 7.9-10.4 9.8-1 .6-2.5 1.4-3 1.9-.2.7-.5 2.2-.7 3.3-.7 3.8-1.7 9.1-5.7 13.2-3.8 3.9-8.9 5-12.6 5.8-1.1.2-2.7.6-3.5.9-.4.6-1.1 2-1.6 2.9-1.7 3.4-4 8.1-8.8 11-3.7 2.2-7.7 2.5-10.7 2.5-.9 0-1.8 0-2.7-.1-.7 0-1.4 0-2.1 0-.8 0-1.2 0-1.5.1-.6.5-1.5 1.7-2.1 2.5-2.3 2.9-5.6 7-10.7 8.8-1.8.6-3.7.9-5.7.9-2.9 0-5.5-.6-7.8-1.1-1.2-.3-2.6-.6-3.4-.7-.6.4-1.8 1.4-2.6 2.1-2.8 2.5-6.7 5.8-12 6.7-.8.1-1.7.2-2.6.2-4.1 0-7.8-1.5-10.7-2.7-1-.4-2.5-1-3.2-1.2-.7.3-2 1.1-2.9 1.7-3.2 1.8-7.5 4.4-12.9 4.4" style="fill:#003b43"/><path d="m239.4 219c-3.8 0-7-2-9.9-3.8-1.9-1.2-3.9-2.4-5.4-2.6-.1 0-.2 0-.3 0-1.5 0-3.6.9-5.7 1.7-2.7 1.1-5.4 2.3-8.4 2.3-.6 0-1.1 0-1.7-.1-3.7-.6-6.6-3.1-9.2-5.3-1.7-1.5-3.5-3-4.9-3.4-.3-.1-.7-.1-1.2-.1-1.4 0-3.1.4-5 .8-2.1.5-4.3 1-6.5 1-1.4 0-2.7-.2-3.8-.6-3.6-1.3-6-4.3-8.1-6.9-1.4-1.8-2.9-3.6-4.2-4.2-1.1-.5-2.7-.6-3.9-.6-.7 0-1.5 0-2.3 0-.8 0-1.7.1-2.5.1-2.4 0-5.3-.2-7.8-1.7-3.3-2-5.1-5.5-6.6-8.6-1-2-2-4.1-3.1-4.9-1.3-1-3.6-1.5-5.9-1.9-3.3-.7-7.1-1.5-9.7-4.2-2.8-2.8-3.5-6.7-4.2-10.2-.4-2.2-.8-4.4-1.6-5.6-.9-1.3-2.9-2.4-4.9-3.6-3-1.8-6.4-3.7-8.1-7.3-1.7-3.7-.9-7.6-.3-11.1.4-2.1.8-4.4.5-5.8-.3-1.4-1.6-3.2-2.9-5-2.1-2.9-4.5-6.2-4.5-10.3 0-4.1 2.4-7.4 4.5-10.3 1.3-1.8 2.6-3.6 2.9-5 .3-1.4-.1-3.7-.5-5.8-.7-3.5-1.4-7.5.3-11.1 1.6-3.5 5-5.5 8.1-7.3 2-1.1 4-2.3 4.9-3.6.8-1.2 1.2-3.4 1.6-5.6.6-3.5 1.4-7.4 4.2-10.2 2.6-2.7 6.4-3.5 9.7-4.2 2.3-.5 4.6-1 5.9-1.9 1.1-.9 2.2-2.9 3.1-4.9 1.5-3.1 3.3-6.6 6.6-8.6 2.5-1.5 5.5-1.7 7.8-1.7.8 0 1.6 0 2.5.1.8 0 1.5 0 2.3 0 1.3 0 2.8-.1 3.9-.6 1.3-.6 2.8-2.4 4.2-4.2 2.1-2.7 4.5-5.7 8.1-6.9 1.2-.4 2.4-.6 3.8-.6 2.2 0 4.4.5 6.5 1 1.8.4 3.5.8 5 .8.5 0 .9 0 1.2-.1 1.4-.4 3.2-1.9 4.9-3.4 2.5-2.2 5.4-4.7 9.2-5.3.5-.1 1.1-.1 1.7-.1 3 0 5.8 1.2 8.4 2.3 2 .8 4.1 1.7 5.7 1.7.1 0 .2 0 .3 0 1.5-.1 3.5-1.4 5.4-2.6 2.9-1.8 6.1-3.8 9.9-3.8 3.8 0 7 2 9.9 3.8 1.9 1.2 3.9 2.4 5.4 2.6.1 0 .2 0 .3 0 1.5 0 3.6-.9 5.7-1.7 2.7-1.1 5.4-2.3 8.4-2.3.6 0 1.1 0 1.7.1 3.7.6 6.6 3.1 9.2 5.3 1.7 1.5 3.5 3 4.9 3.4.3.1.7.1 1.2.1 1.4 0 3.1-.4 5-.8 2.1-.5 4.3-1 6.5-1 1.4 0 2.7.2 3.8.6 3.6 1.3 6 4.3 8.1 6.9 1.4 1.8 2.9 3.6 4.2 4.2 1.1.5 2.7.6 3.9.6.7 0 1.5 0 2.3 0 .8 0 1.7-.1 2.5-.1 2.4 0 5.3.2 7.8 1.7 3.3 2 5.1 5.5 6.6 8.6 1 2 2 4.1 3.1 4.9 1.3 1 3.6 1.5 5.9 1.9 3.3.7 7.1 1.5 9.7 4.2 2.8 2.8 3.5 6.7 4.2 10.2.4 2.2.8 4.4 1.6 5.6.9 1.3 2.9 2.4 4.9 3.6 3 1.8 6.4 3.7 8.1 7.3 1.7 3.7.9 7.6.3 11.1-.4 2.1-.8 4.4-.5 5.8.3 1.4 1.6 3.2 2.9 5 2.1 2.9 4.5 6.2 4.5 10.3s-2.4 7.4-4.5 10.3c-1.3 1.8-2.6 3.6-2.9 5-.3 1.4.1 3.7.5 5.8.7 3.5 1.4 7.5-.3 11.1-1.6 3.5-5 5.5-8.1 7.3-2 1.1-4 2.3-4.9 3.6-.8 1.2-1.2 3.4-1.6 5.6-.6 3.5-1.4 7.4-4.2 10.2-2.6 2.7-6.4 3.5-9.7 4.2-2.3.5-4.6 1-5.9 1.9-1.1.9-2.2 2.9-3.1 4.9-1.5 3.1-3.3 6.6-6.6 8.6-2.5 1.5-5.4 1.7-7.8 1.7-.8 0-1.6 0-2.5-.1-.8 0-1.5 0-2.3 0-1.3 0-2.8.1-3.9.6-1.3.6-2.8 2.4-4.2 4.2-2.1 2.7-4.5 5.7-8.1 6.9-1.2.4-2.4.6-3.8.6-2.2 0-4.4-.5-6.5-1-1.8-.4-3.5-.8-5-.8-.5 0-.9 0-1.2.1-1.4.4-3.2 1.9-4.9 3.4-2.5 2.2-5.4 4.7-9.2 5.3-.5.1-1.1.1-1.7.1-3 0-5.8-1.2-8.4-2.3-2-.8-4.1-1.7-5.7-1.7-.1 0-.2 0-.3 0-1.5.1-3.5 1.4-5.4 2.6-2.9 1.8-6.1 3.8-9.9 3.8" style="fill:#fff"/><path d="m377.6 117.1c0 5.1-6.2 9.5-7.4 14.4-1.1 4.9 2.6 11.6.5 16.2-2.1 4.5-9.6 6-12.6 10.2-2.9 4-1.8 11.6-5.4 15.3-3.5 3.5-11.1 2.6-15.2 5.8-3.9 3-4.9 10.6-9.4 13.3-4.3 2.5-11.4-.2-16.1 2-4.5 2.1-7.1 9.3-12 11-4.7 1.6-11.2-2.4-16.2-1.2-4.8 1.2-8.7 7.8-13.7 8.7-4.9.8-10.6-4.3-15.8-3.9-5 .4-9.8 6.3-15 6.3-5.1 0-10-5.9-15-6.3-5.1-.4-10.8 4.7-15.8 3.9-5.1-.8-8.9-7.4-13.7-8.7-5-1.2-11.5 2.8-16.2 1.2-4.9-1.7-7.4-8.9-12-11-4.7-2.2-11.9.6-16.1-2-4.4-2.6-5.4-10.2-9.4-13.3-4.1-3.2-11.7-2.2-15.2-5.8-3.6-3.7-2.5-11.2-5.4-15.3-3-4.2-10.5-5.7-12.6-10.2-2.1-4.6 1.6-11.3.5-16.2-1.1-4.9-7.4-9.3-7.4-14.4 0-5.1 6.2-9.5 7.4-14.4 1.1-4.9-2.6-11.6-.5-16.2 2.1-4.5 9.6-6 12.6-10.2 2.9-4 1.8-11.6 5.4-15.3 3.5-3.5 11.1-2.6 15.2-5.8 3.9-3 4.9-10.6 9.4-13.3 4.3-2.5 11.4.2 16.1-2 4.5-2.1 7.1-9.3 12-11 4.7-1.6 11.2 2.4 16.2 1.2 4.8-1.2 8.7-7.8 13.7-8.7 4.9-.8 10.6 4.3 15.8 3.9 5-.4 9.8-6.3 15-6.3 5.1 0 10 5.9 15 6.3 5.1.4 10.8-4.7 15.8-3.9 5.1.8 8.9 7.4 13.7 8.7 5 1.2 11.5-2.8 16.2-1.2 4.9 1.7 7.4 8.9 12 11 4.7 2.2 11.9-.6 16.1 2 4.4 2.6 5.4 10.2 9.4 13.3 4.1 3.2 11.7 2.2 15.2 5.8 3.6 3.7 2.5 11.2 5.4 15.3 3 4.2 10.5 5.7 12.6 10.2 2.1 4.6-1.6 11.3-.5 16.2 1.1 4.9 7.4 9.3 7.4 14.4" style="fill:#003b43"/><path d="m239.5 118.9c108.6 2.1 155.8 15.6 155.8 17.9v37.7c-58.9-14-103.6-16.5-155.8-16.9-52.2.4-97.1 2.9-156 16.9v-37.7c0-2.4 47.3-15.9 156-17.9" style="fill:#7b9a00"/></g><g><path d="m238.3 154.4v-1.6c2 0 3.9 0 5.9 0v1.6c-2 0-4 0-5.9 0m-8.8-1.6c1.9 0 3.9 0 5.9 0v1.7c-2 0-3.9 0-5.8 0l-.1-1.7m17.5 1.6v-1.6c2 0 3.9 0 5.9 0l-.1 1.6c-1.9 0-3.8 0-5.8 0m-26.3-1.5c1.9 0 3.9-.1 5.9-.1l.1 1.6c-2 0-3.9.1-5.8.1l-.2-1.6m35.1 1.6l.1-1.7c2 0 3.9.1 5.9.1l-.1 1.6c-2 0-3.9 0-5.9 0m-43.9-1.4c1.9-.1 3.9-.1 5.9-.2l.1 1.6c-2 0-3.9.1-5.8.2l-.2-1.6m52.7 1.5l.1-1.6c2 0 3.9.1 5.9.1l-.1 1.6c-2.1 0-4 0-5.9-.1m-61.5-1.2c1.9-.1 3.9-.2 5.9-.2l.2 1.6c-2 .1-3.9.1-5.8.2l-.3-1.6m70.2 1.5l.2-1.6c1.9.1 3.9.1 5.8.2l-.2 1.6c-1.9-.1-3.9-.2-5.8-.2m8.9-1.3c0 0 0 0 0 0m-.2 1.6l.2-1.6c1.9.1 3.9.2 5.8.3l-.3 1.6c-1.9-.1-3.8-.2-5.7-.3m-87.6-1.3c1.9-.1 3.9-.2 5.8-.3l.2 1.6c-2 .1-3.9.2-5.8.3l-.2-1.6m96.6.1c1.9.1 3.9.2 5.8.4l-.3 1.6c-1.9-.1-3.9-.2-5.8-.4l.3-1.6m-105.4.4c1.9-.1 3.9-.2 5.8-.4l.3 1.6c-2 .1-3.9.2-5.8.4l-.3-1.6m114.1.2c1.9.1 3.9.3 5.8.4l-.4 1.6c-1.9-.2-3.9-.3-5.8-.4l.4-1.6m-122.8.4c1.9-.1 3.9-.3 5.8-.4l.4 1.6c-2 .1-3.9.3-5.8.4l-.4-1.6m-8.7.7c1.9-.2 3.8-.3 5.8-.5l.4 1.6c-2 .2-3.9.3-5.8.5l-.4-1.6m140.2-.5c1.9.2 3.9.3 5.8.5l-.5 1.6c-1.9-.2-3.8-.4-5.7-.5l.4-1.6m-148.9 1.3c1.9-.2 3.8-.4 5.8-.6l.5 1.6c-1.9.2-3.9.4-5.7.6l-.6-1.6m157.1 1.2l.5-1.6c1.9.2 3.8.4 5.8.6l-.6 1.6c-1.9-.3-3.8-.5-5.7-.6m-165.8-.3c1.9-.2 3.8-.4 5.8-.6l.5 1.6c-1.9.2-3.9.4-5.7.6l-.6-1.6m174.4 1.2l.6-1.6c1.9.2 3.8.5 5.7.7l-.6 1.6c-1.9-.3-3.8-.5-5.7-.7m-183-.1c1.9-.2 3.8-.5 5.7-.7l.6 1.6c-1.9.2-3.8.5-5.7.7l-.6-1.6m191.5 1.1l.7-1.6c1.9.2 3.8.5 5.7.8l-.7 1.6c-1.9-.3-3.8-.5-5.7-.8m-200.1 0c1.9-.3 3.8-.5 5.7-.8l.7 1.6c-1.9.3-3.8.5-5.7.8l-.7-1.6m208.6 1.2l.7-1.6c1.9.3 3.8.6 5.7.9l-.8 1.6c-1.9-.3-3.7-.6-5.6-.9m-217.1 0c1.8-.3 3.7-.6 5.7-.8l.7 1.6c-1.9.3-3.8.6-5.6.8l-.8-1.6m226.3-.3c1.9.3 3.7.6 5.6.9l-.8 1.6c-1.9-.3-3.7-.6-5.6-.9l.8-1.6m-234.8 1.7c1.8-.3 3.7-.6 5.6-.9l.8 1.6c-1.9.3-3.8.6-5.6.9l-.8-1.6m243.3-.3c1.8.3 3.7.7 5.6 1l-.9 1.6c-1.9-.3-3.7-.7-5.5-1l.8-1.6m-251.7 1.8c1.8-.3 3.6-.7 5.6-1l.9 1.6c-1.9.3-3.8.7-5.6 1l-.9-1.6m259.1 1.3l.9-1.6c1.8.3 3.7.7 5.5 1.1l-1 1.6c-1.7-.4-3.6-.7-5.4-1.1m-267.4.3c1.7-.3 3.6-.7 5.5-1.1l.9 1.6c-2 .4-3.8.7-5.5 1.1l-.9-1.6m276.6-.2c1.8.4 3.7.7 5.5 1.1l-1 1.5c-1.8-.4-3.7-.8-5.5-1.1l1-1.5m-284.9 2c1.6-.4 3.4-.8 5.5-1.2l1 1.5c-2 .4-3.8.8-5.4 1.2l-1.1-1.5m293.2-.3c1.8.4 3.6.8 5.5 1.2l-1.1 1.5c-1.8-.4-3.6-.8-5.4-1.2l1-1.5m-301.3 2.3c0 0 1.9-.5 5.4-1.4l1.1 1.5c-3.5.8-5.3 1.3-5.3 1.3l-1.2-1.4m308.4 1l1.1-1.5c.3.1.6.1.8.2l-1.1 1.5c-.3 0-.5-.1-.8-.2" style="fill:#f5f1e3"/></g><g><path d="m239.2 122.2c.6 0 1.2 0 1.8 0 1.4 0 2.7 0 4.1 0v1.6c-1.3 0-2.7 0-4.1 0-.6 0-1.2 0-1.8 0v-1.6m-4.1 0c.4 0 .8 0 1.2 0v1.6c-.4 0-.8 0-1.2 0-1.6 0-3.1 0-4.7 0v-1.6c1.6 0 3.1 0 4.7 0m12.9 0c2 0 3.9 0 5.8 0v1.7c-1.9 0-3.9 0-5.8 0v-1.7m8.8 0c2 0 3.9 0 5.9 0l-.1 1.6c-1.9 0-3.9 0-5.8 0v-1.6m-35.2.1c1.9 0 3.9-.1 5.9-.1v1.6c-2 0-3.9 0-5.8.1l-.1-1.6m43.9 0c2 0 3.9.1 5.9.1l-.1 1.6c-1.9 0-3.9-.1-5.8-.1v-1.6m-52.7.1c1.9-.1 3.9-.1 5.9-.1l.1 1.6c-2 0-3.9.1-5.8.1l-.2-1.6m61.5 0c2 0 3.9.1 5.9.2l-.2 1.6c-1.9-.1-3.9-.1-5.8-.2l.1-1.6m-70.3.3c1.9-.1 3.9-.1 5.9-.2l.2 1.6c-2 .1-3.9.1-5.8.2l-.3-1.6m78.9 1.6l.2-1.6c1.9.1 3.9.1 5.9.2l-.2 1.6c-2 0-3.9-.1-5.9-.2m-87.6-1.2c1.9-.1 3.9-.2 5.8-.3l.2 1.6c-2 .1-3.9.2-5.8.3l-.2-1.6m96.3 1.6l.2-1.6c1.9.1 3.9.2 5.8.3l-.3 1.6c-1.8-.1-3.8-.2-5.7-.3m-105.1-1.1c1.9-.1 3.9-.2 5.8-.3l.3 1.6c-2 .1-3.9.2-5.8.3l-.3-1.6m113.8 1.6l.3-1.6c1.9.1 3.9.3 5.8.4l-.4 1.6c-1.9-.2-3.8-.3-5.7-.4m-122.5-1.1c1.9-.1 3.9-.3 5.8-.4l.3 1.6c-2 .1-3.9.3-5.8.4l-.3-1.6m131.2 1.7l.4-1.6c1.9.2 3.9.3 5.8.5l-.5 1.6c-1.9-.2-3.8-.3-5.7-.5m-139.9-1c1.9-.2 3.8-.3 5.8-.5l.4 1.6c-2 .1-3.9.3-5.8.5l-.4-1.6m148.5 1.8l.5-1.6c1.9.2 3.8.4 5.8.6l-.6 1.6c-2-.2-3.9-.4-5.7-.6m-157.2-1c1.9-.2 3.8-.4 5.8-.5l.4 1.6c-2 .2-3.9.3-5.8.5l-.4-1.6m-8.7.8c1.9-.2 3.8-.4 5.8-.6l.5 1.6c-1.9.2-3.9.4-5.7.6l-.6-1.6m174.4 1.1l.6-1.6c1.9.2 3.8.5 5.7.7l-.6 1.6c-1.9-.2-3.8-.5-5.7-.7m-183-.1c1.9-.2 3.8-.4 5.7-.7l.6 1.6c-1.9.2-3.8.4-5.7.7l-.6-1.6m191.5 1.2l.7-1.6c1.9.3 3.8.5 5.7.8l-.7 1.6c-1.9-.3-3.8-.6-5.7-.8m-200.1-.1c1.9-.2 3.8-.5 5.7-.7l.6 1.6c-1.9.2-3.8.5-5.7.7l-.6-1.6m209.4-.3c1.9.3 3.7.6 5.7.9l-.8 1.6c-1.9-.3-3.8-.6-5.6-.9l.7-1.6m-218 1.5c1.8-.3 3.7-.5 5.7-.8l.7 1.6c-1.9.3-3.8.5-5.6.8l-.8-1.6m226.4-.1c1.9.3 3.7.6 5.6 1l-.9 1.6c-1.9-.3-3.7-.7-5.6-1l.9-1.6m-234.9 1.4c1.8-.3 3.7-.6 5.7-.9l.8 1.6c-1.9.3-3.8.6-5.6.9l-.9-1.6m242.4 1.6l.9-1.6c1.8.3 3.7.7 5.6 1l-.9 1.6c-1.9-.3-3.7-.7-5.6-1m-250.8-.1c1.8-.3 3.7-.6 5.6-1l.8 1.6c-1.9.3-3.8.7-5.6 1l-.8-1.6m259.1 1.7l1-1.6c1.8.4 3.7.7 5.5 1.1l-1 1.6c-1.8-.4-3.7-.8-5.5-1.1m-267.5-.1c1.7-.3 3.6-.7 5.6-1.1l.9 1.6c-2 .4-3.8.7-5.5 1.1l-1-1.6m275.7 1.7l1-1.5c1.8.4 3.6.8 5.5 1.2l-1.1 1.5c-1.7-.4-3.6-.8-5.4-1.2m-283.9 0c1.6-.4 3.4-.8 5.5-1.2l1 1.5c-2 .4-3.8.8-5.4 1.2l-1.1-1.5m292.1 1.8l1.1-1.5c1.8.4 3.6.8 5.4 1.2l-1.1 1.5c-1.8-.4-3.6-.8-5.4-1.2m-300.3.2c0 0 1.9-.5 5.4-1.4l1.1 1.5c-3.5.8-5.3 1.3-5.3 1.3l-1.2-1.4m309.5.1c.1 0 .3.1.4.1l-1.1 1.5c-.1 0-.3-.1-.4-.1l1.1-1.5" style="fill:#f5f1e3"/></g><g style="fill:#fff"><path d="m157.6 102.6l.2 1.5-9.6 1-.2-1.5c-.1-1.3-.1-3.1.1-5.5.2-2.4.5-4.5 1-6.2l3.2-12.3-19.6 2-.8-7.5 30.3-3.1.6 5.6-3.9 14.4c-1.2 4.5-1.6 8.3-1.3 11.6m-11.4 15.1l-9.7 1-3.3-31.7 9.7-1 3.3 31.7"/><path d="m179.1 102.4l-9.7.7-2.4-32.3 9.7-.7 2.4 32.3"/><path d="m201 101.2l-14.2.7-4.3-32.3 9.4-.4 2 15c.2 0 .4-.1.7-.2s.5-.3.7-.5c.2-.2.4-.6.5-1.1.2-.5.3-1.1.3-1.7l.4-11.7 9.4-.4-.4 11.4c0 1.4-.2 2.6-.5 3.7-.3 1.1-.7 2-1.2 2.8-.5.7-1 1.4-1.7 1.9-.6.6-1.3 1-1.8 1.3-.6.3-1.2.5-1.9.7-1 .3-2 .4-3.1.5h-.4l.4 2.9 6.5-.3c2.1-.1 3.8-1 5.1-2.7 1.3-1.7 2-4.4 2.2-8l.6-14.6 9.4-.4-.6 14.9c-.1 2.9-.5 5.4-1.2 7.5-.7 2.2-1.6 3.9-2.6 5.2-1 1.3-2.3 2.4-3.8 3.3-1.5.9-3 1.4-4.6 1.8-1.6.4-3.3.6-5.3.7"/></g><g style="fill:#ff7f12;stroke-miterlimit:10;stroke:#ff7f12;stroke-linecap:round;stroke-linejoin:round;stroke-width:2"><path d="m233.8 67.5c.1 1.2-.2 3.7-.8 7.3-.4 1.4-1.4 2.8-2.9 3.9-1 .6-2 1.2-2.9 1.8.4-2.7.7-9.9.7-21.5 0-.9.7-1.4 1.9-1.4 2.4-.1 3.6.8 3.6 2.5.1 2 .2 4.4.4 7.4z"/><path d="m302.3 44.8c-3-.4-5.2-.7-6.7-.7-.9 0-2.1.1-3.6.4-6.1 1.1-10.8 2.9-14 5.6-3 2.4-5.9 6.6-8.8 12.5-1.8 3.5-3 6.8-3.7 9.9-.2.7-.2 1.5-.3 2.3v.3c0 .8-.1 1.5-.2 2.3.5.5 1.5.8 3.2.7h.4.2c.5.1 1.1.2 1.6.3.5.1 1 .4 1.3.8.2.5.3.8.2 1-.1.1-.6.4-1.6 1.1-.2 0-.4.1-.7.2-.3.1-.7.2-1.3.3-1.7.2-2.9.1-3.7-.2-.6 3.6-.9 5.6-.9 6-.1 1.5-.2 3.4-.2 5.8 0 1.4.4 3.2 1.1 5.3.4 1 .3 2.1-.1 3.2 0 .4-.3.7-1 1-.2.1-.8.2-1.7.1-.8 0-1.3-.1-1.4-.2-.3-.1-.6-.5-.9-1.1-.5-1.2-2.5-3.9-5.9-8.1-.7-1.1-3.5-4.3-8.3-9.7-2.9-3.1-5.4-6.1-7.5-9.2-.2-.2-.2-.5-.2-.8 0-.8.6-1.5 1.7-2.2 1.1-.7 2.1-1.1 3.2-1 .9 0 3.5.7 7.8 2 2.1.8 5.4 1.9 9.7 3.3.5-2.2.9-4.3 1.4-6.5.5-2.2 1.2-4.4 2.1-6.8 4.1-9.8 9.5-16 16.2-18.5 1.2-.5 3-1 5.5-1.7 3-.8 5.4-1.2 7.1-1.1 1.9.1 4.5.8 7.6 2.1.7.5 1.6.9 2.4 1.3zm-42.9 35.6c-1.7-.8-6.7-2.2-14.9-4.3.7.6 1.3 1.2 1.7 1.8 1.2 1.6 3.2 4 5.8 7.1 1.6 1.8 3.7 4.1 6.4 7-.2-4.2.1-8 1-11.6z"/></g><g style="fill:#fff"><path d="m310.1 70.5l-.7 11.8c-.1 1-.2 1.9-.4 2.7-.2.8-.5 1.6-.9 2.4-.9 1.8-2.6 3.1-5.3 3.9 2.9 5.2 5 9.1 6.5 11.7l-10.8-.7-7.9-15.2c-.3.5-.6 1.4-.6 2.7l-.7 11.9-9.7-.6.7-11.8c.1-1 .2-1.9.4-2.7.2-.8.5-1.6 1-2.5.9-1.8 2.7-3.1 5.3-3.9-1.9-3.5-4.1-7.3-6.5-11.7l10.8.7 5.8 11.4 2.1 3.7c.3-.6.5-1.5.6-2.7l.7-11.9 9.6.8"/><path d="m325.6 71.4c3 .3 5.4.8 7.1 1.5 1.9.8 3.2 1.7 3.9 2.7.9 1.2 1.4 2.5 1.5 3.9.2 1.4.2 3.1 0 5l-1.3 13.5 3.5.3-.7 7.5-27.1-2.6.7-7.5 13.9 1.3 1.3-13.1c.3-3.2-1.2-5-4.5-5.3-2.1-.2-4.6-.3-7.5-.3h-1.6l.7-7.4c2.2 0 5.5.1 10.1.5"/><path d="m105.8 144.1c.4.2.6.4.9.6.2.2.5.5.6.9.3.6.6 1.4.8 2.4l1.9 9.2-4.3.9-1.8-9c-.3-1.4-1.2-2-2.6-1.7-.4.1-.6.1-.8.2l1.4 6.8c.1.5.2 1 .2 1.5 0 .4 0 .9-.2 1.3s-.3.8-.6 1.2c-.6.7-1.6 1.2-3.1 1.5-.3.1-.7.1-1 .1-.4 0-.6 0-.8-.1l-.3-.1-.6-3.1c.6 0 1-.1 1.4-.1s.6-.2.7-.4c.1-.2.1-.5 0-.9l-1.3-6.5-1.5.4-.7-3.3c2.4-.8 4.7-1.4 6.9-1.8 2.2-.6 3.8-.5 4.8 0"/><path d="m117.1 156.1l-4.3.7-2.4-14.3 4.3-.7 2.4 14.3"/><path d="m117 141.3c1.5-.4 2.8-.6 4-.8 1.2-.2 2.1-.2 2.7-.2.7 0 1.2.1 1.7.3.5.2.9.4 1.2.6.3.3.6.6.8 1 .2.4.4.8.5 1.3.1.4.2.9.3 1.5l1.3 9.1-4.3.6-1.3-9.1c-.2-1.4-1-2-2.5-1.8-1.1.2-2.4.4-4 .8l-.4-3.3"/><path d="m131.8 149.2l-1.3-9.8 4.3-.6.9 6.7-2 3.3-1.9.4"/><path d="m146.5 152.1l-6.3.7-2.8-14.3 4.2-.5 1.3 6.7c.1 0 .2 0 .3-.1.1-.1.2-.2.3-.3.1-.1.1-.3.2-.5.1-.2.1-.5.1-.8l-.1-5.3 4.2-.5.1 5.2c0 .6 0 1.2-.1 1.7-.1.5-.3.9-.4 1.3-.2.3-.4.6-.7.9-.3.3-.5.5-.8.6-.3.1-.5.3-.8.4-.4.2-.9.3-1.4.3h-.2l.3 1.3 2.9-.3c.9-.1 1.7-.6 2.2-1.4.5-.8.8-2 .8-3.6l-.1-6.6 4.2-.5.1 6.7c0 1.3-.1 2.4-.3 3.4-.3 1-.6 1.8-1 2.4s-1 1.1-1.6 1.6c-.7.4-1.3.7-2 .9-1 .4-1.8.5-2.6.6"/><path d="m162.2 135.8c1.8-.2 3.1 0 4 .3.5.2.8.4 1.2.7.3.3.6.6.8 1.1.2.4.3.9.4 1.3s.2 1 .2 1.6l.8 9.2-4.4.4-.8-9.2c-.1-1.4-.9-2.1-2.4-2-1.3.1-2.9.3-4.6.7l-.9.2-.3-3.3c1.7-.5 3.7-.8 6-1m-.4 14.8l-4.3.4-.7-8.4 4.3-.4.7 8.4"/><path d="m189.2 134.8c.3.2.6.5.8.7s.4.6.5 1c.2.6.4 1.5.4 2.5l.6 9.4-4.4.3-.6-9.2c-.1-1.4-.9-2.1-2.3-2-.4 0-.6 0-.8.1l.4 6.9c0 .6 0 1.1 0 1.5-.1.4-.2.9-.4 1.3-.2.4-.4.8-.8 1.1-.7.6-1.8 1-3.3 1.1-.3 0-.7 0-1-.1-.3-.1-.6-.1-.8-.2l-.3-.1-.2-3.1c.6.1 1 .1 1.4.1.4 0 .6-.1.8-.3.1-.2.2-.5.1-.9l-.4-6.7-1.5.2-.2-3.3c2.5-.4 4.8-.7 7.1-.9s3.9 0 4.9.6"/><path d="m206.3 133.1l.3 5.3c0 .5 0 .9 0 1.2 0 .3-.1.7-.3 1.1-.3.8-1 1.5-2.1 2 1.5 2.2 2.7 3.8 3.5 4.9l-4.9.2-4.3-6.4c-.1.2-.2.6-.2 1.2l.3 5.3-4.3.2-.3-5.3c0-.4 0-.8 0-1.2 0-.4.1-.7.3-1.1.3-.8 1-1.5 2.2-2-1-1.4-2.2-3.1-3.5-4.9l4.8-.2 3.1 4.8 1.1 1.6c.1-.3.1-.7.1-1.2l-.3-5.3 4.5-.2"/><path d="m221.3 132.3c1.8-.1 3.1.1 4 .6.4.2.8.5 1.1.8.3.3.5.7.7 1.1.2.4.3.9.4 1.3s.1 1 .1 1.6l.3 9.2-4.4.1-.3-9.2c0-1.4-.8-2.1-2.3-2.1-1.3 0-2.9.2-4.7.4l-.9.1-.1-3.3c1.9-.3 3.9-.5 6.1-.6m-1.2 14.8l-4.3.1-.3-8.5 4.3-.1.3 8.5"/><path d="m237.9 146.7l-6.4.1-1.5-14.5 4.2-.1.7 6.7c.1 0 .2 0 .3-.1.1-.1.2-.1.3-.2s.2-.3.2-.5c.1-.2.1-.5.1-.8l.3-5.2 4.2-.1-.3 5.2c0 .6-.1 1.2-.3 1.7-.2.5-.3.9-.6 1.2s-.5.6-.8.9c-.3.2-.6.4-.8.6-.3.1-.6.2-.9.3-.4.1-.9.2-1.4.2h-.2l.2 1.3 2.9-.1c.9 0 1.7-.4 2.3-1.2.6-.8 1-1.9 1.1-3.6l.4-6.5 4.2-.1-.5 6.6c-.1 1.3-.3 2.4-.6 3.4s-.7 1.7-1.2 2.3c-.5.6-1.1 1.1-1.8 1.4-.7.4-1.4.6-2.1.8s-1.1.3-2 .3"/><path d="m251.5 146.4c-.3.2-.6.4-1 .5-.4.2-.8.2-1.2.2-.4 0-.9-.1-1.4-.3l.5-3.8c.5.1 1 .2 1.4.2.8 0 1.5-.2 2-.5.5-.4.8-1 .8-1.9l.1-3.8c0-.9-.3-1.4-.9-1.4-.7 0-1.3 0-1.9.2l-.3.1.1-3.4c1-.2 1.9-.3 2.7-.3.9 0 1.6.1 2.2.3.6.2 1 .4 1.4.7.3.3.6.6.8 1 .2.4.3.8.3 1.3 0 .4.1.9 0 1.5l-.3 10.1-3.3-.1-.6-2.1h-.2c-.1.2-.3.4-.5.7s-.5.6-.7.8"/><path d="m259.6 137.6c0-.8.2-1.5.5-2.1.3-.6.6-1.1 1.1-1.5.4-.4.9-.7 1.5-.9 1-.4 2.2-.6 3.5-.5 1.5.1 2.7.4 3.7 1.1.3.3.7.6 1 1s.6.9.8 1.4c.5 1.1.7 2.6.6 4.3 0 1.2-.2 2.3-.5 3.2-.3.9-.6 1.6-1 2.1-.4.5-.9.9-1.5 1.3-.6.3-1.2.5-1.8.6s-1.3.1-2.1.1c-.8 0-1.7-.1-2.5-.2-.8-.1-1.5-.2-1.8-.2l-.6-.1.1-3.3c1.7.2 3.4.4 5.1.4.8 0 1.3-.3 1.6-1 .2-.4.3-.8.4-1.3 0-.4.1-.8.1-1 0-.2 0-.5 0-.9 0-.3 0-.6 0-.9s0-.5 0-.8c0-.3 0-.6-.1-.8 0-.2-.1-.4-.2-.6s-.2-.4-.3-.5c-.3-.3-.7-.5-1.1-.5-.4 0-.8 0-1 .1s-.5.2-.6.3c-.1.1-.2.3-.3.4-.1.2-.2.5-.2.8 0 .3 0 .5.1.8.1.2.2.4.4.5.3.2.5.3.8.4l.9.2-.8 3.1-1.1-.1c-3.2-.1-4.8-1.8-4.7-4.9"/><path d="m292.9 135c.3.3.5.5.7.8s.3.6.4 1c.1.7.2 1.5.1 2.5l-.5 9.4-4.4-.3.5-9.2c.1-1.4-.6-2.2-2.1-2.3-.4 0-.6 0-.8 0l-.4 6.9c0 .6-.1 1-.2 1.5-.1.4-.3.8-.5 1.2s-.5.7-.9 1c-.8.5-1.9.8-3.4.7-.3 0-.7-.1-1-.2-.3-.1-.6-.2-.8-.3l-.3-.1.2-3.1c.6.1 1 .2 1.4.2.4 0 .7-.1.8-.2.1-.2.2-.5.2-.9l.4-6.7h-1.6l.2-3.3c2.5-.1 4.9-.1 7.1 0 2.5.2 4 .7 4.9 1.4"/><path d="m300.8 149.3l-4.3-.3 1-14.5 4.3.3-1 14.5"/><path d="m304.1 144.8l.8-9.8 4.3.3-.5 6.8-2.7 2.9-1.9-.2"/><path d="m311.2 135.5c1.5 0 2.9 0 4 .1 1.2.1 2.1.2 2.7.4.7.2 1.2.4 1.6.7.4.3.8.6 1 .9.3.3.4.7.6 1.2.1.5.2.9.2 1.4 0 .4 0 1-.1 1.6l-.8 9.2-4.3-.4.8-9.2c.1-1.4-.5-2.2-2-2.4-1.1-.1-2.5-.1-4-.1l.3-3.4"/><path d="m330.8 137.2c.6 0 1.2 0 1.8 0 .6.1 1.1.2 1.6.4.5.2 1 .5 1.4.9.4.4.7.9.9 1.4.4 1.2.5 2.9.3 5.1-.3 2.4-1 4.2-2.3 5.5-1.3 1.2-2.9 1.7-5 1.5-.9-.1-1.7-.3-2.4-.8-.7-.4-1.3-1-1.8-1.7s-.8-1.6-1.1-2.6c-.2-1-.3-2.1-.1-3.3l.7-7 4.3.5-.7 7c-.3 2.8.2 4.2 1.5 4.4.7.1 1.2-.2 1.6-.8.4-.6.7-1.7.8-3.1s.1-2.5-.1-3.1c-.2-.6-.7-.9-1.4-1h-.5l.5-3.3"/><path d="m342.7 153.3l-4.3-.6 1.1-8.4 4.3.6-1.1 8.4m3.6-14.4c1.8.2 3.1.6 3.9 1.2.4.3.7.6 1 .9s.4.7.5 1.2c.1.5.1.9.1 1.4 0 .4 0 1-.1 1.6l-1.2 9.2-4.3-.6 1.2-9.2c.2-1.4-.5-2.2-1.9-2.4-1.3-.2-2.9-.3-4.7-.3h-.9l.4-3.3c1.7-.1 3.7 0 6 .3"/><path d="m360.3 155.8l-6.3-1 1.1-14.6 4.2.7-.5 6.8c.1 0 .2 0 .3 0 .1 0 .2-.1.3-.2.1-.1.2-.2.3-.4s.2-.4.3-.7l1.3-5.1 4.1.7-1.3 5c-.1.6-.3 1.1-.6 1.6-.2.5-.5.8-.8 1.1s-.6.5-.9.7-.6.3-.9.4c-.3.1-.6.1-.9.1-.5 0-.9 0-1.4-.1h-.2l-.1 1.3 2.9.5c.9.1 1.7-.1 2.5-.7.7-.6 1.3-1.7 1.7-3.3l1.6-6.4 4.2.7-1.6 6.5c-.3 1.2-.7 2.3-1.2 3.2-.5.9-1 1.6-1.6 2.1-.6.5-1.2.8-2 1.1-.7.2-1.5.4-2.2.4-.7-.2-1.5-.2-2.3-.4"/><path d="m377.7 143.9c.9.2 1.7.5 2.4.9.7.4 1.2.8 1.5 1.3.4.5.6 1.1.8 1.7.3 1.1.3 2.4 0 3.8l-.4 1.8c-.1.7-.3 1.3-.5 1.9-.2.6-.5 1.1-.9 1.6s-.8.9-1.3 1.2c-.5.3-1.2.5-1.9.6-.8.1-1.7 0-2.6-.2-1.9-.4-3.4-.8-4.4-1.2l.7-3.3c1.1.4 2.5.7 4 1 .8.2 1.4 0 1.8-.5.4-.5.7-1.2.9-2.1l.4-1.8c.1-.4.1-.7.2-1s0-.6 0-.9c0-.3-.1-.6-.3-.8-.3-.5-1-.8-1.9-1-1-.2-2-.4-3.1-.5l-.5-.1.7-3.3c1.2.3 2.7.6 4.4.9"/><path d="m176.2 179l5.1 2.2-1.5 3.3-5.1-2.2 1.5-3.3"/><path d="m193.6 176.8c.3-.9.6-1.9.6-2.7 0-.8-.2-1.5-.8-1.7-1-.3-1.7.6-2.2 2.2-.3.9-.2 2 0 3.2s.6 2.5 1 3.9c.4 1.6.9 3.3 1.1 4.9.2 1.6.2 3.1-.3 4.6-.6 1.8-1.5 3.3-2.7 4.3-1.3.9-2.9 1.3-5 .6-2.5-.9-3.6-2.3-3.9-4s.2-3.7.9-5.7l4 .9c-.4 1.1-.7 2.3-.7 3.2 0 1 .2 1.7 1 2 1.2.4 2-.7 2.6-2.4.3-.9.2-2 0-3.3-.2-.6-.3-1.3-.5-1.9-.4-1.3-.8-2.9-1.2-4.5-.4-1.6-.6-3.2-.5-4.8 0-.8.2-1.5.4-2.2.5-1.4 1.4-2.9 2.6-3.8 1.2-.9 2.8-1.3 4.6-.7 2.4.8 3.4 2.2 3.7 3.9.3 1.7-.1 3.6-.6 5l-4.1-1"/><path d="m201.2 171.2l4 1-7.1 27.2-4-1 7.1-27.2"/><path d="m209.2 186.9l-.1-1.3h-.2l-2.9 15.7-3.7-.7 5-27.7 3.6.7 1.3 15.1.1 1.3h.2l2.9-15.7 3.7.7-5 27.7-3.6-.7-1.3-15.1"/><path d="m230.3 194.6l-.3 3.8c-.1 1.1-.5 2.1-1 3-.4.7-1 1.4-1.8 1.9-.8.5-1.9.8-3.2.7-1.4-.1-2.4-.6-3.1-1.2-.7-.6-1.1-1.4-1.4-2.2-.3-.9-.5-2-.4-3.1l1.5-16.5c.1-1.1.5-2.1 1-2.9.4-.7 1-1.5 1.8-2 .8-.5 1.9-.8 3.3-.7s2.4.6 3.1 1.2c.7.6 1.2 1.4 1.5 2.2.3.9.5 2 .4 3.1l-.3 3.8-3.8-.3.3-3.8c.1-.8-.1-1.3-.5-1.8-.2-.2-.5-.4-.9-.4-.7-.1-1.1.4-1.3.9-.1.3-.2.6-.3 1l-1.5 16.5c0 .8.1 1.4.5 1.8.2.2.4.3.8.4.9.1 1.3-.3 1.5-.9.1-.3.2-.6.2-1l.3-3.8 3.6.3"/><path d="m233.5 176.2l9.4.1v4.2l-5.3-.1-.1 7.4h3.8l-.1 4.5h-3.8l-.1 7.7 5.3.1v4.2l-9.4-.1.3-28"/><path d="m249.5 182.1l-.2-2.6c1.7-.5 2.6-1.5 3.3-2.3.3-.5.6-1 .8-1.5l2.5-.2 2.5 28-4.1.4-2-21.9-2.8.1"/><path d="m258.5 181c-.1-.6-.3-2.2.2-3.6.5-1.4 1.6-2.8 4.1-3.2 2.5-.4 4 .5 4.9 1.8.9 1.2 1.3 2.7 1.4 3.4l2.6 15.8c.2 1 .4 2.6-.1 4.1-.5 1.5-1.6 2.9-4.2 3.3-2.6.4-4-.5-5-1.8-.9-1.2-1.2-2.9-1.4-3.9l-.3-1.7 4.1-.7c.3 1.8.5 3.1.8 3.7.3.7.6.9 1.2.8.5-.1.8-.4.9-.9.1-.5 0-1.3-.1-2.3l-.8-5.2c-.6.5-1.2.9-1.9 1-2.1.3-3.4-.6-4.2-1.7s-1.1-2.6-1.3-3.4l-.9-5.5m6.4-2.3c-.1-.3-.5-1.2-1.4-1-.9.1-1.1 1.1-1 1.4l1.3 8c.1.3.6 1.2 1.4 1s1.1-.9 1.1-1.3l-1.4-8.1"/><path d="m275.7 175.9l-6 1.5-1-4 10.1-2.5 1 4 1.8 24.3-4.2 1-1.7-24.3"/><path d="m290.7 182.6c-.4-1.1-1.1-1.8-1.9-1.5-.4.1-.7.6-.8 1.1-.1.5-.1 1.1 0 1.4l-3.3 1.1-4.8-14 9.4-3.2 1.3 3.9-6.1 2.1 1.9 5.5c.3-.5.7-.9 1.2-1.3.2-.2.5-.3.8-.4 2-.7 3.5.1 4.5 1.2 1 1.1 1.6 2.4 1.7 2.9l2 5.9c.4 1.3.9 3 .7 4.6-.2 1.7-1.1 3.3-3.5 4.1-2.4.8-4 .1-5.3-1.2-1.2-1.3-2-3.3-2.6-5.1l3.9-1.3.4 1c.5 1.3.9 2.3 1.2 2.7.4.5.7.6 1.2.5.4-.1.6-.5.6-1.1s-.2-1.5-.7-2.9l-1.8-6"/><path d="m297.5 181.3l5.1-2.2 1.5 3.3-5.1 2.2-1.5-3.3"/></g></svg>