<svg display="none" width="0" height="0" version="1.1" xmlns="http://www.w3.org/2000/svg" xmlns:xlink="http://www.w3.org/1999/xlink">
<defs>
<symbol id="icon-cart" viewBox="0 0 1095 1024">
<path class="path1" d="M1081.224 133.412c-10.859-12.465-26.503-19.625-43.012-19.625h-786.134l-11.095-66.226c-4.548-27.416-28.281-47.561-56.091-47.561h-127.998c-31.46 0-56.893 25.433-56.893 56.893s25.433 56.893 56.893 56.893h79.808l105.807 635.111c0.456 2.565 1.763 4.658 2.565 7.051 0.913 3.022 1.653 5.855 3.069 8.593 1.826 3.761 4.265 6.941 6.83 10.183 1.763 2.219 3.352 4.438 5.398 6.374 3.305 3.069 7.114 5.241 10.985 7.397 2.156 1.196 4.045 2.786 6.374 3.698 6.594 2.675 13.535 4.265 20.884 4.265 0.063 0 625.826 0 625.826 0 31.46 0 56.893-25.433 56.893-56.893s-25.433-56.893-56.893-56.893h-577.589l-9.443-56.893h643.925c28.329 0 52.345-20.822 56.327-48.804l56.893-398.221c2.314-16.399-2.581-32.94-13.33-45.341zM972.631 227.557l-16.21 113.771h-202.644v-113.771h218.854zM696.883 227.557v113.771h-170.664v-113.771h170.664zM696.883 398.221v113.771h-170.664v-113.771h170.664zM469.326 227.557v113.771h-170.664c-3.022 0-5.744 0.85-8.42 1.7l-19.232-115.486h198.316zM299.465 398.221h169.877v113.771h-150.928l-18.949-113.771zM753.777 511.992v-113.771h194.444l-16.21 113.771h-178.234z"></path>
<path class="path2" d="M469.326 938.668c0 47.128-38.204 85.332-85.332 85.332s-85.332-38.204-85.332-85.332c0-47.128 38.204-85.332 85.332-85.332s85.332 38.204 85.332 85.332z"></path>
<path class="path3" d="M981.334 938.668c0 47.128-38.204 85.332-85.332 85.332s-85.332-38.204-85.332-85.332c0-47.128 38.204-85.332 85.332-85.332s85.332 38.204 85.332 85.332z"></path>
</symbol>
<symbol id="icon-menu" viewBox="0 0 1229 1024">
<path class="path1" d="M0 0h1228.8v204.8h-1228.8v-204.8z"></path>
<path class="path2" d="M0 409.6h1228.8v204.8h-1228.8v-204.8z"></path>
<path class="path3" d="M0 819.2h1228.8v204.8h-1228.8v-204.8z"></path>
</symbol>
<symbol id="icon-menu-user" viewBox="0 0 1568 1024">
<path class="path1" d="M1158.827 546.133c151.893 0 206.507-151.893 220.16-276.48 17.067-153.6-54.613-269.653-220.16-269.653s-237.227 116.053-220.16 269.653c13.653 124.587 68.267 276.48 220.16 276.48zM1568.427 906.24c-1.707-47.787-6.827-97.28-15.36-145.067-10.24-58.027-23.893-141.653-73.387-179.2-29.013-22.187-66.56-29.013-100.693-42.667-17.067-6.827-30.72-11.947-44.373-20.48-46.080 51.2-105.813 76.8-175.787 76.8s-129.707-25.6-175.787-76.8c-13.653 6.827-29.013 13.653-44.373 20.48-34.133 13.653-71.68 20.48-100.693 42.667-51.2 37.547-63.147 122.88-73.387 179.2-8.533 47.787-13.653 95.573-15.36 145.067-1.707 37.547 17.067 42.667 47.787 54.613 39.253 13.653 80.213 23.893 121.173 32.427 78.507 17.067 160.427 29.013 240.64 30.72 80.213 0 162.133-13.653 240.64-30.72 40.96-8.533 81.92-18.773 121.173-32.427 30.72-11.947 47.787-17.067 47.787-54.613zM834.56 256h-834.56v-170.667h858.453c-20.48 49.493-29.013 107.52-23.893 170.667zM701.44 597.333h-701.44v-170.667h870.4c3.413 8.533 6.827 17.067 10.24 25.6-1.707 0-3.413 1.707-5.12 1.707-29.013 10.24-64.853 20.48-98.987 46.080-35.84 25.6-58.027 61.44-75.093 97.28zM648.533 938.667h-648.533v-170.667h658.773c-6.827 46.080-11.947 92.16-13.653 134.827 0 13.653 1.707 25.6 3.413 35.84z"></path>
</symbol>
</defs>
</svg>
