<svg xmlns="http://www.w3.org/2000/svg" viewBox="0 0 400 207.9" style="enable-background:new 0 0 400 207.9"><defs><linearGradient id="SVGID_1_" gradientUnits="userSpaceOnUse" y1="207.9152" x2="0" y2=".2"><stop style="stop-color:#fff"/><stop offset=".6286" style="stop-color:#ecf0f1"/></linearGradient><linearGradient id="SVGID_2_" gradientUnits="userSpaceOnUse" y1="0" x2="0" y2="37.5"><stop/><stop offset=".3807" style="stop-color:#b7b7b7"/><stop offset="1" style="stop-color:#fff;stop-opacity:0"/></linearGradient></defs><path d="m395.6 207.9l-192.9-20.8c-.3 0-.6 0-.8 0l-197.5 20.8c-2.4.2-4.4-1.6-4.4-4v-203.7h400v203.7c0 2.4-2.1 4.2-4.4 4" style="fill:url(#SVGID_1_)"/><g><g><path d="m387.9 0h2v2.5h-2z" style="fill:#7f8c8d"/></g><g><path d="m13 197.2c-.3 0-.6 0-.9-.1l.4-2c.3.1.6.1.9 0l3.8-.4.2 2-3.8.4c-.2.1-.4.1-.6.1m372 0c-.2 0-.4 0-.5 0l-3.8-.4.2-2 3.8.4c.1 0 .2 0 .3 0 .2 0 .4 0 .5-.1l.4 2c-.3 0-.6.1-.9.1m-362.7-.9l-.2-2 5-.5.2 2-5 .5m353.3-.1l-5-.5.2-2 5 .5-.2 2m-343.3-.9l-.2-2 5-.5.2 2-5 .5m333.4-.1l-5-.5.2-2 5 .5-.2 2m-323.4-.9l-.2-2 5-.5.2 2-5 .5m313.4-.2l-5-.5.2-2 5 .5-.2 2m-303.5-.9l-.2-2 5-.5.2 2-5 .5m293.6-.1l-5-.5.2-2 5 .5-.2 2m-337.7-.2c0-.2 0-.4 0-.6v-4.5h2v4.5c0 .1 0 .3 0 .4l-2 .2m381.8-.1l-2-.3c0-.1 0-.3 0-.4v-4.5h2v4.5c0 .3 0 .5 0 .7m-327.7-.6l-.2-2 5-.5.2 2-5 .5m273.6-.1l-5-.5.2-2 5 .5-.2 2m-263.7-.9l-.2-2 5-.5.2 2-5 .5m253.7-.2l-5-.5.2-2 5 .5-.2 2m-243.7-.8l-.2-2 5-.5.2 2-5 .5m233.8-.2l-5-.5.2-2 5 .5-.2 2m-223.8-.9l-.2-2 5-.5.2 2-5 .5m213.8-.2l-5-.5.2-2 5 .5-.2 2m-203.9-.8l-.2-2 5-.5.2 2-5 .5m194-.2l-5-.5.2-2 5 .5-.2 2m-184-.8l-.2-2 5-.5.2 2-5 .5m174-.3l-5-.5.2-2 5 .5-.2 2m-164.1-.7l-.2-2 5-.5.2 2-5 .5m154.2-.3l-5-.5.2-2 5 .5-.2 2m-144.2-.7l-.2-2 5-.5.2 2-5 .5m134.2-.4l-5-.5.2-2 5 .5-.2 2m-124.3-.7l-.2-2 5-.5.2 2-5 .5m114.4-.3l-5-.5.2-2 5 .5-.2 2m-104.4-.7l-.2-2 5-.5.2 2-5 .5m-141.8-.3h-2v-5h2v5m379.9 0h-2v-5h2v5m-143.7 0l-5-.5.2-2 5 .5-.2 2m-84.4-.7l-.2-2 5-.5.2 2-5 .5m74.4-.4l-5-.5.2-2 5 .5-.2 2m-64.5-.6l-.2-2 5-.5.2 2-5 .5m54.6-.4l-5-.5.2-2 5 .5-.2 2m-44.6-.6l-.2-2 5-.5.2 2-5 .5m34.6-.5l-5-.5.2-2 5 .5-.2 2m-24.7-.6l-.2-2 5-.5.2 2-5 .5m14.8-.4l-4.8-.5v-2c.1 0 .2 0 .2 0l4.8.5-.2 2m-196.4-5.8h-2v-5h2v5m379.9 0h-2v-5h2v5m-379.9-10h-2v-5h2v5m379.9 0h-2v-5h2v5m-379.9-10h-2v-5h2v5m379.9 0h-2v-5h2v5m-379.9-10h-2v-5h2v5m379.9 0h-2v-5h2v5m-379.9-10h-2v-5h2v5m379.9-.1h-2v-5h2v5m-379.9-9.9h-2v-5h2v5m379.9-.1h-2v-5h2v5m-379.9-9.9h-2v-5h2v5m379.9-.1h-2v-5h2v5m-379.9-10h-2v-5h2v5m379.9 0h-2v-5h2v5m-379.9-10h-2v-5h2v5m379.9 0h-2v-5h2v5m-379.9-10h-2v-5h2v5m379.9 0h-2v-5h2v5m-379.9-10h-2v-5h2v5m379.9 0h-2v-5h2v5m-379.9-10h-2v-5h2v5m379.9 0h-2v-5h2v5m-379.9-10h-2v-5h2v5m379.9 0h-2v-5h2v5m-379.9-10h-2v-5h2v5m379.9-.1h-2v-5h2v5m-379.9-9.9h-2v-5h2v5m379.9-.1h-2v-5h2v5m-379.9-9.9h-2v-5h2v5m379.9-.1h-2v-5h2v5m-379.9-10h-2v-5h2v5m379.9 0h-2v-5h2v5" style="fill:#7f8c8d"/></g><g><path d="m8 0h2v2.5h-2z" style="fill:#7f8c8d"/></g></g><path d="m0 0h400v37.5h-400z" style="fill:url(#SVGID_2_);opacity:.2"/></svg>