<svg xmlns="http://www.w3.org/2000/svg" viewBox="0 0 48 48"><path d="m29.652 13.998c2.16.5 3.879 2.34 4.379 4.35.171.94.99 1.65 1.971 1.65 1.1 0 2-.9 2-2 0-1.44-1.21-3.63-2.86-5.27-1.62-1.6-3.55-2.73-5.14-2.73-1.1 0-2 .93-2 2.03 0 .979.71 1.8 1.65 1.97m-27.49 26.22c-1.55 1.549-1.55 4.07 0 5.619 1.55 1.551 4.07 1.551 5.61 0l11.489-11.48c2.681 1.672 5.84 2.641 9.24 2.641 9.67 0 17.5-7.83 17.5-17.5s-7.83-17.5-17.5-17.5-17.5 7.83-17.5 17.5c0 3.39.971 6.56 2.641 9.24l-11.48 11.48m13.84-20.72c0-6.9 5.601-12.5 12.5-12.5 6.9 0 12.5 5.6 12.5 12.5s-5.6 12.5-12.5 12.5c-6.899-.0001-12.5-5.601-12.5-12.5" style="fill:#fff"/></svg>