<svg xmlns="http://www.w3.org/2000/svg" viewBox="0 0 62 220" style="enable-background:new 0 0 62 220"><g id="g3372" transform="matrix(-1 0 0-1 62 220)"><g id="g4"><path id="path6" d="M 62,0 11.493,20.107 C 4.454,22.904 0,29.466 0,36.825 l 0,146.35 c 0,7.359 4.454,13.921 11.493,16.718 L 62,220 62,0 Z" style="fill:#fff"/></g><path id="path8" d="m13.326 195.043l48.674 19.341v-208.768l-48.674 19.341c-5.024 1.996-8.297 6.678-8.297 11.868v146.35c0 5.19 3.273 9.872 8.297 11.868" style="fill:#008699"/><path id="path10" d="m15.582 195.043l46.418 19.341v-208.768l-46.418 19.341c-4.791 1.996-7.912 6.678-7.912 11.868v146.35c0 5.19 3.121 9.872 7.912 11.868" style="fill:#003b43"/><path id="path12" d="m61.478 208.382l-44.078-18.004c-3.176-1.289-4.9-4.11-4.9-7.203v-146.35c0-3.093 1.724-5.915 4.9-7.203l44.098-18.003" style="stroke-dasharray:5;fill:none;stroke-miterlimit:10;stroke:#fff;stroke-linecap:round;stroke-linejoin:round"/><g id="g14"><g id="g16" style="fill:#fff"><path id="path18" d="m39.359 55.764h-16.669v-5.011h16.668c1.064 0 2.106-.07 3.124-.213 1.018-.142 1.767-.285 2.248-.431l.734-.22v5.011c-.189.069-.459.15-.812.245-.353.095-1.061.221-2.125.38-1.064.159-2.121.239-3.168.239"/><path id="path20" d="m28.783 64.241v-4.998h16.681v4.998h-16.681"/><path id="path22" d="m39.707 67.086c.901 0 1.707.15 2.415.451.708.301 1.284.689 1.726 1.166.442.477.805 1.045 1.088 1.706.524 1.186.786 2.517.786 3.993 0 1.718-.374 3.144-1.121 4.277-.275.412-.635.812-1.082 1.197-.446.387-.961.709-1.545.967-1.288.584-2.903.876-4.843.876-1.391 0-2.604-.134-3.639-.399-1.035-.267-1.863-.616-2.486-1.05-.623-.434-1.125-.978-1.507-1.63-.382-.652-.64-1.313-.773-1.983-.133-.67-.2-1.483-.2-2.441 0-.957.03-1.924.09-2.898.06-.974.125-1.681.193-2.118l.09-.67h3.774c-.189 1.958-.283 3.916-.283 5.873 0 .868.391 1.465 1.172 1.791.481.206.968.328 1.462.367.494.038.87.063 1.127.07.257.009.584.014.979.014.395 0 .721-.005.979-.014.257-.008.564-.027.921-.058.356-.03.648-.073.876-.129.227-.056.47-.14.728-.251.258-.111.455-.245.593-.399.343-.369.515-.794.515-1.275 0-.48-.058-.874-.174-1.179-.116-.305-.247-.53-.393-.676-.146-.146-.318-.263-.515-.348-.283-.121-.58-.181-.889-.181-.309 0-.597.06-.863.181-.266.12-.468.274-.605.463-.223.31-.374.623-.451.94l-.219 1.057-3.594-.799.078-1.249c.239-3.761 2.103-5.642 5.59-5.642"/><path id="path24" d="m28.783 89.565v-4.998h16.681v4.998h-16.681"/><path id="path26" d="m29.569 104.7h-.786v-4.959h.786c.661 0 1.6.109 2.814.328 1.215.219 2.261.491 3.137.818l6.093 2.292v-10.137h3.852v15.625h-2.885l-7.162-2.705c-2.225-.841-4.174-1.262-5.849-1.262m-7.123-6.659v-4.998h16.385v4.998h-16.385"/></g><g id="g28" style="fill:#ff7f12;stroke-miterlimit:10;stroke:#ff7f12;stroke-linecap:round;stroke-linejoin:round"><path id="path30" d="m42.061 116.005c-.487.026-1.474-.109-2.96-.406-.581-.189-1.102-.589-1.561-1.196-.244-.406-.48-.805-.71-1.196 1.081.201 3.974.364 8.676.486.365.014.548.277.548.791 0 .973-.345 1.452-1.034 1.439-.77.028-1.757.054-2.959.082z"/><path id="path32" d="m52.339 144.751c.134-1.231.195-2.129.182-2.697-.014-.378-.088-.864-.223-1.459-.514-2.461-1.325-4.325-2.433-5.596-1.027-1.162-2.75-2.298-5.169-3.406-1.432-.662-2.777-1.114-4.034-1.359-.297-.054-.608-.08-.932-.08h-.121c-.311 0-.622-.02-.933-.061-.203.189-.284.629-.244 1.319v.141.06c-.027.217-.061.433-.101.65-.041.215-.149.398-.325.547-.202.094-.337.121-.405.08-.041-.026-.19-.243-.446-.649-.013-.068-.047-.158-.101-.274-.055-.115-.101-.294-.142-.536-.095-.69-.081-1.19.041-1.5-1.473-.191-2.285-.284-2.433-.284-.595-.014-1.379-.02-2.351-.02-.568.012-1.277.189-2.129.527-.392.161-.825.161-1.297 0-.163 0-.297-.129-.406-.386-.054-.081-.081-.304-.081-.669 0-.338.021-.535.061-.589.054-.121.202-.251.446-.384.473-.231 1.534-1.054 3.183-2.474.432-.31 1.696-1.466 3.791-3.466 1.203-1.23 2.412-2.278 3.629-3.143.095-.068.196-.101.304-.101.31 0 .618.214.922.639.304.426.456.855.456 1.288 0 .35-.231 1.411-.689 3.181-.311.879-.717 2.204-1.216 3.974.878.161 1.764.321 2.656.476.891.155 1.81.415 2.756.781 4.027 1.54 6.596 3.635 7.704 6.284.203.486.453 1.216.75 2.189.365 1.203.547 2.156.547 2.859 0 .784-.25 1.818-.75 3.101-.137.354-.292.698-.467 1.037zm-14.941-16.846c.297-.718.811-2.745 1.541-6.083-.23.284-.46.527-.689.73-.635.513-1.568 1.325-2.797 2.433-.703.662-1.615 1.561-2.737 2.697 1.688-.191 3.249-.115 4.682.223z"/></g><g id="g34" style="fill:#fff"><path id="path36" d="m45.464 153.519h-6.067c-.533 0-.994-.032-1.385-.097-.391-.063-.814-.195-1.269-.393-.945-.387-1.666-1.245-2.164-2.576-2.593 1.641-4.525 2.868-5.796 3.685v-5.578l7.522-4.521c-.257-.163-.73-.244-1.417-.244h-6.105v-4.985h6.067c.516 0 .975.034 1.378.104.403.068.833.206 1.288.412.945.412 1.666 1.279 2.164 2.602 1.709-1.091 3.637-2.318 5.784-3.684v5.564l-5.642 3.323-1.855 1.186c.301.137.765.206 1.392.206h6.105v4.996"/><path id="path38" d="m45.722 161.235c0 1.563-.142 2.795-.425 3.697-.309 1.005-.713 1.717-1.211 2.138-.567.498-1.211.825-1.932.979-.713.163-1.567.244-2.563.244h-6.956v1.816h-3.852v-13.988h3.852v7.175h6.737c1.657 0 2.486-.847 2.486-2.538 0-1.064-.073-2.345-.219-3.839l-.077-.798h3.826c.222 1.039.334 2.744.334 5.114"/></g></g></g></svg>