<?xml version="1.0" encoding="utf-8"?>
<!-- Generator: Adobe Illustrator 18.0.0, SVG Export Plug-In . SVG Version: 6.00 Build 0)  -->
<!DOCTYPE svg PUBLIC "-//W3C//DTD SVG 1.1//EN" "http://www.w3.org/Graphics/SVG/1.1/DTD/svg11.dtd">
<svg version="1.1" id="Layer_1" xmlns="http://www.w3.org/2000/svg" xmlns:xlink="http://www.w3.org/1999/xlink" x="0px" y="0px"
	 width="63.9px" height="40px" viewBox="0 0 63.9 40" enable-background="new 0 0 63.9 40" xml:space="preserve">
<g>
	<g>
		<defs>
			<rect id="SVGID_1_" x="0" y="0" width="63.9" height="40"/>
		</defs>
		<clipPath id="SVGID_2_">
			<use xlink:href="#SVGID_1_"  overflow="visible"/>
		</clipPath>
		<rect x="0" y="0" clip-path="url(#SVGID_2_)" fill="#007BB3" width="63.9" height="40"/>
		<rect x="0.7" y="0.7" clip-path="url(#SVGID_2_)" fill="#FFFFFF" width="62.4" height="38.5"/>
		
			<rect x="2.6" y="2.6" clip-path="url(#SVGID_2_)" fill-rule="evenodd" clip-rule="evenodd" fill="#007BB3" width="58.6" height="8.4"/>
		
			<rect x="2.6" y="29" clip-path="url(#SVGID_2_)" fill-rule="evenodd" clip-rule="evenodd" fill="#F1C14B" width="58.6" height="8.4"/>
		<polygon clip-path="url(#SVGID_2_)" fill-rule="evenodd" clip-rule="evenodd" fill="#007BB3" points="22.7,26.6 26.7,13.4 
			30.2,13.4 26.2,26.6 		"/>
		<g clip-path="url(#SVGID_2_)">
			<defs>
				<rect id="SVGID_3_" x="0" y="0" width="63.9" height="40"/>
			</defs>
			<clipPath id="SVGID_4_">
				<use xlink:href="#SVGID_3_"  overflow="visible"/>
			</clipPath>
			<path clip-path="url(#SVGID_4_)" fill-rule="evenodd" clip-rule="evenodd" fill="#007BB3" d="M21.1,13.4L17.8,19
				c-0.8,1.5-1.3,2.2-1.5,3.1h0c0.1-1.2-0.1-2.6-0.1-3.4l-0.4-5.3h-6l-0.1,0.4c1.5,0,2.5,0.8,2.7,2.4l1.2,10.5h3.7l7.5-13.2H21.1z"
				/>
			<path clip-path="url(#SVGID_4_)" fill-rule="evenodd" clip-rule="evenodd" fill="#007BB3" d="M48.9,26.6l-0.1-2l-4.5,0l-0.9,2
				h-3.9l7-13.2h4.8l1.2,13.2H48.9z M48.4,18.8c0-1-0.1-2.3,0-3.1h-0.1c-0.2,0.7-1.2,2.6-1.6,3.6l-1.3,2.9h3.1L48.4,18.8z"/>
			<path clip-path="url(#SVGID_4_)" fill-rule="evenodd" clip-rule="evenodd" fill="#007BB3" d="M34,27c-2.5,0-4.2-0.8-5.4-1.5
				l1.7-2.6c1.1,0.6,1.9,1.3,3.9,1.3c0.6,0,1.2-0.2,1.6-0.8c0.5-0.9-0.1-1.3-1.5-2.1l-0.7-0.4c-2.1-1.4-3-2.8-2-5.1
				c0.6-1.5,2.3-2.6,5-2.6c1.9,0,3.6,0.8,4.6,1.6l-2,2.3c-1-0.8-1.8-1.2-2.8-1.2c-0.8,0-1.3,0.3-1.5,0.7c-0.4,0.7,0.1,1.2,1.2,1.9
				l0.8,0.5c2.5,1.6,3.1,3.2,2.5,4.8C38.3,26.4,36.2,27,34,27"/>
		</g>
	</g>
</g>
</svg>
