<?xml version="1.0" encoding="utf-8"?>
<!-- Generator: Adobe Illustrator 18.0.0, SVG Export Plug-In . SVG Version: 6.00 Build 0)  -->
<!DOCTYPE svg PUBLIC "-//W3C//DTD SVG 1.1//EN" "http://www.w3.org/Graphics/SVG/1.1/DTD/svg11.dtd">
<svg version="1.1" id="Layer_1" xmlns="http://www.w3.org/2000/svg" xmlns:xlink="http://www.w3.org/1999/xlink" x="0px" y="0px"
	 width="46.1px" height="40px" viewBox="0 0 46.1 40" enable-background="new 0 0 46.1 40" xml:space="preserve">
<g>
	<g>
		<defs>
			<rect id="SVGID_38_" x="0" y="0" width="46.1" height="40"/>
		</defs>
		<clipPath id="SVGID_1_">
			<use xlink:href="#SVGID_38_"  overflow="visible"/>
		</clipPath>
		<rect x="5.1" y="0" clip-path="url(#SVGID_1_)" fill="#FFFFFF" width="40.8" height="39.9"/>
		<g clip-path="url(#SVGID_1_)">
			<defs>
				<path id="SVGID_40_" d="M5.1,0v17.5l1.4-3.3h3c0,0,0.4,0.8,0.4,0.9v-0.9h3.5c0,0,0.5,1.2,0.8,1.7c0.3-0.6,0.8-1.7,0.8-1.7h2.4
					h0.2h0.9H22h0.3h0.9h2.8c0.2,0,0.7,0,1.2,0.2v-0.2h2.2h0.9v0.4c0.5-0.3,1-0.4,1.5-0.5c0,0,1.7,0,1.8,0l0,0h3
					c0,0,0.3,0.8,0.3,0.8v-0.8h3.3c0,0,0.5,0.8,0.5,0.9v-0.9h3.2v6.9h-3.2c0,0-0.5-0.8-0.5-0.9v0.9h-4c0,0-0.3-0.8-0.4-1h-1.1
					c-0.1,0.2-0.4,1-0.4,1h-2.7l-0.1,0c-0.3,0-0.7-0.2-1.1-0.4v0.4h-2.2v0h-2.8v-0.9c0,0,0-0.7,0-0.8h-0.2v1.7h-1.9H22h-3.4h-0.2
					h-2.9V21c0,0,0,0.1,0,0.1h-2.2c0,0,0-0.1-0.1-0.1v0.1H9c0,0-0.3-0.8-0.4-1H7.5c-0.1,0.2-0.4,1-0.4,1H5.1v18.8h40.8V29.1
					c-0.5,0.3-1,0.4-1.5,0.4c0,0-0.1,0-0.2,0l-3.2,0v-0.2c-0.4,0.1-0.7,0.2-1.1,0.2c0,0-0.1,0-0.2,0l-1.9,0v0h-4.6v0h-3.1v-0.9
					c0,0,0-0.7,0-0.8H30v1.7h-3.1v-1.9c-0.5,0.2-1.1,0.3-1.7,0.3h-0.3v1.6h-3.7c0,0-0.6-0.7-0.9-1c-0.3,0.4-0.9,1-0.9,1h-6.1v-6.9h6
					c0,0,0.7,0.7,1,1.1c0.4-0.4,1-1.1,1-1.1h0.4l1,0h3c0.2,0,0.6,0,1.1,0.2v-0.2h4c0.2,0,0.7,0,1.2,0.2v-0.2H37h0.9v0.2
					c0.6-0.2,1.1-0.2,1.1-0.2l3.3,0v0.2c0.6-0.2,1.1-0.2,1.2-0.2l2.4,0V0H5.1z"/>
			</defs>
			<clipPath id="SVGID_2_">
				<use xlink:href="#SVGID_40_"  overflow="visible"/>
			</clipPath>
			
				<radialGradient id="SVGID_3_" cx="-449.4187" cy="-266.6575" r="0.9386" gradientTransform="matrix(52.3764 0 0 -52.3764 23549.6074 -13960.9541)" gradientUnits="userSpaceOnUse">
				<stop  offset="0" style="stop-color:#00B7E8"/>
				<stop  offset="0.427" style="stop-color:#009ACA"/>
				<stop  offset="0.5085" style="stop-color:#0090BE"/>
				<stop  offset="0.8356" style="stop-color:#006E90"/>
				<stop  offset="1" style="stop-color:#00607E"/>
			</radialGradient>
			<rect x="5.1" y="0" clip-path="url(#SVGID_2_)" fill="url(#SVGID_3_)" width="40.8" height="39.9"/>
		</g>
		<g clip-path="url(#SVGID_1_)">
			<defs>
				<path id="SVGID_43_" d="M24.2,16.3h1.3c0.4,0,0.7,0.2,0.7,0.5c0,0.3-0.3,0.5-0.7,0.5h-1.3V16.3z M26,15.1h-3.1v5h1.3v-1.7h1.2
					c0.8,0,0.8,0.8,0.8,0.8v1h1.2v-1.2c0-0.8-0.6-1.1-0.6-1.1s0.7-0.3,0.7-1.2c0-1.3-1.1-1.5-1.5-1.5C26.1,15.1,26,15.1,26,15.1"/>
			</defs>
			<clipPath id="SVGID_4_">
				<use xlink:href="#SVGID_43_"  overflow="visible"/>
			</clipPath>
			
				<radialGradient id="SVGID_5_" cx="-449.4187" cy="-266.6575" r="0.9386" gradientTransform="matrix(52.3765 0 0 -52.3765 23549.6699 -13960.9775)" gradientUnits="userSpaceOnUse">
				<stop  offset="0" style="stop-color:#00B7E8"/>
				<stop  offset="0.427" style="stop-color:#009ACA"/>
				<stop  offset="0.5085" style="stop-color:#0090BE"/>
				<stop  offset="0.8356" style="stop-color:#006E90"/>
				<stop  offset="1" style="stop-color:#00607E"/>
			</radialGradient>
			<rect x="22.9" y="15.1" clip-path="url(#SVGID_4_)" fill="url(#SVGID_5_)" width="4.7" height="5"/>
		</g>
		<g clip-path="url(#SVGID_1_)">
			<defs>
				<path id="SVGID_46_" d="M35.1,16.3l0.6,1.5h-1.2L35.1,16.3z M29.8,17.8c0,2.1,1.7,2.4,1.7,2.4h0.6h0.2h1.2l0.4-1h2.3l0.4,1h1.2
					h0.2h1.1v-3.3l2,3.3H43v-5h-1.3v3.3l-2-3.3h-1.8v4.5L36,15.1h-1.8l-1.6,3.7c0,0-1.5,0.5-1.5-1.1c0-0.1,0-0.2,0-0.3
					c0.1-1.1,0.9-1.1,0.9-1.1l1.3,0v-1.1l-1.6,0C31.8,15.1,29.8,15,29.8,17.8"/>
			</defs>
			<clipPath id="SVGID_6_">
				<use xlink:href="#SVGID_46_"  overflow="visible"/>
			</clipPath>
			
				<radialGradient id="SVGID_7_" cx="-449.4187" cy="-266.6575" r="0.9386" gradientTransform="matrix(52.3763 0 0 -52.3763 23549.5801 -13960.9268)" gradientUnits="userSpaceOnUse">
				<stop  offset="0" style="stop-color:#00B7E8"/>
				<stop  offset="0.427" style="stop-color:#009ACA"/>
				<stop  offset="0.5085" style="stop-color:#0090BE"/>
				<stop  offset="0.8356" style="stop-color:#006E90"/>
				<stop  offset="1" style="stop-color:#00607E"/>
			</radialGradient>
			<rect x="29.8" y="15" clip-path="url(#SVGID_6_)" fill="url(#SVGID_7_)" width="13.1" height="5.1"/>
		</g>
		<g clip-path="url(#SVGID_1_)">
			<defs>
				<path id="SVGID_49_" d="M8,16.3l0.6,1.5H7.4L8,16.3z M15.6,15.1l-1.4,3.1l-1.4-3.1h-2v4.6l-1.9-4.6H7.1l-2.1,5h1.4l0.4-1h2.3
					l0.4,1h1.2H11h1.1v-3.4l1.6,3.4h1l1.6-3.4v3.4h1.3v-5H15.6z"/>
			</defs>
			<clipPath id="SVGID_8_">
				<use xlink:href="#SVGID_49_"  overflow="visible"/>
			</clipPath>
			
				<radialGradient id="SVGID_9_" cx="-449.4187" cy="-266.6575" r="0.9386" gradientTransform="matrix(52.3763 0 0 -52.3763 23549.5801 -13960.9258)" gradientUnits="userSpaceOnUse">
				<stop  offset="0" style="stop-color:#00B7E8"/>
				<stop  offset="0.427" style="stop-color:#009ACA"/>
				<stop  offset="0.5085" style="stop-color:#0090BE"/>
				<stop  offset="0.8356" style="stop-color:#006E90"/>
				<stop  offset="1" style="stop-color:#00607E"/>
			</radialGradient>
			<rect x="5" y="15.1" clip-path="url(#SVGID_8_)" fill="url(#SVGID_9_)" width="12.6" height="5"/>
		</g>
		<g clip-path="url(#SVGID_1_)">
			<defs>
				<polygon id="SVGID_52_" points="18.3,15.1 18.3,20.1 22.3,20.1 22.3,19 19.6,19 19.6,18.2 22.2,18.2 22.2,17.1 19.6,17.1 
					19.6,16.3 22.3,16.3 22.3,15.1 				"/>
			</defs>
			<clipPath id="SVGID_10_">
				<use xlink:href="#SVGID_52_"  overflow="visible"/>
			</clipPath>
			
				<radialGradient id="SVGID_11_" cx="-449.4187" cy="-266.6576" r="0.9386" gradientTransform="matrix(52.3761 0 0 -52.3761 23549.4863 -13960.873)" gradientUnits="userSpaceOnUse">
				<stop  offset="0" style="stop-color:#00B7E8"/>
				<stop  offset="0.427" style="stop-color:#009ACA"/>
				<stop  offset="0.5085" style="stop-color:#0090BE"/>
				<stop  offset="0.8356" style="stop-color:#006E90"/>
				<stop  offset="1" style="stop-color:#00607E"/>
			</radialGradient>
			<rect x="18.3" y="15.1" clip-path="url(#SVGID_10_)" fill="url(#SVGID_11_)" width="4" height="5"/>
		</g>
		<g clip-path="url(#SVGID_1_)">
			<defs>
				<rect id="SVGID_55_" x="28.1" y="15.1" width="1.3" height="5"/>
			</defs>
			<clipPath id="SVGID_12_">
				<use xlink:href="#SVGID_55_"  overflow="visible"/>
			</clipPath>
			
				<radialGradient id="SVGID_13_" cx="-449.4188" cy="-266.6575" r="0.9386" gradientTransform="matrix(52.3769 0 0 -52.3769 23549.8535 -13961.0811)" gradientUnits="userSpaceOnUse">
				<stop  offset="0" style="stop-color:#00B7E8"/>
				<stop  offset="0.427" style="stop-color:#009ACA"/>
				<stop  offset="0.5085" style="stop-color:#0090BE"/>
				<stop  offset="0.8356" style="stop-color:#006E90"/>
				<stop  offset="1" style="stop-color:#00607E"/>
			</radialGradient>
			<rect x="28.1" y="15.1" clip-path="url(#SVGID_12_)" fill="url(#SVGID_13_)" width="1.3" height="5"/>
		</g>
		<g clip-path="url(#SVGID_1_)">
			<defs>
				<path id="SVGID_58_" d="M29.1,24.7h1.3c0.4,0,0.7,0.2,0.7,0.5c0,0.3-0.3,0.5-0.7,0.5h-1.3V24.7z M30.9,23.6h-3.1v5h1.3v-1.7h1.2
					c0.8,0,0.8,0.8,0.8,0.8v1h1.2v-1.2c0-0.8-0.6-1.1-0.6-1.1s0.7-0.3,0.7-1.2c0-1.3-1.1-1.5-1.5-1.5C31,23.6,30.9,23.6,30.9,23.6"
					/>
			</defs>
			<clipPath id="SVGID_14_">
				<use xlink:href="#SVGID_58_"  overflow="visible"/>
			</clipPath>
			
				<radialGradient id="SVGID_15_" cx="-449.4185" cy="-266.6576" r="0.9386" gradientTransform="matrix(52.3754 0 0 -52.3754 23549.168 -13960.6904)" gradientUnits="userSpaceOnUse">
				<stop  offset="0" style="stop-color:#00B7E8"/>
				<stop  offset="0.427" style="stop-color:#009ACA"/>
				<stop  offset="0.5085" style="stop-color:#0090BE"/>
				<stop  offset="0.8356" style="stop-color:#006E90"/>
				<stop  offset="1" style="stop-color:#00607E"/>
			</radialGradient>
			<rect x="27.8" y="23.6" clip-path="url(#SVGID_14_)" fill="url(#SVGID_15_)" width="4.7" height="5"/>
		</g>
		<g clip-path="url(#SVGID_1_)">
			<defs>
				<path id="SVGID_61_" d="M15.5,24.8h2.7l1.3,1.4l-1.3,1.4h-2.7v-0.8h2.6v-1.1h-2.6V24.8z M24,24.7h1.3c0.4,0,0.7,0.2,0.7,0.5
					c0,0.3-0.3,0.5-0.7,0.5H24V24.7z M21.1,26.1l1.6-1.7v3.5L21.1,26.1z M25.8,23.6h-3.1v0h-1l-1.5,1.6l-1.5-1.6h-0.7h-3.9v5h3.9
					h0.8l1.4-1.5l1.3,1.5h1.1H24V27h1.2c1.6,0,2.2-0.5,2.2-1.9c0-1.4-1.1-1.5-1.5-1.5C25.8,23.6,25.8,23.6,25.8,23.6"/>
			</defs>
			<clipPath id="SVGID_16_">
				<use xlink:href="#SVGID_61_"  overflow="visible"/>
			</clipPath>
			
				<radialGradient id="SVGID_17_" cx="-449.4189" cy="-266.6574" r="0.9386" gradientTransform="matrix(52.3775 0 0 -52.3775 23550.1289 -13961.2383)" gradientUnits="userSpaceOnUse">
				<stop  offset="0" style="stop-color:#00B7E8"/>
				<stop  offset="0.427" style="stop-color:#009ACA"/>
				<stop  offset="0.5085" style="stop-color:#0090BE"/>
				<stop  offset="0.8356" style="stop-color:#006E90"/>
				<stop  offset="1" style="stop-color:#00607E"/>
			</radialGradient>
			<rect x="14.2" y="23.6" clip-path="url(#SVGID_16_)" fill="url(#SVGID_17_)" width="13.2" height="5"/>
		</g>
		<g clip-path="url(#SVGID_1_)">
			<defs>
				<path id="SVGID_64_" d="M37.4,25.1c0,1.6,1.7,1.5,1.7,1.5s1.1,0,1.1,0.4c0,0.5-0.7,0.4-0.7,0.4h-2v1.1h2.3c0,0,0.1,0,0.2,0
					c0.4,0,1.7-0.1,1.7-1.8c0-1.5-1.9-1.4-1.9-1.4s-0.9,0.1-0.9-0.4c0-0.5,0.7-0.4,0.7-0.4h2v-1.2H39c0,0,0,0,0,0
					C38.7,23.6,37.4,23.7,37.4,25.1"/>
			</defs>
			<clipPath id="SVGID_18_">
				<use xlink:href="#SVGID_64_"  overflow="visible"/>
			</clipPath>
			
				<radialGradient id="SVGID_19_" cx="-449.4188" cy="-266.6575" r="0.9386" gradientTransform="matrix(52.3767 0 0 -52.3767 23549.7637 -13961.0293)" gradientUnits="userSpaceOnUse">
				<stop  offset="0" style="stop-color:#00B7E8"/>
				<stop  offset="0.427" style="stop-color:#009ACA"/>
				<stop  offset="0.5085" style="stop-color:#0090BE"/>
				<stop  offset="0.8356" style="stop-color:#006E90"/>
				<stop  offset="1" style="stop-color:#00607E"/>
			</radialGradient>
			<rect x="37.4" y="23.6" clip-path="url(#SVGID_18_)" fill="url(#SVGID_19_)" width="4.2" height="5"/>
		</g>
		<g clip-path="url(#SVGID_1_)">
			<defs>
				<polygon id="SVGID_67_" points="33,23.6 33,28.6 37,28.6 37,27.5 34.3,27.5 34.3,26.7 36.9,26.7 36.9,25.5 34.3,25.5 34.3,24.8 
					37,24.8 37,23.6 				"/>
			</defs>
			<clipPath id="SVGID_20_">
				<use xlink:href="#SVGID_67_"  overflow="visible"/>
			</clipPath>
			
				<radialGradient id="SVGID_21_" cx="-449.419" cy="-266.6573" r="0.9386" gradientTransform="matrix(52.378 0 0 -52.378 23550.3574 -13961.3691)" gradientUnits="userSpaceOnUse">
				<stop  offset="0" style="stop-color:#00B7E8"/>
				<stop  offset="0.427" style="stop-color:#009ACA"/>
				<stop  offset="0.5085" style="stop-color:#0090BE"/>
				<stop  offset="0.8356" style="stop-color:#006E90"/>
				<stop  offset="1" style="stop-color:#00607E"/>
			</radialGradient>
			<rect x="33" y="23.6" clip-path="url(#SVGID_20_)" fill="url(#SVGID_21_)" width="4" height="5"/>
		</g>
		<g clip-path="url(#SVGID_1_)">
			<defs>
				<path id="SVGID_70_" d="M41.9,25.1c0,1.6,1.7,1.5,1.7,1.5s1.1,0,1.1,0.4c0,0.5-0.7,0.4-0.7,0.4h-2v1.1h2.3c0,0,0.1,0,0.2,0
					c0.4,0,1.7-0.1,1.7-1.8c0-1.5-1.9-1.4-1.9-1.4s-0.9,0.1-0.9-0.4c0-0.5,0.7-0.4,0.7-0.4h2v-1.2h-2.4c0,0,0,0,0,0
					C43.2,23.6,41.9,23.7,41.9,25.1"/>
			</defs>
			<clipPath id="SVGID_22_">
				<use xlink:href="#SVGID_70_"  overflow="visible"/>
			</clipPath>
			
				<radialGradient id="SVGID_23_" cx="-449.4185" cy="-266.6576" r="0.9386" gradientTransform="matrix(52.3754 0 0 -52.3754 23549.168 -13960.6904)" gradientUnits="userSpaceOnUse">
				<stop  offset="0" style="stop-color:#00B7E8"/>
				<stop  offset="0.427" style="stop-color:#009ACA"/>
				<stop  offset="0.5085" style="stop-color:#0090BE"/>
				<stop  offset="0.8356" style="stop-color:#006E90"/>
				<stop  offset="1" style="stop-color:#00607E"/>
			</radialGradient>
			<rect x="41.9" y="23.6" clip-path="url(#SVGID_22_)" fill="url(#SVGID_23_)" width="4.2" height="5"/>
		</g>
		<g clip-path="url(#SVGID_1_)">
			<defs>
				<rect id="SVGID_73_" x="0" y="0" width="46.1" height="40"/>
			</defs>
			<clipPath id="SVGID_24_">
				<use xlink:href="#SVGID_73_"  overflow="visible"/>
			</clipPath>
			<path clip-path="url(#SVGID_24_)" fill="#009EDA" d="M0,38.1c0-1,0.8-1.9,1.9-1.9c1,0,1.9,0.8,1.9,1.9c0,1-0.8,1.9-1.9,1.9
				C0.8,40,0,39.2,0,38.1 M0.3,38.1c0,0.9,0.7,1.6,1.6,1.6c0.9,0,1.6-0.7,1.6-1.6c0-0.9-0.7-1.6-1.6-1.6C1,36.5,0.3,37.2,0.3,38.1
				 M2.3,39c0-0.1-0.1-0.4-0.1-0.5c0-0.1,0-0.3-0.3-0.3H1.5V39H1.2v-1.8H2c0.3,0,0.6,0.1,0.6,0.5c0,0.2-0.1,0.3-0.2,0.4
				c0.1,0,0.2,0.1,0.2,0.3l0,0.3c0,0.1,0,0.1,0.1,0.2V39H2.3 M1.5,38H2c0.2,0,0.3,0,0.3-0.3c0-0.2-0.2-0.2-0.3-0.2H1.5V38"/>
		</g>
	</g>
</g>
</svg>
