<?xml version="1.0" encoding="utf-8"?>
<!-- Generator: Adobe Illustrator 18.0.0, SVG Export Plug-In . SVG Version: 6.00 Build 0)  -->
<!DOCTYPE svg PUBLIC "-//W3C//DTD SVG 1.1//EN" "http://www.w3.org/Graphics/SVG/1.1/DTD/svg11.dtd">
<svg version="1.1" id="Layer_1" xmlns="http://www.w3.org/2000/svg" xmlns:xlink="http://www.w3.org/1999/xlink" x="0px" y="0px"
	 width="154.4px" height="40px" viewBox="0 0 154.4 40" enable-background="new 0 0 154.4 40" xml:space="preserve">
<g>
	<g>
		<defs>
			<rect id="SVGID_5_" x="0" y="0" width="154.4" height="40"/>
		</defs>
		<clipPath id="SVGID_1_">
			<use xlink:href="#SVGID_5_"  overflow="visible"/>
		</clipPath>
		<g clip-path="url(#SVGID_1_)">
			<defs>
				<rect id="SVGID_7_" x="0" y="0" width="154.4" height="40"/>
			</defs>
			<clipPath id="SVGID_2_">
				<use xlink:href="#SVGID_7_"  overflow="visible"/>
			</clipPath>
			<path clip-path="url(#SVGID_2_)" fill="#004A97" d="M29.6,40c10.9,0.1,20.9-8.9,20.9-19.8C50.5,8.2,40.5,0,29.6,0h-9.4
				C9.1,0,0,8.2,0,20.2C0,31.1,9.1,40.1,20.2,40H29.6z"/>
			<path clip-path="url(#SVGID_2_)" fill="#FFFFFF" d="M24.4,30.8V9.1c4.4,1.7,7.4,5.9,7.5,10.8C31.8,24.9,28.7,29.1,24.4,30.8
				 M8.6,20c0-4.9,3.1-9.2,7.4-10.8v21.7C11.7,29.1,8.6,24.9,8.6,20 M20.2,1.7C10.1,1.7,1.9,9.9,1.9,20c0,10.1,8.2,18.3,18.3,18.3
				c10.1,0,18.3-8.2,18.3-18.3C38.5,9.9,30.3,1.7,20.2,1.7"/>
			<path clip-path="url(#SVGID_2_)" fill="#004A97" d="M59,18.5c0,1.6,1.2,1.8,2.2,1.8c4.5,0,6-3.4,6-6.6c0-3.9-2.5-6.8-6.6-6.8
				C59.8,6.9,59.4,7,59,7V18.5z M56.9,8.6c0-1.9-1-1.8-1.9-1.8V6.3c0.8,0,1.7,0,2.5,0c0.9,0,2.1,0,3.6,0c5.4,0,8.4,3.6,8.4,7.4
				c0,2.1-1.2,7.3-8.7,7.3c-1.1,0-2.1,0-3.1,0c-0.9,0-1.9,0-2.8,0v-0.5c1.3-0.1,1.9-0.2,1.9-1.6V8.6z"/>
			<path clip-path="url(#SVGID_2_)" fill="#004A97" d="M72.5,8.1c-0.5,0-1-0.5-1-1.1c0-0.5,0.5-1,1-1c0.5,0,1,0.4,1,1
				C73.5,7.6,73.1,8.1,72.5,8.1 M70.3,20.4h0.4c0.6,0,1,0,1-0.7V14c0-0.9-0.3-1.1-1.1-1.5v-0.3c1-0.3,2.2-0.7,2.3-0.8
				c0.1-0.1,0.3-0.1,0.4-0.1c0.1,0,0.1,0.1,0.1,0.3v8.1c0,0.7,0.5,0.7,1.1,0.7h0.4V21c-0.7,0-1.5,0-2.2,0c-0.8,0-1.5,0-2.3,0V20.4z"
				/>
			<path clip-path="url(#SVGID_2_)" fill="#004A97" d="M76.8,14.1c0-0.8-0.2-1-1.2-1.4v-0.4c0.9-0.3,1.8-0.6,2.8-1
				c0.1,0,0.1,0,0.1,0.2v1.4c1.2-0.9,2.2-1.6,3.6-1.6c1.8,0,2.4,1.3,2.4,2.9v5.4c0,0.7,0.5,0.7,1.1,0.7h0.4V21c-0.7,0-1.5,0-2.2,0
				c-0.8,0-1.5,0-2.3,0v-0.5h0.4c0.6,0,1,0,1-0.7v-5.4c0-1.2-0.7-1.8-1.9-1.8c-0.7,0-1.7,0.5-2.4,1v6.2c0,0.7,0.5,0.7,1.1,0.7h0.4
				V21c-0.7,0-1.5,0-2.2,0c-0.8,0-1.5,0-2.3,0v-0.5h0.4c0.6,0,1,0,1-0.7V14.1z"/>
			<path clip-path="url(#SVGID_2_)" fill="#004A97" d="M91.2,14.5c0.5,0,0.6-0.3,0.6-0.5c0-1.1-0.7-1.9-1.8-1.9
				c-1.3,0-2.2,0.9-2.4,2.5H91.2z M87.5,15.1c0,0.2,0,0.5,0,1.2c0.1,2,1.4,3.6,3.1,3.6c1.2,0,2.1-0.6,2.8-1.4l0.3,0.3
				c-1,1.3-2.2,2.4-3.9,2.4c-3.3,0-4-3.2-4-4.6c0-4.1,2.8-5.3,4.2-5.3c1.7,0,3.5,1.1,3.6,3.3c0,0.1,0,0.3,0,0.4l-0.2,0.1H87.5z"/>
			<path clip-path="url(#SVGID_2_)" fill="#004A97" d="M94.1,20.4h0.6c0.6,0,1,0,1-0.7v-5.9c0-0.7-0.8-0.8-1.1-0.9v-0.3
				c1.5-0.7,2.4-1.2,2.6-1.2c0.1,0,0.2,0.1,0.2,0.3v1.9h0c0.5-0.8,1.4-2.2,2.7-2.2c0.5,0,1.2,0.4,1.2,1.1c0,0.6-0.4,1.1-1,1.1
				c-0.7,0-0.7-0.5-1.4-0.5c-0.4,0-1.5,0.5-1.5,1.7v4.9c0,0.7,0.4,0.7,1,0.7h1.2V21c-1.2,0-2,0-2.9,0c-0.9,0-1.7,0-2.5,0V20.4z"/>
			<path clip-path="url(#SVGID_2_)" fill="#004A97" d="M102.2,18c0.3,1.4,1.1,2.6,2.7,2.6c1.2,0,1.7-0.8,1.7-1.5
				c0-2.5-4.6-1.7-4.6-5.1c0-1.2,0.9-2.7,3.3-2.7c0.7,0,1.6,0.2,2.4,0.6l0.1,2.1h-0.5c-0.2-1.3-0.9-2.1-2.3-2.1
				c-0.8,0-1.6,0.5-1.6,1.4c0,2.5,4.9,1.7,4.9,5c0,1.4-1.1,2.9-3.6,2.9c-0.8,0-1.8-0.3-2.6-0.7l-0.2-2.4L102.2,18z"/>
			<path clip-path="url(#SVGID_2_)" fill="#004A97" d="M127.3,10.1h-0.5c-0.4-2.5-2.1-3.4-4.5-3.4c-2.4,0-5.9,1.6-5.9,6.7
				c0,4.3,3,7.3,6.3,7.3c2.1,0,3.8-1.4,4.2-3.6l0.5,0.1l-0.5,3.1c-0.9,0.5-3.3,1.1-4.7,1.1c-4.9,0-8-3.2-8-7.9c0-4.3,3.8-7.4,8-7.4
				c1.7,0,3.3,0.5,5,1.1L127.3,10.1z"/>
			<path clip-path="url(#SVGID_2_)" fill="#004A97" d="M128,20.4h0.4c0.6,0,1,0,1-0.7V8c0-1.4-0.3-1.4-1.1-1.6V6
				c0.8-0.3,1.7-0.7,2.2-0.9c0.2-0.1,0.4-0.2,0.5-0.2c0.1,0,0.2,0.1,0.2,0.3v14.5c0,0.7,0.5,0.7,1.1,0.7h0.4V21c-0.7,0-1.4,0-2.2,0
				c-0.8,0-1.5,0-2.3,0V20.4z"/>
			<path clip-path="url(#SVGID_2_)" fill="#004A97" d="M141.5,19.8c0,0.4,0.2,0.4,0.6,0.4c0.3,0,0.6,0,0.8,0v0.4
				c-0.9,0.1-2.6,0.5-3,0.7l-0.1-0.1v-1.7c-1.3,1-2.2,1.8-3.7,1.8c-1.1,0-2.3-0.7-2.3-2.5v-5.4c0-0.5-0.1-1.1-1.3-1.2v-0.4
				c0.8,0,2.4-0.1,2.7-0.1c0.2,0,0.2,0.1,0.2,0.6v5.4c0,0.6,0,2.4,1.8,2.4c0.7,0,1.7-0.5,2.5-1.3v-5.7c0-0.4-1-0.6-1.8-0.9V12
				c1.9-0.1,3.1-0.3,3.3-0.3c0.2,0,0.2,0.1,0.2,0.4V19.8z"/>
			<path clip-path="url(#SVGID_2_)" fill="#004A97" d="M145.7,18.6c0,0.8,0.8,2.1,2.2,2.1c2.3,0,3.2-2.2,3.2-4.1
				c0-2.3-1.7-4.2-3.4-4.2c-0.8,0-1.4,0.5-2,1V18.6z M145.7,12.9c0.8-0.7,2-1.5,3.1-1.5c2.4,0,3.9,2.1,3.9,4.4c0,2.8-2,5.5-5,5.5
				c-1.6,0-2.4-0.5-2.9-0.7l-0.6,0.5l-0.4-0.2c0.2-1.2,0.3-2.5,0.3-3.7V8c0-1.4-0.3-1.4-1.1-1.6V6c0.8-0.3,1.7-0.7,2.2-0.9
				c0.2-0.1,0.4-0.2,0.5-0.2c0.1,0,0.2,0.1,0.2,0.3V12.9z"/>
			<path clip-path="url(#SVGID_2_)" fill="#004A97" d="M55,33.2h0.2c0.4,0,0.8-0.1,0.8-0.7v-6c0-0.6-0.4-0.7-0.8-0.7H55v-0.3
				c0.4,0,1.1,0,1.7,0c0.6,0,1.3,0,1.8,0v0.3h-0.2c-0.4,0-0.8,0.1-0.8,0.7v6c0,0.6,0.4,0.7,0.8,0.7h0.2v0.3c-0.5,0-1.2,0-1.8,0
				c-0.6,0-1.2,0-1.7,0V33.2z"/>
			<path clip-path="url(#SVGID_2_)" fill="#004A97" d="M58.4,33.5l0-0.2h-0.1c-0.4,0-0.9-0.1-0.9-0.7v-6c0-0.6,0.5-0.7,0.9-0.7h0.1
				v-0.2c-0.5,0-1.2,0-1.7,0c-0.5,0-1.2,0-1.6,0v0.2h0.1c0.4,0,0.9,0.1,0.9,0.7v6c0,0.6-0.5,0.7-0.9,0.7H55v0.2c0.4,0,1.1,0,1.6,0
				C57.2,33.4,57.9,33.5,58.4,33.5 M58.4,33.6c-0.6,0-1.2,0-1.8,0c-0.6,0-1.2,0-1.7,0h0v0v-0.3v0h0h0.2c0.4,0,0.8,0,0.8-0.6v-6
				c0-0.6-0.4-0.6-0.8-0.6h-0.2v0v-0.4h0c0.4,0,1.1,0,1.7,0c0.6,0,1.3,0,1.8,0h0.1v0.1v0.4h-0.1h-0.2c-0.4,0-0.8,0-0.8,0.6v6
				c0,0.6,0.4,0.6,0.8,0.6h0.2v0L58.4,33.6L58.4,33.6z"/>
			<path clip-path="url(#SVGID_2_)" fill="#004A97" d="M66.3,31.3L66.3,31.3l0-4.3c0-0.9-0.7-1.1-1-1.1h-0.3v-0.3c0.5,0,1.1,0,1.6,0
				c0.5,0,0.9,0,1.4,0v0.3h-0.2c-0.5,0-1,0.1-1,1.5v5.2c0,0.4,0,0.8,0.1,1.2h-0.4l-5.9-6.6v4.7c0,1,0.2,1.3,1.1,1.3h0.2v0.3
				c-0.5,0-1,0-1.5,0c-0.5,0-1,0-1.6,0v-0.3H59c0.8,0,1-0.5,1-1.5v-4.8c0-0.6-0.5-1-1-1h-0.1v-0.3c0.4,0,0.9,0,1.3,0
				c0.3,0,0.7,0,1,0L66.3,31.3z"/>
			<path clip-path="url(#SVGID_2_)" fill="#004A97" d="M66.3,31.3L66.3,31.3L66.3,31.3L66.3,31.3z M66.3,31.3L66.3,31.3L66.3,31.3z
				 M66.5,33.7h0.4c-0.1-0.3-0.1-0.7-0.1-1.1v-5.2c0-1.4,0.6-1.5,1.1-1.5H68v-0.2c-0.5,0-0.9,0-1.4,0c-0.5,0-1,0-1.6,0l0,0.2h0.2
				c0.4,0,1,0.2,1,1.1l0,4.3l0,0l0,0l-5.1-5.8c-0.3,0-0.7,0-1,0c-0.4,0-0.8,0-1.3,0l0,0.2H59c0.5,0,1.1,0.4,1.1,1.1v4.8
				c0,0.9-0.3,1.5-1.1,1.5l-0.1,0v0.2c0.5,0,1,0,1.5,0c0.5,0,1,0,1.4,0v-0.2h-0.1c-0.9,0-1.1-0.4-1.1-1.4V27L66.5,33.7z M67,33.8
				l-0.5,0l-5.8-6.5v4.6c0,1,0.2,1.3,1,1.3H62v0v0.4h-0.1c-0.5,0-1,0-1.5,0c-0.5,0-1,0-1.6,0h0v0v-0.4h0H59c0.8,0,1-0.5,1-1.4v-4.8
				c0-0.6-0.5-1-1-1h-0.2v-0.1v-0.4h0c0.4,0,0.9,0,1.3,0c0.3,0,0.7,0,1.1,0l5,5.7V27c0-0.9-0.6-1-0.9-1H65v-0.1v-0.4h0.1
				c0.5,0,1.1,0,1.6,0c0.5,0,0.9,0,1.4,0h0v0v0.4h0h-0.2c-0.5,0-1,0.1-1,1.4v5.2C67,32.9,67,33.3,67,33.8L67,33.8L67,33.8z"/>
			<path clip-path="url(#SVGID_2_)" fill="#004A97" d="M69.8,26.1c-0.9,0-0.9,0.2-1.1,1h-0.3c0-0.3,0.1-0.6,0.1-1
				c0-0.3,0.1-0.6,0.1-1h0.3c0.1,0.3,0.4,0.3,0.7,0.3h5.9c0.3,0,0.6,0,0.6-0.4l0.3,0c0,0.3-0.1,0.6-0.1,0.9c0,0.3,0,0.6,0,0.9
				l-0.3,0.1c0-0.4-0.1-1.1-0.8-1.1h-1.9v6.1c0,0.9,0.4,1,0.9,1h0.2v0.3c-0.4,0-1.2,0-1.9,0c-0.7,0-1.5,0-1.9,0v-0.3h0.2
				c0.6,0,1-0.1,1-1v-6.1H69.8z"/>
			<path clip-path="url(#SVGID_2_)" fill="#004A97" d="M74.3,33.6c-0.5,0-1.3,0-1.9,0c-0.7,0-1.5,0-1.9,0h0v0v-0.4h0h0.2
				c0.6,0,0.9,0,0.9-0.9v-6.1h-1.8v0v-0.1h1.9v6.2c0,0.9-0.4,1-1,1h-0.2v0.2c0.5,0,1.2,0,1.9,0C73.1,33.4,73.8,33.5,74.3,33.6
				l-0.1-0.3h-0.2c-0.6,0-1-0.1-1-1v-6.1H75c0.8,0,0.9,0.7,0.9,1.1l0.2-0.1c0-0.3,0-0.6,0-0.9c0-0.3,0.1-0.6,0.1-0.9l-0.2,0
				c-0.1,0.3-0.4,0.3-0.7,0.3h-5.9h-0.1c-0.3,0-0.6,0-0.7-0.3h-0.2c0,0.3,0,0.6-0.1,0.9c0,0.3-0.1,0.6-0.1,0.9h0.2
				c0.2-0.8,0.2-1.1,1.1-1v0.1v0c-0.8,0-0.8,0.2-1,1l0,0h0h-0.4l0-0.1c0-0.3,0.1-0.6,0.1-1c0-0.3,0.1-0.6,0.1-1v0h0h0.3l0,0
				c0.1,0.3,0.3,0.3,0.6,0.3h0.1h5.9c0.3,0,0.6,0,0.6-0.3l0-0.1l0.1,0l0.3,0.1l0,0c0,0.3-0.1,0.6-0.1,0.9c0,0.3,0,0.6,0,0.9v0l0,0
				l-0.4,0.1l0-0.1c0-0.4-0.1-1.1-0.8-1.1h-1.8v6c0,0.9,0.4,0.9,0.9,0.9h0.3v0L74.3,33.6L74.3,33.6z"/>
			<path clip-path="url(#SVGID_2_)" fill="#004A97" d="M76.7,33.2h0.2c0.4,0,0.8-0.1,0.8-0.7v-6c0-0.6-0.4-0.7-0.8-0.7h-0.2v-0.3
				c0.7,0,1.9,0,2.8,0c1,0,2.2,0,2.9,0c0,0.5,0,1.2,0,1.8l-0.3,0.1C82.1,26.6,82,26,80.8,26h-1.6v3h1.4c0.7,0,0.8-0.4,0.9-1h0.3
				c0,0.4,0,0.9,0,1.3c0,0.4,0,0.9,0,1.3l-0.3,0.1c-0.1-0.7-0.1-1.1-0.9-1.1h-1.4v2.7c0,0.7,0.7,0.7,1.4,0.7c1.4,0,2-0.1,2.3-1.4
				l0.3,0.1c-0.1,0.6-0.3,1.2-0.4,1.8c-0.7,0-2.1,0-3.1,0c-1,0-2.4,0-3,0V33.2z"/>
			<path clip-path="url(#SVGID_2_)" fill="#004A97" d="M82.8,33.5c0.1-0.6,0.2-1.2,0.4-1.7L83,31.7c-0.3,1.3-1,1.4-2.4,1.4
				c-0.7,0-1.4,0-1.4-0.8v-2.7h1.4c0.8,0,0.9,0.5,0.9,1.1l0.2-0.1c0-0.4,0-0.8,0-1.3c0-0.4,0-0.9,0-1.3h-0.2c-0.1,0.6-0.3,1-0.9,1
				h-1.4V26h1.6c1.2,0,1.4,0.6,1.4,1.3l0.2-0.1c0-0.3,0-0.7,0-1.1c0-0.2,0-0.4,0-0.5c-0.8,0-1.9,0-2.9,0c-0.9,0-2.1,0-2.8,0v0.2h0.1
				c0.4,0,0.9,0.1,0.9,0.7v6c0,0.6-0.5,0.7-0.9,0.7h-0.1v0.2c0.7,0,2,0,3,0C80.8,33.4,82.1,33.5,82.8,33.5 M82.9,33.6
				c-0.7,0-2.1,0-3.1,0c-1,0-2.4,0-3,0h0v0v-0.3v0h0h0.2c0.4,0,0.8,0,0.8-0.6v-6c0-0.6-0.4-0.6-0.8-0.6h-0.2v0v-0.4h0
				c0.7,0,1.9,0,2.8,0c1,0,2.1,0,2.9,0h0.1l0,0.1c0,0.2,0,0.4,0,0.6c0,0.4,0,0.8,0,1.2l0,0l0,0l-0.4,0.1l0-0.1
				c-0.1-0.7-0.2-1.3-1.3-1.3h-1.5l0,2.9h1.3c0.7,0,0.8-0.3,0.9-1l0,0h0h0.4l0,0.1c0,0.4,0,0.9,0,1.3c0,0.4,0,0.9,0,1.3l0,0l0,0
				l-0.4,0.1l0-0.1c-0.1-0.7-0.1-1.1-0.8-1.1l-1.3,0v2.6c0,0.7,0.6,0.7,1.3,0.7c1.4,0,1.9-0.1,2.3-1.4l0,0l0,0l0.4,0.1l0,0
				C83.1,32.3,83,32.9,82.9,33.6L82.9,33.6L82.9,33.6z"/>
			<path clip-path="url(#SVGID_2_)" fill="#004A97" d="M86.3,29.4h0.6c1.1,0,1.8-0.4,1.8-1.8c0-1-0.7-1.7-1.7-1.7
				c-0.3,0-0.5,0-0.6,0V29.4z M84.8,26.8c0-0.8-0.5-0.9-0.8-0.9h-0.2v-0.3c0.4,0,1.1,0,1.8,0c0.7,0,1.2,0,1.8,0c1.4,0,2.7,0.4,2.7,2
				c0,1-0.7,1.7-1.6,2l2,2.9c0.3,0.5,0.5,0.6,1.1,0.7v0.3c-0.4,0-0.7,0-1.1,0c-0.4,0-0.7,0-1.1,0c-0.9-1.2-1.6-2.4-2.4-3.7h-0.8v2.5
				c0,0.9,0.4,0.9,0.9,0.9h0.2v0.3c-0.7,0-1.3,0-2,0c-0.5,0-1.1,0-1.7,0v-0.3H84c0.4,0,0.8-0.2,0.8-0.6V26.8z"/>
			<path clip-path="url(#SVGID_2_)" fill="#004A97" d="M86.8,29.4c1.1,0,1.7-0.4,1.7-1.7c0-1-0.6-1.6-1.6-1.6c-0.3,0-0.5,0-0.6,0
				v3.3H86.8z M86.3,29.5L86.3,29.5L86.2,26l0,0c0.2,0,0.3,0,0.7,0c1,0,1.7,0.7,1.7,1.7c0,1.4-0.7,1.8-1.8,1.8H86.3z M86.3,29.8H87
				l0,0c0.7,1.3,1.5,2.5,2.3,3.7c0.3,0,0.7,0,1.1,0c0.4,0,0.7,0,1.1,0v-0.3c-0.5-0.1-0.8-0.2-1.1-0.7l-2-3l0.1,0
				c0.9-0.4,1.6-1,1.6-2c0-1.6-1.2-2-2.7-2c-0.6,0-1.2,0-1.8,0c-0.7,0-1.4,0-1.7,0v0.2H84c0.4,0,0.9,0.1,0.9,0.9v5.8
				c0,0.5-0.4,0.7-0.9,0.7h-0.2v0.2c0.6,0,1.1,0,1.6,0c0.6,0,1.3,0,1.9,0v-0.2h-0.2c-0.5,0-1-0.1-1-1L86.3,29.8L86.3,29.8z
				 M91.6,33.6c-0.4,0-0.7,0-1.1,0c-0.3,0-0.7,0-1.1,0c-0.9-1.2-1.6-2.4-2.4-3.7h-0.7v2.4c0,0.9,0.4,0.9,0.9,0.9h0.3v0v0.4h-0.1
				c-0.7,0-1.3,0-2,0c-0.5,0-1.1,0-1.7,0h0v0v-0.4h0H84c0.4,0,0.8-0.2,0.8-0.6v-5.8c0-0.8-0.4-0.8-0.8-0.8h-0.3v0v-0.4h0
				c0.4,0,1.1,0,1.8,0c0.7,0,1.2,0,1.8,0c1.4,0,2.8,0.4,2.8,2.1c0,1-0.7,1.7-1.6,2l1.9,2.9c0.3,0.5,0.5,0.6,1.1,0.7l0,0v0L91.6,33.6
				L91.6,33.6z"/>
			<path clip-path="url(#SVGID_2_)" fill="#004A97" d="M99.4,31.3L99.4,31.3l0-4.3c0-0.9-0.7-1.1-1-1.1h-0.3v-0.3c0.5,0,1.1,0,1.6,0
				c0.5,0,0.9,0,1.4,0v0.3H101c-0.5,0-1,0.1-1,1.5v5.2c0,0.4,0,0.8,0.1,1.2h-0.4l-5.9-6.6v4.7c0,1,0.2,1.3,1.1,1.3H95v0.3
				c-0.5,0-1,0-1.5,0c-0.5,0-1,0-1.6,0v-0.3h0.2c0.8,0,1-0.5,1-1.5v-4.8c0-0.6-0.5-1-1-1h-0.1v-0.3c0.4,0,0.9,0,1.3,0
				c0.3,0,0.7,0,1,0L99.4,31.3z"/>
			<path clip-path="url(#SVGID_2_)" fill="#004A97" d="M99.3,31.3L99.3,31.3L99.3,31.3L99.3,31.3z M99.4,31.3L99.4,31.3L99.4,31.3z
				 M99.6,33.7h0.4c-0.1-0.3-0.1-0.7-0.1-1.1v-5.2c0-1.4,0.6-1.5,1.1-1.5h0.1v-0.2c-0.4,0-0.9,0-1.4,0c-0.5,0-1,0-1.6,0v0.2h0.2
				c0.4,0,1,0.2,1,1.1l0,4.3l0,0l0,0l-5.1-5.8c-0.3,0-0.7,0-1,0c-0.4,0-0.9,0-1.3,0v0.2h0.1c0.5,0,1.1,0.4,1.1,1.1v4.8
				c0,0.9-0.3,1.5-1.1,1.5l-0.1,0v0.2c0.5,0,1,0,1.5,0c0.5,0,1,0,1.4,0v-0.2h-0.1c-0.9,0-1.1-0.4-1.1-1.4V27L99.6,33.7z M100,33.8
				l-0.5,0l-5.8-6.5v4.6c0,1,0.2,1.3,1,1.3H95v0v0.4h0c-0.5,0-1,0-1.5,0c-0.5,0-1,0-1.6,0h-0.1v0v-0.4h0.1h0.2c0.8,0,1-0.5,1-1.4
				v-4.8c0-0.6-0.5-1-1-1h-0.2v0v-0.4h0.1c0.4,0,0.9,0,1.3,0c0.3,0,0.7,0,1.1,0l5,5.7V27c0-0.9-0.6-1-0.9-1h-0.3v0v-0.4h0
				c0.5,0,1.1,0,1.6,0c0.5,0,0.9,0,1.4,0h0v0.1v0.4h0H101c-0.5,0-1,0.1-1,1.4v5.2C100,32.9,100,33.3,100,33.8L100,33.8L100,33.8z"/>
			<path clip-path="url(#SVGID_2_)" fill="#004A97" d="M104.7,26.8L104.7,26.8l-1.1,3.2h2.1L104.7,26.8z M103,31.9
				c-0.1,0.4-0.3,0.7-0.3,0.9c0,0.3,0.5,0.4,0.9,0.4h0.1v0.3c-0.5,0-0.9,0-1.4,0c-0.4,0-0.8,0-1.2,0v-0.3h0.1c0.4,0,0.8-0.3,1-0.7
				l1.8-5.3c0.1-0.4,0.4-1,0.4-1.4c0.4-0.1,0.8-0.4,1-0.5c0,0,0.1,0,0.1,0c0,0,0.1,0,0.1,0c0,0.1,0.1,0.2,0.1,0.3l2.1,6
				c0.1,0.4,0.3,0.8,0.4,1.2c0.1,0.3,0.4,0.5,0.8,0.5h0.1v0.3c-0.5,0-1,0-1.6,0c-0.6,0-1.1,0-1.7,0v-0.3h0.1c0.3,0,0.7,0,0.7-0.3
				c0-0.1-0.1-0.5-0.2-0.8l-0.4-1.3h-2.6L103,31.9z"/>
			<path clip-path="url(#SVGID_2_)" fill="#004A97" d="M104.6,26.8L104.6,26.8L104.6,26.8z M103.6,30h2l-1-3.1L103.6,30z
				 M103.5,30.1l1.1-3.3h0h0v0.1l0,0l0,0v-0.1h0l1.1,3.3H103.5z M105.8,33.5c0.6,0,1.1,0,1.7,0c0.5,0,1,0,1.5,0v-0.2h0
				c-0.4,0-0.7-0.2-0.8-0.5c-0.1-0.3-0.3-0.8-0.4-1.2l-2.1-6c0-0.1-0.1-0.2-0.1-0.3c0,0,0,0,0,0h0c0,0,0,0-0.1,0
				c-0.2,0.1-0.7,0.4-1,0.5c-0.1,0.4-0.3,1-0.4,1.4l-1.8,5.3c-0.2,0.5-0.6,0.8-1,0.8h0v0.2c0.4,0,0.8,0,1.2,0c0.4,0,0.9,0,1.3,0
				v-0.2h-0.1c-0.4,0-0.9,0-0.9-0.5c0-0.2,0.1-0.5,0.3-0.9l0,0l0,0l0.4-1.2h2.7l0.5,1.4c0.1,0.4,0.2,0.7,0.2,0.8
				c0,0.4-0.5,0.4-0.8,0.4h-0.1V33.5z M109.1,33.6c-0.5,0-1,0-1.6,0c-0.6,0-1.1,0-1.7,0l-0.1,0v-0.1v-0.4h0.1h0.1
				c0.3,0,0.7-0.1,0.7-0.3c0-0.1-0.1-0.4-0.2-0.8l-0.4-1.3h-2.5l-0.4,1.2c-0.1,0.4-0.3,0.7-0.3,0.9c0,0.3,0.4,0.3,0.8,0.3h0.2v0.1
				v0.4l-0.1,0c-0.5,0-0.9,0-1.4,0c-0.4,0-0.8,0-1.2,0l-0.1,0v-0.1v-0.4h0h0.1c0.4,0,0.8-0.2,0.9-0.7l1.8-5.3c0.1-0.4,0.4-1,0.5-1.5
				c0.4-0.1,0.8-0.4,1-0.5c0,0,0.1,0,0.1,0c0,0,0.1,0,0.1,0.1c0,0.1,0.1,0.2,0.1,0.3l2.1,6c0.1,0.4,0.3,0.8,0.4,1.2
				c0.1,0.3,0.3,0.4,0.7,0.4h0.1v0.1L109.1,33.6L109.1,33.6z"/>
			<path clip-path="url(#SVGID_2_)" fill="#004A97" d="M109.6,26.1c-0.9,0-0.9,0.2-1.1,1h-0.3c0-0.3,0.1-0.6,0.1-1
				c0-0.3,0.1-0.6,0.1-1h0.3c0.1,0.3,0.4,0.3,0.7,0.3h5.9c0.3,0,0.6,0,0.6-0.4l0.3,0c0,0.3-0.1,0.6-0.1,0.9c0,0.3,0,0.6,0,0.9
				l-0.3,0.1c0-0.4-0.1-1.1-0.8-1.1h-1.9v6.1c0,0.9,0.4,1,0.9,1h0.2v0.3c-0.4,0-1.2,0-1.9,0c-0.7,0-1.5,0-1.9,0v-0.3h0.2
				c0.6,0,1-0.1,1-1v-6.1H109.6z"/>
			<path clip-path="url(#SVGID_2_)" fill="#004A97" d="M114.1,33.6c-0.4,0-1.3,0-1.9,0c-0.7,0-1.5,0-1.9,0h-0.1v0v-0.4h0.1h0.2
				c0.6,0,0.9,0,0.9-0.9l0-6.1h-1.8v0v-0.1h1.9v6.2c0,0.9-0.4,1-1,1h-0.2v0.2c0.5,0,1.2,0,1.9,0C112.8,33.4,113.6,33.5,114.1,33.6
				l-0.1-0.3h-0.2c-0.6,0-1-0.1-1-1v-6.1h1.9c0.8,0,0.9,0.7,0.9,1.1l0.3-0.1c0-0.3,0-0.6,0-0.9c0-0.3,0.1-0.6,0.1-0.9l-0.2,0
				c-0.1,0.3-0.4,0.4-0.7,0.3h-5.9h-0.1c-0.3,0-0.6,0-0.7-0.3h-0.2c0,0.3,0,0.6-0.1,0.9c0,0.3-0.1,0.6-0.1,0.9h0.2
				c0.2-0.8,0.3-1.1,1.1-1v0.1v0c-0.8,0-0.8,0.2-1,1l0,0h0h-0.4l0-0.1c0-0.3,0.1-0.6,0.1-1c0-0.3,0.1-0.6,0.1-1v0h0h0.3l0,0
				c0.1,0.3,0.3,0.3,0.6,0.3c0,0,0,0,0.1,0h5.9c0.3,0,0.5,0,0.6-0.3l0-0.1l0.1,0l0.3,0.1l0,0c0,0.3-0.1,0.6-0.1,0.9
				c0,0.3,0,0.6,0,0.9v0l0,0l-0.4,0.1l0-0.1c0-0.4-0.1-1.1-0.8-1.1H113v6c0,0.9,0.4,0.9,0.9,0.9h0.3v0L114.1,33.6L114.1,33.6z"/>
			<path clip-path="url(#SVGID_2_)" fill="#004A97" d="M116.6,33.2h0.2c0.4,0,0.8-0.1,0.8-0.7v-6c0-0.6-0.4-0.7-0.8-0.7h-0.2v-0.3
				c0.4,0,1.1,0,1.7,0c0.6,0,1.3,0,1.8,0v0.3h-0.2c-0.4,0-0.8,0.1-0.8,0.7v6c0,0.6,0.4,0.7,0.8,0.7h0.2v0.3c-0.6,0-1.2,0-1.8,0
				c-0.6,0-1.2,0-1.7,0V33.2z"/>
			<path clip-path="url(#SVGID_2_)" fill="#004A97" d="M120,33.5v-0.2h-0.1c-0.4,0-0.9-0.1-0.9-0.7v-6c0-0.6,0.5-0.7,0.9-0.7h0.1
				v-0.2c-0.5,0-1.2,0-1.7,0c-0.5,0-1.2,0-1.6,0v0.2h0.1c0.4,0,0.9,0.1,0.9,0.7v6c0,0.6-0.5,0.7-0.9,0.7h-0.1v0.2c0.4,0,1.1,0,1.6,0
				C118.8,33.4,119.5,33.5,120,33.5 M120.1,33.6c-0.6,0-1.2,0-1.8,0c-0.6,0-1.2,0-1.7,0h0v0v-0.3v0h0h0.2c0.4,0,0.8,0,0.8-0.6v-6
				c0-0.6-0.4-0.6-0.8-0.6h-0.2v0v-0.4h0c0.4,0,1.1,0,1.7,0c0.6,0,1.3,0,1.8,0h0v0v0.4h0h-0.2c-0.4,0-0.8,0-0.8,0.6v6
				c0,0.6,0.4,0.6,0.8,0.6h0.2v0L120.1,33.6L120.1,33.6z"/>
			<path clip-path="url(#SVGID_2_)" fill="#004A97" d="M124.8,33.2c2.2,0,2.6-2,2.6-3.6c0-1.7-0.9-3.7-2.8-3.7c-2,0-2.6,1.8-2.6,3.3
				C122,31.2,122.9,33.2,124.8,33.2 M124.6,25.4c2.4,0,4.4,1.5,4.4,3.9c0,2.6-1.9,4.4-4.3,4.4c-2.4,0-4.3-1.6-4.3-4.1
				C120.4,27.2,122.3,25.4,124.6,25.4"/>
			<path clip-path="url(#SVGID_2_)" fill="#004A97" d="M122,29.2c0-1.5,0.6-3.4,2.6-3.4c1.9,0,2.9,2.1,2.9,3.7
				c0,1.7-0.4,3.7-2.7,3.7v0v0c2.2,0,2.6-1.9,2.6-3.6c0-1.7-0.9-3.6-2.8-3.6C122.6,25.9,122.1,27.7,122,29.2c0.1,2,1,4,2.8,4v0v0
				C122.9,33.2,122,31.3,122,29.2 M120.4,29.6c0-2.4,1.9-4.3,4.3-4.3v0.1v0C122.3,25.4,120.5,27.2,120.4,29.6
				c0.1,2.4,1.9,4.1,4.3,4.1c2.4,0,4.3-1.7,4.3-4.3c0-2.4-1.9-3.9-4.3-3.9v0v-0.1c2.5,0,4.4,1.5,4.4,4c0,2.7-1.9,4.4-4.4,4.4
				C122.2,33.7,120.4,32.1,120.4,29.6"/>
			<path clip-path="url(#SVGID_2_)" fill="#004A97" d="M136.7,31.3L136.7,31.3l0-4.3c0-0.9-0.7-1.1-1-1.1h-0.2v-0.3
				c0.5,0,1.1,0,1.6,0c0.5,0,0.9,0,1.4,0v0.3h-0.2c-0.5,0-1,0.1-1,1.5v5.2c0,0.4,0,0.8,0.1,1.2H137l-5.9-6.6v4.7
				c0,1,0.2,1.3,1.1,1.3h0.2v0.3c-0.5,0-1,0-1.5,0c-0.5,0-1,0-1.6,0v-0.3h0.2c0.8,0,1-0.5,1-1.5v-4.8c0-0.6-0.5-1-1-1h-0.1v-0.3
				c0.4,0,0.9,0,1.3,0c0.3,0,0.7,0,1,0L136.7,31.3z"/>
			<path clip-path="url(#SVGID_2_)" fill="#004A97" d="M136.7,31.3L136.7,31.3L136.7,31.3L136.7,31.3z M136.7,31.3L136.7,31.3
				L136.7,31.3z M137,33.7h0.4c0-0.3-0.1-0.7-0.1-1.1v-5.2c0-1.4,0.6-1.5,1.1-1.5h0.1v-0.2c-0.5,0-0.9,0-1.4,0c-0.5,0-1,0-1.6,0v0.2
				h0.2c0.4,0,1,0.2,1,1.1l0,4.3l0,0l0,0l-5.1-5.8c-0.3,0-0.7,0-1,0c-0.4,0-0.9,0-1.3,0v0.2h0.1c0.5,0,1.1,0.4,1.1,1.1v4.8
				c0,0.9-0.3,1.5-1.1,1.5l-0.1,0v0.2c0.5,0,1,0,1.5,0c0.5,0,1,0,1.4,0v-0.2h-0.1c-0.9,0-1.1-0.4-1.1-1.4V27L137,33.7z M137.4,33.8
				l-0.5,0l-5.8-6.5v4.6c0,1,0.2,1.3,1,1.3h0.2v0.1v0.4h0c-0.5,0-1,0-1.5,0c-0.5,0-1,0-1.6,0h0v0v-0.4h0h0.2c0.8,0,1-0.5,1-1.4v-4.8
				c0-0.6-0.5-1-1-1h-0.2v0v-0.4h0c0.4,0,0.9,0,1.3,0c0.3,0,0.7,0,1.1,0l5,5.7V27c0-0.9-0.6-1-0.9-1h-0.3v0v-0.4h0.1
				c0.5,0,1.1,0,1.6,0c0.5,0,0.9,0,1.4,0h0v0v0.4h0h-0.2c-0.5,0-1,0.1-1,1.4v5.2C137.4,32.9,137.4,33.3,137.4,33.8L137.4,33.8
				L137.4,33.8z"/>
			<path clip-path="url(#SVGID_2_)" fill="#004A97" d="M142,26.8L142,26.8l-1.1,3.2h2.1L142,26.8z M140.4,31.9
				c-0.1,0.4-0.3,0.7-0.3,0.9c0,0.3,0.5,0.4,0.9,0.4h0.1v0.3c-0.5,0-0.9,0-1.4,0c-0.4,0-0.8,0-1.2,0v-0.3h0.1c0.4,0,0.8-0.3,1-0.7
				l1.8-5.3c0.1-0.4,0.4-1,0.4-1.4c0.4-0.1,0.8-0.4,1-0.5c0,0,0.1,0,0.1,0c0,0,0.1,0,0.1,0c0,0.1,0.1,0.2,0.1,0.3l2.1,6
				c0.1,0.4,0.3,0.8,0.4,1.2c0.1,0.3,0.4,0.5,0.8,0.5h0.1v0.3c-0.5,0-1,0-1.6,0c-0.6,0-1.1,0-1.7,0v-0.3h0.1c0.3,0,0.7,0,0.7-0.3
				c0-0.1-0.1-0.5-0.2-0.8l-0.4-1.3h-2.6L140.4,31.9z"/>
			<path clip-path="url(#SVGID_2_)" fill="#004A97" d="M142,26.8L142,26.8L142,26.8z M141,30h2l-1-3.1L141,30z M140.9,30.1l1.1-3.3
				h0h0v0.1l0,0l0,0v-0.1h0l1.1,3.3H140.9z M143.2,33.5c0.6,0,1.1,0,1.7,0c0.5,0,1,0,1.5,0l0-0.2h0c-0.4,0-0.7-0.2-0.8-0.5
				c-0.2-0.3-0.3-0.8-0.4-1.2l-2.1-6c0-0.1-0.1-0.2-0.1-0.3c0,0,0,0,0,0h0c0,0,0,0-0.1,0c-0.2,0.1-0.7,0.4-1,0.5
				c-0.1,0.4-0.3,1-0.4,1.4l-1.8,5.3c-0.2,0.5-0.6,0.8-1,0.8h0v0.2c0.4,0,0.8,0,1.2,0c0.4,0,0.9,0,1.3,0v-0.2H141
				c-0.4,0-0.9,0-0.9-0.5c0-0.2,0.1-0.5,0.3-0.9l0,0l0,0l0.4-1.2h2.7l0.5,1.4c0.1,0.4,0.2,0.7,0.2,0.8c0,0.4-0.5,0.4-0.8,0.4h-0.1
				V33.5z M146.5,33.6c-0.5,0-1,0-1.6,0c-0.6,0-1.1,0-1.7,0l-0.1,0v-0.1v-0.4h0h0.1c0.3,0,0.7-0.1,0.7-0.3c0-0.1-0.1-0.4-0.2-0.8
				l-0.4-1.3h-2.5l-0.4,1.2c-0.1,0.4-0.3,0.7-0.2,0.9c0,0.3,0.4,0.4,0.8,0.4h0.2v0v0.4l-0.1,0c-0.5,0-0.9,0-1.4,0
				c-0.4,0-0.8,0-1.2,0l0,0v-0.1v-0.4h0h0.1c0.4,0,0.8-0.2,1-0.7l1.8-5.3c0.1-0.4,0.4-1,0.5-1.5c0.4-0.1,0.8-0.4,1-0.5
				c0,0,0.1,0,0.1,0c0,0,0.1,0,0.1,0.1c0,0.1,0.1,0.2,0.1,0.3l2.1,6c0.1,0.4,0.3,0.8,0.4,1.2c0.1,0.3,0.3,0.4,0.7,0.4h0.1v0
				L146.5,33.6L146.5,33.6z"/>
			<path clip-path="url(#SVGID_2_)" fill="#004A97" d="M149.3,32.4c0,0.5,0.3,0.6,0.7,0.6c0.5,0,1,0,1.5,0c0.5-0.1,0.9-0.3,1.1-0.6
				c0.2-0.3,0.3-0.6,0.4-0.8h0.3c-0.1,0.7-0.3,1.3-0.4,1.9c-1,0-2,0-3,0c-1,0-2,0-3,0v-0.3h0.2c0.4,0,0.9-0.1,0.9-0.8v-5.9
				c0-0.6-0.4-0.7-0.9-0.7h-0.2v-0.3c0.6,0,1.2,0,1.8,0c0.6,0,1.2,0,1.7,0v0.3h-0.3c-0.4,0-0.8,0-0.8,0.6V32.4z"/>
			<path clip-path="url(#SVGID_2_)" fill="#004A97" d="M152.9,33.5c0.1-0.6,0.3-1.2,0.4-1.8H153c-0.1,0.2-0.2,0.6-0.4,0.8
				c-0.2,0.3-0.6,0.6-1.1,0.6c-0.3,0-0.6,0-0.9,0c-0.2,0-0.4,0-0.6,0c-0.4,0-0.7-0.2-0.7-0.7v-5.9c0-0.6,0.4-0.7,0.8-0.7h0.2v-0.2
				c-0.6,0-1.1,0-1.7,0c-0.6,0-1.2,0-1.8,0v0.2h0.1c0.4,0,0.9,0.1,0.9,0.7v5.9c0,0.7-0.5,0.8-0.9,0.8h-0.1v0.2c1,0,2,0,3,0
				C150.9,33.4,151.9,33.5,152.9,33.5 M152.9,33.6c-1,0-2,0-3,0c-1,0-2,0-3,0h0v0v-0.4h0h0.2c0.4,0,0.8,0,0.8-0.7v-5.9
				c0-0.6-0.4-0.6-0.8-0.6h-0.2v0v-0.4h0c0.6,0,1.2,0,1.8,0c0.6,0,1.2,0,1.7,0h0v0v0.4h0h-0.3c-0.4,0-0.7,0-0.7,0.6v5.9
				c0,0.4,0.3,0.5,0.6,0.6c0.2,0,0.4,0,0.6,0c0.3,0,0.6,0,0.9,0c0.5-0.1,0.9-0.3,1.1-0.6c0.2-0.2,0.3-0.6,0.3-0.8l0,0h0h0.4l0,0.1
				C153.2,32.2,153.1,32.9,152.9,33.6L152.9,33.6L152.9,33.6z"/>
			<path clip-path="url(#SVGID_2_)" fill="#004A97" d="M153,26.4h0.1c0.2,0,0.2-0.1,0.2-0.3c0-0.2-0.1-0.3-0.2-0.3H153V26.4z
				 M152.6,27.1L152.6,27.1c0.1-0.1,0.2-0.1,0.2-0.2V26c0-0.1,0-0.2-0.2-0.2v-0.1h0.6c0.2,0,0.4,0.1,0.4,0.3c0,0.2-0.1,0.3-0.3,0.4
				l0.2,0.3c0.1,0.1,0.2,0.2,0.3,0.3v0h-0.2c-0.1,0-0.2-0.2-0.4-0.6H153v0.4c0,0.1,0,0.1,0.2,0.1v0.1H152.6z M153.2,27.4
				c0.5,0,1-0.5,1-1c0-0.5-0.4-1-1-1c-0.5,0-1,0.5-1,1C152.2,26.9,152.6,27.4,153.2,27.4 M153.2,25.2c0.7,0,1.2,0.5,1.2,1.2
				c0,0.7-0.5,1.2-1.2,1.2c-0.7,0-1.2-0.5-1.2-1.2C152,25.7,152.5,25.2,153.2,25.2"/>
			<path clip-path="url(#SVGID_2_)" fill="#004A97" d="M29.6,40c10.9,0.1,20.9-8.9,20.9-19.8C50.5,8.2,40.5,0,29.6,0h-9.4
				C9.1,0,0,8.2,0,20.2C0,31.1,9.1,40.1,20.2,40H29.6z"/>
			<path clip-path="url(#SVGID_2_)" fill="#FFFFFF" d="M24.4,30.8V9.1c4.4,1.7,7.4,5.9,7.5,10.8C31.8,24.9,28.7,29.1,24.4,30.8
				 M8.6,20c0-4.9,3.1-9.2,7.4-10.8v21.7C11.7,29.1,8.6,24.9,8.6,20 M20.2,1.7C10.1,1.7,1.9,9.9,1.9,20c0,10.1,8.2,18.3,18.3,18.3
				c10.1,0,18.3-8.2,18.3-18.3C38.5,9.9,30.3,1.7,20.2,1.7"/>
			<path clip-path="url(#SVGID_2_)" fill="#004A97" d="M59,18.5c0,1.6,1.2,1.8,2.2,1.8c4.5,0,6-3.4,6-6.6c0-3.9-2.5-6.8-6.6-6.8
				C59.8,6.9,59.4,7,59,7V18.5z M56.9,8.6c0-1.9-1-1.8-1.9-1.8V6.3c0.8,0,1.7,0,2.5,0c0.9,0,2.1,0,3.6,0c5.4,0,8.4,3.6,8.4,7.4
				c0,2.1-1.2,7.3-8.7,7.3c-1.1,0-2.1,0-3.1,0c-0.9,0-1.9,0-2.8,0v-0.5c1.3-0.1,1.9-0.2,1.9-1.6V8.6z"/>
			<path clip-path="url(#SVGID_2_)" fill="#004A97" d="M72.5,8.1c-0.5,0-1-0.5-1-1.1c0-0.5,0.5-1,1-1c0.5,0,1,0.4,1,1
				C73.5,7.6,73.1,8.1,72.5,8.1 M70.3,20.4h0.4c0.6,0,1,0,1-0.7V14c0-0.9-0.3-1.1-1.1-1.5v-0.3c1-0.3,2.2-0.7,2.3-0.8
				c0.1-0.1,0.3-0.1,0.4-0.1c0.1,0,0.1,0.1,0.1,0.3v8.1c0,0.7,0.5,0.7,1.1,0.7h0.4V21c-0.7,0-1.5,0-2.2,0c-0.8,0-1.5,0-2.3,0V20.4z"
				/>
			<path clip-path="url(#SVGID_2_)" fill="#004A97" d="M76.8,14.1c0-0.8-0.2-1-1.2-1.4v-0.4c0.9-0.3,1.8-0.6,2.8-1
				c0.1,0,0.1,0,0.1,0.2v1.4c1.2-0.9,2.2-1.6,3.6-1.6c1.8,0,2.4,1.3,2.4,2.9v5.4c0,0.7,0.5,0.7,1.1,0.7h0.4V21c-0.7,0-1.5,0-2.2,0
				c-0.8,0-1.5,0-2.3,0v-0.5h0.4c0.6,0,1,0,1-0.7v-5.4c0-1.2-0.7-1.8-1.9-1.8c-0.7,0-1.7,0.5-2.4,1v6.2c0,0.7,0.5,0.7,1.1,0.7h0.4
				V21c-0.7,0-1.5,0-2.2,0c-0.8,0-1.5,0-2.3,0v-0.5h0.4c0.6,0,1,0,1-0.7V14.1z"/>
			<path clip-path="url(#SVGID_2_)" fill="#004A97" d="M91.2,14.5c0.5,0,0.6-0.3,0.6-0.5c0-1.1-0.7-1.9-1.8-1.9
				c-1.3,0-2.2,0.9-2.4,2.5H91.2z M87.5,15.1c0,0.2,0,0.5,0,1.2c0.1,2,1.4,3.6,3.1,3.6c1.2,0,2.1-0.6,2.8-1.4l0.3,0.3
				c-1,1.3-2.2,2.4-3.9,2.4c-3.3,0-4-3.2-4-4.6c0-4.1,2.8-5.3,4.2-5.3c1.7,0,3.5,1.1,3.6,3.3c0,0.1,0,0.3,0,0.4l-0.2,0.1H87.5z"/>
			<path clip-path="url(#SVGID_2_)" fill="#004A97" d="M94.1,20.4h0.6c0.6,0,1,0,1-0.7v-5.9c0-0.7-0.8-0.8-1.1-0.9v-0.3
				c1.5-0.7,2.4-1.2,2.6-1.2c0.1,0,0.2,0.1,0.2,0.3v1.9h0c0.5-0.8,1.4-2.2,2.7-2.2c0.5,0,1.2,0.4,1.2,1.1c0,0.6-0.4,1.1-1,1.1
				c-0.7,0-0.7-0.5-1.4-0.5c-0.4,0-1.5,0.5-1.5,1.7v4.9c0,0.7,0.4,0.7,1,0.7h1.2V21c-1.2,0-2,0-2.9,0c-0.9,0-1.7,0-2.5,0V20.4z"/>
			<path clip-path="url(#SVGID_2_)" fill="#004A97" d="M102.2,18c0.3,1.4,1.1,2.6,2.7,2.6c1.2,0,1.7-0.8,1.7-1.5
				c0-2.5-4.6-1.7-4.6-5.1c0-1.2,0.9-2.7,3.3-2.7c0.7,0,1.6,0.2,2.4,0.6l0.1,2.1h-0.5c-0.2-1.3-0.9-2.1-2.3-2.1
				c-0.8,0-1.6,0.5-1.6,1.4c0,2.5,4.9,1.7,4.9,5c0,1.4-1.1,2.9-3.6,2.9c-0.8,0-1.8-0.3-2.6-0.7l-0.2-2.4L102.2,18z"/>
			<path clip-path="url(#SVGID_2_)" fill="#004A97" d="M127.3,10.1h-0.5c-0.4-2.5-2.1-3.4-4.5-3.4c-2.4,0-5.9,1.6-5.9,6.7
				c0,4.3,3,7.3,6.3,7.3c2.1,0,3.8-1.4,4.2-3.6l0.5,0.1l-0.5,3.1c-0.9,0.5-3.3,1.1-4.7,1.1c-4.9,0-8-3.2-8-7.9c0-4.3,3.8-7.4,8-7.4
				c1.7,0,3.3,0.5,5,1.1L127.3,10.1z"/>
			<path clip-path="url(#SVGID_2_)" fill="#004A97" d="M128,20.4h0.4c0.6,0,1,0,1-0.7V8c0-1.4-0.3-1.4-1.1-1.6V6
				c0.8-0.3,1.7-0.7,2.2-0.9c0.2-0.1,0.4-0.2,0.5-0.2c0.1,0,0.2,0.1,0.2,0.3v14.5c0,0.7,0.5,0.7,1.1,0.7h0.4V21c-0.7,0-1.4,0-2.2,0
				c-0.8,0-1.5,0-2.3,0V20.4z"/>
			<path clip-path="url(#SVGID_2_)" fill="#004A97" d="M141.5,19.8c0,0.4,0.2,0.4,0.6,0.4c0.3,0,0.6,0,0.8,0v0.4
				c-0.9,0.1-2.6,0.5-3,0.7l-0.1-0.1v-1.7c-1.3,1-2.2,1.8-3.7,1.8c-1.1,0-2.3-0.7-2.3-2.5v-5.4c0-0.5-0.1-1.1-1.3-1.2v-0.4
				c0.8,0,2.4-0.1,2.7-0.1c0.2,0,0.2,0.1,0.2,0.6v5.4c0,0.6,0,2.4,1.8,2.4c0.7,0,1.7-0.5,2.5-1.3v-5.7c0-0.4-1-0.6-1.8-0.9V12
				c1.9-0.1,3.1-0.3,3.3-0.3c0.2,0,0.2,0.1,0.2,0.4V19.8z"/>
			<path clip-path="url(#SVGID_2_)" fill="#004A97" d="M145.7,18.6c0,0.8,0.8,2.1,2.2,2.1c2.3,0,3.2-2.2,3.2-4.1
				c0-2.3-1.7-4.2-3.4-4.2c-0.8,0-1.4,0.5-2,1V18.6z M145.7,12.9c0.8-0.7,2-1.5,3.1-1.5c2.4,0,3.9,2.1,3.9,4.4c0,2.8-2,5.5-5,5.5
				c-1.6,0-2.4-0.5-2.9-0.7l-0.6,0.5l-0.4-0.2c0.2-1.2,0.3-2.5,0.3-3.7V8c0-1.4-0.3-1.4-1.1-1.6V6c0.8-0.3,1.7-0.7,2.2-0.9
				c0.2-0.1,0.4-0.2,0.5-0.2c0.1,0,0.2,0.1,0.2,0.3V12.9z"/>
			<path clip-path="url(#SVGID_2_)" fill="#004A97" d="M55,33.2h0.2c0.4,0,0.8-0.1,0.8-0.7v-6c0-0.6-0.4-0.7-0.8-0.7H55v-0.3
				c0.4,0,1.1,0,1.7,0c0.6,0,1.3,0,1.8,0v0.3h-0.2c-0.4,0-0.8,0.1-0.8,0.7v6c0,0.6,0.4,0.7,0.8,0.7h0.2v0.3c-0.5,0-1.2,0-1.8,0
				c-0.6,0-1.2,0-1.7,0V33.2z"/>
			<path clip-path="url(#SVGID_2_)" fill="#004A97" d="M58.4,33.5l0-0.2h-0.1c-0.4,0-0.9-0.1-0.9-0.7v-6c0-0.6,0.5-0.7,0.9-0.7h0.1
				v-0.2c-0.5,0-1.2,0-1.7,0c-0.5,0-1.2,0-1.6,0v0.2h0.1c0.4,0,0.9,0.1,0.9,0.7v6c0,0.6-0.5,0.7-0.9,0.7H55v0.2c0.4,0,1.1,0,1.6,0
				C57.2,33.4,57.9,33.5,58.4,33.5 M58.4,33.6c-0.6,0-1.2,0-1.8,0c-0.6,0-1.2,0-1.7,0h0v0v-0.3v0h0h0.2c0.4,0,0.8,0,0.8-0.6v-6
				c0-0.6-0.4-0.6-0.8-0.6h-0.2v0v-0.4h0c0.4,0,1.1,0,1.7,0c0.6,0,1.3,0,1.8,0h0.1v0.1v0.4h-0.1h-0.2c-0.4,0-0.8,0-0.8,0.6v6
				c0,0.6,0.4,0.6,0.8,0.6h0.2v0L58.4,33.6L58.4,33.6z"/>
			<path clip-path="url(#SVGID_2_)" fill="#004A97" d="M66.3,31.3L66.3,31.3l0-4.3c0-0.9-0.7-1.1-1-1.1h-0.3v-0.3c0.5,0,1.1,0,1.6,0
				c0.5,0,0.9,0,1.4,0v0.3h-0.2c-0.5,0-1,0.1-1,1.5v5.2c0,0.4,0,0.8,0.1,1.2h-0.4l-5.9-6.6v4.7c0,1,0.2,1.3,1.1,1.3h0.2v0.3
				c-0.5,0-1,0-1.5,0c-0.5,0-1,0-1.6,0v-0.3H59c0.8,0,1-0.5,1-1.5v-4.8c0-0.6-0.5-1-1-1h-0.1v-0.3c0.4,0,0.9,0,1.3,0
				c0.3,0,0.7,0,1,0L66.3,31.3z"/>
			<path clip-path="url(#SVGID_2_)" fill="#004A97" d="M66.3,31.3L66.3,31.3L66.3,31.3L66.3,31.3z M66.3,31.3L66.3,31.3L66.3,31.3z
				 M66.5,33.7h0.4c-0.1-0.3-0.1-0.7-0.1-1.1v-5.2c0-1.4,0.6-1.5,1.1-1.5H68v-0.2c-0.5,0-0.9,0-1.4,0c-0.5,0-1,0-1.6,0l0,0.2h0.2
				c0.4,0,1,0.2,1,1.1l0,4.3l0,0l0,0l-5.1-5.8c-0.3,0-0.7,0-1,0c-0.4,0-0.8,0-1.3,0l0,0.2H59c0.5,0,1.1,0.4,1.1,1.1v4.8
				c0,0.9-0.3,1.5-1.1,1.5l-0.1,0v0.2c0.5,0,1,0,1.5,0c0.5,0,1,0,1.4,0v-0.2h-0.1c-0.9,0-1.1-0.4-1.1-1.4V27L66.5,33.7z M67,33.8
				l-0.5,0l-5.8-6.5v4.6c0,1,0.2,1.3,1,1.3H62v0v0.4h-0.1c-0.5,0-1,0-1.5,0c-0.5,0-1,0-1.6,0h0v0v-0.4h0H59c0.8,0,1-0.5,1-1.4v-4.8
				c0-0.6-0.5-1-1-1h-0.2v-0.1v-0.4h0c0.4,0,0.9,0,1.3,0c0.3,0,0.7,0,1.1,0l5,5.7V27c0-0.9-0.6-1-0.9-1H65v-0.1v-0.4h0.1
				c0.5,0,1.1,0,1.6,0c0.5,0,0.9,0,1.4,0h0v0v0.4h0h-0.2c-0.5,0-1,0.1-1,1.4v5.2C67,32.9,67,33.3,67,33.8L67,33.8L67,33.8z"/>
			<path clip-path="url(#SVGID_2_)" fill="#004A97" d="M69.8,26.1c-0.9,0-0.9,0.2-1.1,1h-0.3c0-0.3,0.1-0.6,0.1-1
				c0-0.3,0.1-0.6,0.1-1h0.3c0.1,0.3,0.4,0.3,0.7,0.3h5.9c0.3,0,0.6,0,0.6-0.4l0.3,0c0,0.3-0.1,0.6-0.1,0.9c0,0.3,0,0.6,0,0.9
				l-0.3,0.1c0-0.4-0.1-1.1-0.8-1.1h-1.9v6.1c0,0.9,0.4,1,0.9,1h0.2v0.3c-0.4,0-1.2,0-1.9,0c-0.7,0-1.5,0-1.9,0v-0.3h0.2
				c0.6,0,1-0.1,1-1v-6.1H69.8z"/>
			<path clip-path="url(#SVGID_2_)" fill="#004A97" d="M74.3,33.6c-0.5,0-1.3,0-1.9,0c-0.7,0-1.5,0-1.9,0h0v0v-0.4h0h0.2
				c0.6,0,0.9,0,0.9-0.9v-6.1h-1.8v0v-0.1h1.9v6.2c0,0.9-0.4,1-1,1h-0.2v0.2c0.5,0,1.2,0,1.9,0C73.1,33.4,73.8,33.5,74.3,33.6
				l-0.1-0.3h-0.2c-0.6,0-1-0.1-1-1v-6.1H75c0.8,0,0.9,0.7,0.9,1.1l0.2-0.1c0-0.3,0-0.6,0-0.9c0-0.3,0.1-0.6,0.1-0.9l-0.2,0
				c-0.1,0.3-0.4,0.3-0.7,0.3h-5.9h-0.1c-0.3,0-0.6,0-0.7-0.3h-0.2c0,0.3,0,0.6-0.1,0.9c0,0.3-0.1,0.6-0.1,0.9h0.2
				c0.2-0.8,0.2-1.1,1.1-1v0.1v0c-0.8,0-0.8,0.2-1,1l0,0h0h-0.4l0-0.1c0-0.3,0.1-0.6,0.1-1c0-0.3,0.1-0.6,0.1-1v0h0h0.3l0,0
				c0.1,0.3,0.3,0.3,0.6,0.3h0.1h5.9c0.3,0,0.6,0,0.6-0.3l0-0.1l0.1,0l0.3,0.1l0,0c0,0.3-0.1,0.6-0.1,0.9c0,0.3,0,0.6,0,0.9v0l0,0
				l-0.4,0.1l0-0.1c0-0.4-0.1-1.1-0.8-1.1h-1.8v6c0,0.9,0.4,0.9,0.9,0.9h0.3v0L74.3,33.6L74.3,33.6z"/>
			<path clip-path="url(#SVGID_2_)" fill="#004A97" d="M76.7,33.2h0.2c0.4,0,0.8-0.1,0.8-0.7v-6c0-0.6-0.4-0.7-0.8-0.7h-0.2v-0.3
				c0.7,0,1.9,0,2.8,0c1,0,2.2,0,2.9,0c0,0.5,0,1.2,0,1.8l-0.3,0.1C82.1,26.6,82,26,80.8,26h-1.6v3h1.4c0.7,0,0.8-0.4,0.9-1h0.3
				c0,0.4,0,0.9,0,1.3c0,0.4,0,0.9,0,1.3l-0.3,0.1c-0.1-0.7-0.1-1.1-0.9-1.1h-1.4v2.7c0,0.7,0.7,0.7,1.4,0.7c1.4,0,2-0.1,2.3-1.4
				l0.3,0.1c-0.1,0.6-0.3,1.2-0.4,1.8c-0.7,0-2.1,0-3.1,0c-1,0-2.4,0-3,0V33.2z"/>
			<path clip-path="url(#SVGID_2_)" fill="#004A97" d="M82.8,33.5c0.1-0.6,0.2-1.2,0.4-1.7L83,31.7c-0.3,1.3-1,1.4-2.4,1.4
				c-0.7,0-1.4,0-1.4-0.8v-2.7h1.4c0.8,0,0.9,0.5,0.9,1.1l0.2-0.1c0-0.4,0-0.8,0-1.3c0-0.4,0-0.9,0-1.3h-0.2c-0.1,0.6-0.3,1-0.9,1
				h-1.4V26h1.6c1.2,0,1.4,0.6,1.4,1.3l0.2-0.1c0-0.3,0-0.7,0-1.1c0-0.2,0-0.4,0-0.5c-0.8,0-1.9,0-2.9,0c-0.9,0-2.1,0-2.8,0v0.2h0.1
				c0.4,0,0.9,0.1,0.9,0.7v6c0,0.6-0.5,0.7-0.9,0.7h-0.1v0.2c0.7,0,2,0,3,0C80.8,33.4,82.1,33.5,82.8,33.5 M82.9,33.6
				c-0.7,0-2.1,0-3.1,0c-1,0-2.4,0-3,0h0v0v-0.3v0h0h0.2c0.4,0,0.8,0,0.8-0.6v-6c0-0.6-0.4-0.6-0.8-0.6h-0.2v0v-0.4h0
				c0.7,0,1.9,0,2.8,0c1,0,2.1,0,2.9,0h0.1l0,0.1c0,0.2,0,0.4,0,0.6c0,0.4,0,0.8,0,1.2l0,0l0,0l-0.4,0.1l0-0.1
				c-0.1-0.7-0.2-1.3-1.3-1.3h-1.5l0,2.9h1.3c0.7,0,0.8-0.3,0.9-1l0,0h0h0.4l0,0.1c0,0.4,0,0.9,0,1.3c0,0.4,0,0.9,0,1.3l0,0l0,0
				l-0.4,0.1l0-0.1c-0.1-0.7-0.1-1.1-0.8-1.1l-1.3,0v2.6c0,0.7,0.6,0.7,1.3,0.7c1.4,0,1.9-0.1,2.3-1.4l0,0l0,0l0.4,0.1l0,0
				C83.1,32.3,83,32.9,82.9,33.6L82.9,33.6L82.9,33.6z"/>
			<path clip-path="url(#SVGID_2_)" fill="#004A97" d="M86.3,29.4h0.6c1.1,0,1.8-0.4,1.8-1.8c0-1-0.7-1.7-1.7-1.7
				c-0.3,0-0.5,0-0.6,0V29.4z M84.8,26.8c0-0.8-0.5-0.9-0.8-0.9h-0.2v-0.3c0.4,0,1.1,0,1.8,0c0.7,0,1.2,0,1.8,0c1.4,0,2.7,0.4,2.7,2
				c0,1-0.7,1.7-1.6,2l2,2.9c0.3,0.5,0.5,0.6,1.1,0.7v0.3c-0.4,0-0.7,0-1.1,0c-0.4,0-0.7,0-1.1,0c-0.9-1.2-1.6-2.4-2.4-3.7h-0.8v2.5
				c0,0.9,0.4,0.9,0.9,0.9h0.2v0.3c-0.7,0-1.3,0-2,0c-0.5,0-1.1,0-1.7,0v-0.3H84c0.4,0,0.8-0.2,0.8-0.6V26.8z"/>
			<path clip-path="url(#SVGID_2_)" fill="#004A97" d="M86.8,29.4c1.1,0,1.7-0.4,1.7-1.7c0-1-0.6-1.6-1.6-1.6c-0.3,0-0.5,0-0.6,0
				v3.3H86.8z M86.3,29.5L86.3,29.5L86.2,26l0,0c0.2,0,0.3,0,0.7,0c1,0,1.7,0.7,1.7,1.7c0,1.4-0.7,1.8-1.8,1.8H86.3z M86.3,29.8H87
				l0,0c0.7,1.3,1.5,2.5,2.3,3.7c0.3,0,0.7,0,1.1,0c0.4,0,0.7,0,1.1,0v-0.3c-0.5-0.1-0.8-0.2-1.1-0.7l-2-3l0.1,0
				c0.9-0.4,1.6-1,1.6-2c0-1.6-1.2-2-2.7-2c-0.6,0-1.2,0-1.8,0c-0.7,0-1.4,0-1.7,0v0.2H84c0.4,0,0.9,0.1,0.9,0.9v5.8
				c0,0.5-0.4,0.7-0.9,0.7h-0.2v0.2c0.6,0,1.1,0,1.6,0c0.6,0,1.3,0,1.9,0v-0.2h-0.2c-0.5,0-1-0.1-1-1L86.3,29.8L86.3,29.8z
				 M91.6,33.6c-0.4,0-0.7,0-1.1,0c-0.3,0-0.7,0-1.1,0c-0.9-1.2-1.6-2.4-2.4-3.7h-0.7v2.4c0,0.9,0.4,0.9,0.9,0.9h0.3v0v0.4h-0.1
				c-0.7,0-1.3,0-2,0c-0.5,0-1.1,0-1.7,0h0v0v-0.4h0H84c0.4,0,0.8-0.2,0.8-0.6v-5.8c0-0.8-0.4-0.8-0.8-0.8h-0.3v0v-0.4h0
				c0.4,0,1.1,0,1.8,0c0.7,0,1.2,0,1.8,0c1.4,0,2.8,0.4,2.8,2.1c0,1-0.7,1.7-1.6,2l1.9,2.9c0.3,0.5,0.5,0.6,1.1,0.7l0,0v0L91.6,33.6
				L91.6,33.6z"/>
			<path clip-path="url(#SVGID_2_)" fill="#004A97" d="M99.4,31.3L99.4,31.3l0-4.3c0-0.9-0.7-1.1-1-1.1h-0.3v-0.3c0.5,0,1.1,0,1.6,0
				c0.5,0,0.9,0,1.4,0v0.3H101c-0.5,0-1,0.1-1,1.5v5.2c0,0.4,0,0.8,0.1,1.2h-0.4l-5.9-6.6v4.7c0,1,0.2,1.3,1.1,1.3H95v0.3
				c-0.5,0-1,0-1.5,0c-0.5,0-1,0-1.6,0v-0.3h0.2c0.8,0,1-0.5,1-1.5v-4.8c0-0.6-0.5-1-1-1h-0.1v-0.3c0.4,0,0.9,0,1.3,0
				c0.3,0,0.7,0,1,0L99.4,31.3z"/>
			<path clip-path="url(#SVGID_2_)" fill="#004A97" d="M99.3,31.3L99.3,31.3L99.3,31.3L99.3,31.3z M99.4,31.3L99.4,31.3L99.4,31.3z
				 M99.6,33.7h0.4c-0.1-0.3-0.1-0.7-0.1-1.1v-5.2c0-1.4,0.6-1.5,1.1-1.5h0.1v-0.2c-0.4,0-0.9,0-1.4,0c-0.5,0-1,0-1.6,0v0.2h0.2
				c0.4,0,1,0.2,1,1.1l0,4.3l0,0l0,0l-5.1-5.8c-0.3,0-0.7,0-1,0c-0.4,0-0.9,0-1.3,0v0.2h0.1c0.5,0,1.1,0.4,1.1,1.1v4.8
				c0,0.9-0.3,1.5-1.1,1.5l-0.1,0v0.2c0.5,0,1,0,1.5,0c0.5,0,1,0,1.4,0v-0.2h-0.1c-0.9,0-1.1-0.4-1.1-1.4V27L99.6,33.7z M100,33.8
				l-0.5,0l-5.8-6.5v4.6c0,1,0.2,1.3,1,1.3H95v0v0.4h0c-0.5,0-1,0-1.5,0c-0.5,0-1,0-1.6,0h-0.1v0v-0.4h0.1h0.2c0.8,0,1-0.5,1-1.4
				v-4.8c0-0.6-0.5-1-1-1h-0.2v0v-0.4h0.1c0.4,0,0.9,0,1.3,0c0.3,0,0.7,0,1.1,0l5,5.7V27c0-0.9-0.6-1-0.9-1h-0.3v0v-0.4h0
				c0.5,0,1.1,0,1.6,0c0.5,0,0.9,0,1.4,0h0v0.1v0.4h0H101c-0.5,0-1,0.1-1,1.4v5.2C100,32.9,100,33.3,100,33.8L100,33.8L100,33.8z"/>
			<path clip-path="url(#SVGID_2_)" fill="#004A97" d="M104.7,26.8L104.7,26.8l-1.1,3.2h2.1L104.7,26.8z M103,31.9
				c-0.1,0.4-0.3,0.7-0.3,0.9c0,0.3,0.5,0.4,0.9,0.4h0.1v0.3c-0.5,0-0.9,0-1.4,0c-0.4,0-0.8,0-1.2,0v-0.3h0.1c0.4,0,0.8-0.3,1-0.7
				l1.8-5.3c0.1-0.4,0.4-1,0.4-1.4c0.4-0.1,0.8-0.4,1-0.5c0,0,0.1,0,0.1,0c0,0,0.1,0,0.1,0c0,0.1,0.1,0.2,0.1,0.3l2.1,6
				c0.1,0.4,0.3,0.8,0.4,1.2c0.1,0.3,0.4,0.5,0.8,0.5h0.1v0.3c-0.5,0-1,0-1.6,0c-0.6,0-1.1,0-1.7,0v-0.3h0.1c0.3,0,0.7,0,0.7-0.3
				c0-0.1-0.1-0.5-0.2-0.8l-0.4-1.3h-2.6L103,31.9z"/>
			<path clip-path="url(#SVGID_2_)" fill="#004A97" d="M104.6,26.8L104.6,26.8L104.6,26.8z M103.6,30h2l-1-3.1L103.6,30z
				 M103.5,30.1l1.1-3.3h0h0v0.1l0,0l0,0v-0.1h0l1.1,3.3H103.5z M105.8,33.5c0.6,0,1.1,0,1.7,0c0.5,0,1,0,1.5,0v-0.2h0
				c-0.4,0-0.7-0.2-0.8-0.5c-0.1-0.3-0.3-0.8-0.4-1.2l-2.1-6c0-0.1-0.1-0.2-0.1-0.3c0,0,0,0,0,0h0c0,0,0,0-0.1,0
				c-0.2,0.1-0.7,0.4-1,0.5c-0.1,0.4-0.3,1-0.4,1.4l-1.8,5.3c-0.2,0.5-0.6,0.8-1,0.8h0v0.2c0.4,0,0.8,0,1.2,0c0.4,0,0.9,0,1.3,0
				v-0.2h-0.1c-0.4,0-0.9,0-0.9-0.5c0-0.2,0.1-0.5,0.3-0.9l0,0l0,0l0.4-1.2h2.7l0.5,1.4c0.1,0.4,0.2,0.7,0.2,0.8
				c0,0.4-0.5,0.4-0.8,0.4h-0.1V33.5z M109.1,33.6c-0.5,0-1,0-1.6,0c-0.6,0-1.1,0-1.7,0l-0.1,0v-0.1v-0.4h0.1h0.1
				c0.3,0,0.7-0.1,0.7-0.3c0-0.1-0.1-0.4-0.2-0.8l-0.4-1.3h-2.5l-0.4,1.2c-0.1,0.4-0.3,0.7-0.3,0.9c0,0.3,0.4,0.3,0.8,0.3h0.2v0.1
				v0.4l-0.1,0c-0.5,0-0.9,0-1.4,0c-0.4,0-0.8,0-1.2,0l-0.1,0v-0.1v-0.4h0h0.1c0.4,0,0.8-0.2,0.9-0.7l1.8-5.3c0.1-0.4,0.4-1,0.5-1.5
				c0.4-0.1,0.8-0.4,1-0.5c0,0,0.1,0,0.1,0c0,0,0.1,0,0.1,0.1c0,0.1,0.1,0.2,0.1,0.3l2.1,6c0.1,0.4,0.3,0.8,0.4,1.2
				c0.1,0.3,0.3,0.4,0.7,0.4h0.1v0.1L109.1,33.6L109.1,33.6z"/>
			<path clip-path="url(#SVGID_2_)" fill="#004A97" d="M109.6,26.1c-0.9,0-0.9,0.2-1.1,1h-0.3c0-0.3,0.1-0.6,0.1-1
				c0-0.3,0.1-0.6,0.1-1h0.3c0.1,0.3,0.4,0.3,0.7,0.3h5.9c0.3,0,0.6,0,0.6-0.4l0.3,0c0,0.3-0.1,0.6-0.1,0.9c0,0.3,0,0.6,0,0.9
				l-0.3,0.1c0-0.4-0.1-1.1-0.8-1.1h-1.9v6.1c0,0.9,0.4,1,0.9,1h0.2v0.3c-0.4,0-1.2,0-1.9,0c-0.7,0-1.5,0-1.9,0v-0.3h0.2
				c0.6,0,1-0.1,1-1v-6.1H109.6z"/>
			<path clip-path="url(#SVGID_2_)" fill="#004A97" d="M114.1,33.6c-0.4,0-1.3,0-1.9,0c-0.7,0-1.5,0-1.9,0h-0.1v0v-0.4h0.1h0.2
				c0.6,0,0.9,0,0.9-0.9l0-6.1h-1.8v0v-0.1h1.9v6.2c0,0.9-0.4,1-1,1h-0.2v0.2c0.5,0,1.2,0,1.9,0C112.8,33.4,113.6,33.5,114.1,33.6
				l-0.1-0.3h-0.2c-0.6,0-1-0.1-1-1v-6.1h1.9c0.8,0,0.9,0.7,0.9,1.1l0.3-0.1c0-0.3,0-0.6,0-0.9c0-0.3,0.1-0.6,0.1-0.9l-0.2,0
				c-0.1,0.3-0.4,0.4-0.7,0.3h-5.9h-0.1c-0.3,0-0.6,0-0.7-0.3h-0.2c0,0.3,0,0.6-0.1,0.9c0,0.3-0.1,0.6-0.1,0.9h0.2
				c0.2-0.8,0.3-1.1,1.1-1v0.1v0c-0.8,0-0.8,0.2-1,1l0,0h0h-0.4l0-0.1c0-0.3,0.1-0.6,0.1-1c0-0.3,0.1-0.6,0.1-1v0h0h0.3l0,0
				c0.1,0.3,0.3,0.3,0.6,0.3c0,0,0,0,0.1,0h5.9c0.3,0,0.5,0,0.6-0.3l0-0.1l0.1,0l0.3,0.1l0,0c0,0.3-0.1,0.6-0.1,0.9
				c0,0.3,0,0.6,0,0.9v0l0,0l-0.4,0.1l0-0.1c0-0.4-0.1-1.1-0.8-1.1H113v6c0,0.9,0.4,0.9,0.9,0.9h0.3v0L114.1,33.6L114.1,33.6z"/>
			<path clip-path="url(#SVGID_2_)" fill="#004A97" d="M116.6,33.2h0.2c0.4,0,0.8-0.1,0.8-0.7v-6c0-0.6-0.4-0.7-0.8-0.7h-0.2v-0.3
				c0.4,0,1.1,0,1.7,0c0.6,0,1.3,0,1.8,0v0.3h-0.2c-0.4,0-0.8,0.1-0.8,0.7v6c0,0.6,0.4,0.7,0.8,0.7h0.2v0.3c-0.6,0-1.2,0-1.8,0
				c-0.6,0-1.2,0-1.7,0V33.2z"/>
			<path clip-path="url(#SVGID_2_)" fill="#004A97" d="M120,33.5v-0.2h-0.1c-0.4,0-0.9-0.1-0.9-0.7v-6c0-0.6,0.5-0.7,0.9-0.7h0.1
				v-0.2c-0.5,0-1.2,0-1.7,0c-0.5,0-1.2,0-1.6,0v0.2h0.1c0.4,0,0.9,0.1,0.9,0.7v6c0,0.6-0.5,0.7-0.9,0.7h-0.1v0.2c0.4,0,1.1,0,1.6,0
				C118.8,33.4,119.5,33.5,120,33.5 M120.1,33.6c-0.6,0-1.2,0-1.8,0c-0.6,0-1.2,0-1.7,0h0v0v-0.3v0h0h0.2c0.4,0,0.8,0,0.8-0.6v-6
				c0-0.6-0.4-0.6-0.8-0.6h-0.2v0v-0.4h0c0.4,0,1.1,0,1.7,0c0.6,0,1.3,0,1.8,0h0v0v0.4h0h-0.2c-0.4,0-0.8,0-0.8,0.6v6
				c0,0.6,0.4,0.6,0.8,0.6h0.2v0L120.1,33.6L120.1,33.6z"/>
			<path clip-path="url(#SVGID_2_)" fill="#004A97" d="M124.8,33.2c2.2,0,2.6-2,2.6-3.6c0-1.7-0.9-3.7-2.8-3.7c-2,0-2.6,1.8-2.6,3.3
				C122,31.2,122.9,33.2,124.8,33.2 M124.6,25.4c2.4,0,4.4,1.5,4.4,3.9c0,2.6-1.9,4.4-4.3,4.4c-2.4,0-4.3-1.6-4.3-4.1
				C120.4,27.2,122.3,25.4,124.6,25.4"/>
			<path clip-path="url(#SVGID_2_)" fill="#004A97" d="M122,29.2c0-1.5,0.6-3.4,2.6-3.4c1.9,0,2.9,2.1,2.9,3.7
				c0,1.7-0.4,3.7-2.7,3.7v0v0c2.2,0,2.6-1.9,2.6-3.6c0-1.7-0.9-3.6-2.8-3.6C122.6,25.9,122.1,27.7,122,29.2c0.1,2,1,4,2.8,4v0v0
				C122.9,33.2,122,31.3,122,29.2 M120.4,29.6c0-2.4,1.9-4.3,4.3-4.3v0.1v0C122.3,25.4,120.5,27.2,120.4,29.6
				c0.1,2.4,1.9,4.1,4.3,4.1c2.4,0,4.3-1.7,4.3-4.3c0-2.4-1.9-3.9-4.3-3.9v0v-0.1c2.5,0,4.4,1.5,4.4,4c0,2.7-1.9,4.4-4.4,4.4
				C122.2,33.7,120.4,32.1,120.4,29.6"/>
			<path clip-path="url(#SVGID_2_)" fill="#004A97" d="M136.7,31.3L136.7,31.3l0-4.3c0-0.9-0.7-1.1-1-1.1h-0.2v-0.3
				c0.5,0,1.1,0,1.6,0c0.5,0,0.9,0,1.4,0v0.3h-0.2c-0.5,0-1,0.1-1,1.5v5.2c0,0.4,0,0.8,0.1,1.2H137l-5.9-6.6v4.7
				c0,1,0.2,1.3,1.1,1.3h0.2v0.3c-0.5,0-1,0-1.5,0c-0.5,0-1,0-1.6,0v-0.3h0.2c0.8,0,1-0.5,1-1.5v-4.8c0-0.6-0.5-1-1-1h-0.1v-0.3
				c0.4,0,0.9,0,1.3,0c0.3,0,0.7,0,1,0L136.7,31.3z"/>
			<path clip-path="url(#SVGID_2_)" fill="#004A97" d="M136.7,31.3L136.7,31.3L136.7,31.3L136.7,31.3z M136.7,31.3L136.7,31.3
				L136.7,31.3z M137,33.7h0.4c0-0.3-0.1-0.7-0.1-1.1v-5.2c0-1.4,0.6-1.5,1.1-1.5h0.1v-0.2c-0.5,0-0.9,0-1.4,0c-0.5,0-1,0-1.6,0v0.2
				h0.2c0.4,0,1,0.2,1,1.1l0,4.3l0,0l0,0l-5.1-5.8c-0.3,0-0.7,0-1,0c-0.4,0-0.9,0-1.3,0v0.2h0.1c0.5,0,1.1,0.4,1.1,1.1v4.8
				c0,0.9-0.3,1.5-1.1,1.5l-0.1,0v0.2c0.5,0,1,0,1.5,0c0.5,0,1,0,1.4,0v-0.2h-0.1c-0.9,0-1.1-0.4-1.1-1.4V27L137,33.7z M137.4,33.8
				l-0.5,0l-5.8-6.5v4.6c0,1,0.2,1.3,1,1.3h0.2v0.1v0.4h0c-0.5,0-1,0-1.5,0c-0.5,0-1,0-1.6,0h0v0v-0.4h0h0.2c0.8,0,1-0.5,1-1.4v-4.8
				c0-0.6-0.5-1-1-1h-0.2v0v-0.4h0c0.4,0,0.9,0,1.3,0c0.3,0,0.7,0,1.1,0l5,5.7V27c0-0.9-0.6-1-0.9-1h-0.3v0v-0.4h0.1
				c0.5,0,1.1,0,1.6,0c0.5,0,0.9,0,1.4,0h0v0v0.4h0h-0.2c-0.5,0-1,0.1-1,1.4v5.2C137.4,32.9,137.4,33.3,137.4,33.8L137.4,33.8
				L137.4,33.8z"/>
			<path clip-path="url(#SVGID_2_)" fill="#004A97" d="M142,26.8L142,26.8l-1.1,3.2h2.1L142,26.8z M140.4,31.9
				c-0.1,0.4-0.3,0.7-0.3,0.9c0,0.3,0.5,0.4,0.9,0.4h0.1v0.3c-0.5,0-0.9,0-1.4,0c-0.4,0-0.8,0-1.2,0v-0.3h0.1c0.4,0,0.8-0.3,1-0.7
				l1.8-5.3c0.1-0.4,0.4-1,0.4-1.4c0.4-0.1,0.8-0.4,1-0.5c0,0,0.1,0,0.1,0c0,0,0.1,0,0.1,0c0,0.1,0.1,0.2,0.1,0.3l2.1,6
				c0.1,0.4,0.3,0.8,0.4,1.2c0.1,0.3,0.4,0.5,0.8,0.5h0.1v0.3c-0.5,0-1,0-1.6,0c-0.6,0-1.1,0-1.7,0v-0.3h0.1c0.3,0,0.7,0,0.7-0.3
				c0-0.1-0.1-0.5-0.2-0.8l-0.4-1.3h-2.6L140.4,31.9z"/>
			<path clip-path="url(#SVGID_2_)" fill="#004A97" d="M142,26.8L142,26.8L142,26.8z M141,30h2l-1-3.1L141,30z M140.9,30.1l1.1-3.3
				h0h0v0.1l0,0l0,0v-0.1h0l1.1,3.3H140.9z M143.2,33.5c0.6,0,1.1,0,1.7,0c0.5,0,1,0,1.5,0l0-0.2h0c-0.4,0-0.7-0.2-0.8-0.5
				c-0.2-0.3-0.3-0.8-0.4-1.2l-2.1-6c0-0.1-0.1-0.2-0.1-0.3c0,0,0,0,0,0h0c0,0,0,0-0.1,0c-0.2,0.1-0.7,0.4-1,0.5
				c-0.1,0.4-0.3,1-0.4,1.4l-1.8,5.3c-0.2,0.5-0.6,0.8-1,0.8h0v0.2c0.4,0,0.8,0,1.2,0c0.4,0,0.9,0,1.3,0v-0.2H141
				c-0.4,0-0.9,0-0.9-0.5c0-0.2,0.1-0.5,0.3-0.9l0,0l0,0l0.4-1.2h2.7l0.5,1.4c0.1,0.4,0.2,0.7,0.2,0.8c0,0.4-0.5,0.4-0.8,0.4h-0.1
				V33.5z M146.5,33.6c-0.5,0-1,0-1.6,0c-0.6,0-1.1,0-1.7,0l-0.1,0v-0.1v-0.4h0h0.1c0.3,0,0.7-0.1,0.7-0.3c0-0.1-0.1-0.4-0.2-0.8
				l-0.4-1.3h-2.5l-0.4,1.2c-0.1,0.4-0.3,0.7-0.2,0.9c0,0.3,0.4,0.4,0.8,0.4h0.2v0v0.4l-0.1,0c-0.5,0-0.9,0-1.4,0
				c-0.4,0-0.8,0-1.2,0l0,0v-0.1v-0.4h0h0.1c0.4,0,0.8-0.2,1-0.7l1.8-5.3c0.1-0.4,0.4-1,0.5-1.5c0.4-0.1,0.8-0.4,1-0.5
				c0,0,0.1,0,0.1,0c0,0,0.1,0,0.1,0.1c0,0.1,0.1,0.2,0.1,0.3l2.1,6c0.1,0.4,0.3,0.8,0.4,1.2c0.1,0.3,0.3,0.4,0.7,0.4h0.1v0
				L146.5,33.6L146.5,33.6z"/>
			<path clip-path="url(#SVGID_2_)" fill="#004A97" d="M149.3,32.4c0,0.5,0.3,0.6,0.7,0.6c0.5,0,1,0,1.5,0c0.5-0.1,0.9-0.3,1.1-0.6
				c0.2-0.3,0.3-0.6,0.4-0.8h0.3c-0.1,0.7-0.3,1.3-0.4,1.9c-1,0-2,0-3,0c-1,0-2,0-3,0v-0.3h0.2c0.4,0,0.9-0.1,0.9-0.8v-5.9
				c0-0.6-0.4-0.7-0.9-0.7h-0.2v-0.3c0.6,0,1.2,0,1.8,0c0.6,0,1.2,0,1.7,0v0.3h-0.3c-0.4,0-0.8,0-0.8,0.6V32.4z"/>
			<path clip-path="url(#SVGID_2_)" fill="#004A97" d="M152.9,33.5c0.1-0.6,0.3-1.2,0.4-1.8H153c-0.1,0.2-0.2,0.6-0.4,0.8
				c-0.2,0.3-0.6,0.6-1.1,0.6c-0.3,0-0.6,0-0.9,0c-0.2,0-0.4,0-0.6,0c-0.4,0-0.7-0.2-0.7-0.7v-5.9c0-0.6,0.4-0.7,0.8-0.7h0.2v-0.2
				c-0.6,0-1.1,0-1.7,0c-0.6,0-1.2,0-1.8,0v0.2h0.1c0.4,0,0.9,0.1,0.9,0.7v5.9c0,0.7-0.5,0.8-0.9,0.8h-0.1v0.2c1,0,2,0,3,0
				C150.9,33.4,151.9,33.5,152.9,33.5 M152.9,33.6c-1,0-2,0-3,0c-1,0-2,0-3,0h0v0v-0.4h0h0.2c0.4,0,0.8,0,0.8-0.7v-5.9
				c0-0.6-0.4-0.6-0.8-0.6h-0.2v0v-0.4h0c0.6,0,1.2,0,1.8,0c0.6,0,1.2,0,1.7,0h0v0v0.4h0h-0.3c-0.4,0-0.7,0-0.7,0.6v5.9
				c0,0.4,0.3,0.5,0.6,0.6c0.2,0,0.4,0,0.6,0c0.3,0,0.6,0,0.9,0c0.5-0.1,0.9-0.3,1.1-0.6c0.2-0.2,0.3-0.6,0.3-0.8l0,0h0h0.4l0,0.1
				C153.2,32.2,153.1,32.9,152.9,33.6L152.9,33.6L152.9,33.6z"/>
			<path clip-path="url(#SVGID_2_)" fill="#004A97" d="M153,26.4h0.1c0.2,0,0.2-0.1,0.2-0.3c0-0.2-0.1-0.3-0.2-0.3H153V26.4z
				 M152.6,27.1L152.6,27.1c0.1-0.1,0.2-0.1,0.2-0.2V26c0-0.1,0-0.2-0.2-0.2v-0.1h0.6c0.2,0,0.4,0.1,0.4,0.3c0,0.2-0.1,0.3-0.3,0.4
				l0.2,0.3c0.1,0.1,0.2,0.2,0.3,0.3v0h-0.2c-0.1,0-0.2-0.2-0.4-0.6H153v0.4c0,0.1,0,0.1,0.2,0.1v0.1H152.6z M153.2,27.4
				c0.5,0,1-0.5,1-1c0-0.5-0.4-1-1-1c-0.5,0-1,0.5-1,1C152.2,26.9,152.6,27.4,153.2,27.4 M153.2,25.2c0.7,0,1.2,0.5,1.2,1.2
				c0,0.7-0.5,1.2-1.2,1.2c-0.7,0-1.2-0.5-1.2-1.2C152,25.7,152.5,25.2,153.2,25.2"/>
		</g>
	</g>
</g>
</svg>
