<?xml version="1.0" encoding="utf-8"?>
<!-- Generator: Adobe Illustrator 18.0.0, SVG Export Plug-In . SVG Version: 6.00 Build 0)  -->
<!DOCTYPE svg PUBLIC "-//W3C//DTD SVG 1.1//EN" "http://www.w3.org/Graphics/SVG/1.1/DTD/svg11.dtd">
<svg version="1.1" id="Layer_1" xmlns="http://www.w3.org/2000/svg" xmlns:xlink="http://www.w3.org/1999/xlink" x="0px" y="0px"
	 width="63.7px" height="40px" viewBox="0 0 63.7 40" enable-background="new 0 0 63.7 40" xml:space="preserve">
<g>
	<g>
		<defs>
			<rect id="SVGID_5_" x="0" y="0" width="63.7" height="40"/>
		</defs>
		<clipPath id="SVGID_1_">
			<use xlink:href="#SVGID_5_"  overflow="visible"/>
		</clipPath>
		<rect x="0" y="0" clip-path="url(#SVGID_1_)" fill="#323678" width="63.7" height="40"/>
		<g clip-path="url(#SVGID_1_)">
			<defs>
				<rect id="SVGID_7_" x="0" y="0" width="63.7" height="40"/>
			</defs>
			<clipPath id="SVGID_2_">
				<use xlink:href="#SVGID_7_"  overflow="visible"/>
			</clipPath>
			<path clip-path="url(#SVGID_2_)" fill="#F28527" d="M25.9,20.1c0-9.8,7.9-17.8,17.8-17.8s17.8,7.9,17.8,17.8
				c0,9.8-7.9,17.8-17.8,17.8S25.9,29.9,25.9,20.1"/>
			<path clip-path="url(#SVGID_2_)" fill="#ED2129" d="M31.8,6.8c0,0-0.9,0.8-1.6,1.6h3.2c0,0,1.1,1.2,1.5,2h-6.2c0,0-0.6,0.9-1,1.7
				h8.2c0,0,0.7,1.4,0.9,2.1h-9.9c0,0-0.3,1-0.5,1.7l10.9,0c0.3,1.4,1,5.3-0.5,9.7l-9.9,0c0.2,0.5,0.4,1.2,0.7,1.8h8.5
				c-0.3,0.7-0.8,1.6-1.1,2.1l-6.2,0c0.3,0.5,0.9,1.3,1.2,1.6l3.8,0c-0.7,1-1.9,2-1.9,2h0l0,0c-3.1,2.8-7.3,4.6-11.9,4.6
				c-9.8,0-17.8-7.9-17.8-17.8c0-9.8,7.9-17.8,17.8-17.8C24.5,2.3,28.7,4,31.8,6.8"/>
			<path clip-path="url(#SVGID_2_)" fill="#323678" d="M23,17.5l-0.3,1.6l-1.6,0c0,0-0.8,0.2-0.8,0.5s0.6,0.7,1.4,1.1
				c0.9,0.4,0.9,1.4,0.8,2.1C22.6,23.5,22.5,25,20,25c-1.4,0-2.2-0.2-2.2-0.2l0.3-1.6c0,0,1.8,0.5,2.3,0.2c0.4-0.3,0.9-0.8,0.1-1.1
				c-0.8-0.3-2-0.9-2-2.2s0.5-2,1.4-2.4C20.6,17.3,22,17.3,23,17.5"/>
			<polygon clip-path="url(#SVGID_2_)" fill="#323678" points="10.7,24.8 8.9,24.8 10,18.6 7.7,24.8 6.5,24.8 6.2,18.4 5.1,24.8 
				3.4,24.8 5,15.3 7.1,15.3 7.8,20.8 10.2,15.3 12.4,15.3 			"/>
			<path clip-path="url(#SVGID_2_)" fill="#323678" d="M24.7,25c-0.6,0-1-0.1-1.3-0.4c-0.3-0.3-0.4-0.7-0.4-1.2c0-0.1,0-0.3,0-0.4
				c0-0.1,0-0.3,0.1-0.5l1.1-6.1h1.7l-0.2,1.2h1.6L27,19.2h-1.6l-0.4,2.6c0,0.2-0.1,0.3-0.1,0.5c0,0.2,0,0.3,0,0.5
				c0,0.3,0,0.4,0.2,0.5c0.1,0.1,0.3,0.2,0.5,0.2c0.1,0,0.2,0,0.3-0.1c0.1-0.1,0.3-0.1,0.3-0.2h0.1L26,24.8
				c-0.2,0.1-0.4,0.1-0.6,0.2C25.2,25,25,25,24.7,25"/>
			<path clip-path="url(#SVGID_2_)" fill="#323678" d="M36.8,19.7c-0.4-0.3-1.2-0.2-1.4,0.4l-0.8,4.8H33l1.2-7.2h1.7l0,0.6
				c0.3-0.3,0.7-0.6,1.6-0.6C37.5,17.7,36.9,18.8,36.8,19.7"/>
			<path clip-path="url(#SVGID_2_)" fill="#323678" d="M40.1,25c-0.9,0-1.7-0.3-2.2-1c-0.5-0.6-0.8-1.5-0.8-2.7
				c0-0.9,0.1-1.8,0.3-2.5c0.2-0.8,0.5-1.4,0.9-2c0.4-0.5,0.9-1,1.4-1.3c0.5-0.3,1.1-0.5,1.7-0.5c0.5,0,0.9,0.1,1.3,0.2
				c0.2,0.1,0.6,0.3,0.6,0.3L43,17.9c-0.2-0.2-0.4-0.4-0.6-0.6c-0.3-0.2-0.6-0.3-1-0.3c-0.7,0-1.3,0.4-1.7,1.1
				C39.2,18.9,39,19.9,39,21c0,0.8,0.1,1.3,0.4,1.7c0.3,0.3,0.6,0.5,1.1,0.5c0.4,0,0.8-0.1,1.2-0.3c0.2-0.1,0.4-0.2,0.5-0.4
				l-0.4,2.2c0,0-0.2,0.1-0.3,0.1c-0.2,0.1-0.4,0.2-0.6,0.2C40.7,25,40.4,25,40.1,25"/>
			<path clip-path="url(#SVGID_2_)" fill="#323678" d="M14.9,24.6c-0.1,0.1-0.1,0.1-0.2,0.1c-0.2,0.1-0.3,0.2-0.5,0.2
				c-0.2,0-0.4,0.1-0.6,0.1c-0.4,0-0.8-0.2-1.1-0.5c-0.3-0.3-0.4-0.8-0.4-1.3c0-0.6,0.1-1,0.3-1.4c0.2-0.4,0.5-0.7,0.9-0.9
				c0.4-0.2,0.8-0.4,1.3-0.5l0.4-0.1c0.4-0.1,0.8-0.1,1.3-0.2c0,0,0-0.1,0-0.1c0-0.1,0-0.1,0-0.2c0-0.3-0.1-0.5-0.3-0.6
				C15.7,19.1,15.4,19,15,19h-0.1c-0.3,0-0.5,0.1-0.8,0.2c-0.3,0.1-0.6,0.2-0.8,0.3h-0.2l0.3-1.7c0.2-0.1,0.5-0.2,0.9-0.2
				c0.2-0.1,0.4-0.1,0.6-0.1c0.2,0,0.4,0,0.6,0c0.8,0,1.4,0.2,1.8,0.4c0.4,0.3,0.6,0.7,0.6,1.4c0,0.1,0,0.2,0,0.3c0,0.1,0,0.2,0,0.4
				l-0.8,4.9h-1.7l0.1-0.8c-0.1,0.1-0.2,0.2-0.4,0.3C15.1,24.5,15,24.5,14.9,24.6 M14.9,21.6c-0.2,0-0.3,0.1-0.5,0.2
				c-0.2,0.1-0.3,0.2-0.4,0.4c-0.1,0.2-0.2,0.4-0.2,0.7c0,0.2,0.1,0.4,0.2,0.5c0.1,0.1,0.3,0.2,0.6,0.2c0.1,0,0.2,0,0.3-0.1
				c0.1,0,0.2-0.1,0.3-0.1c0.2-0.1,0.4-0.2,0.5-0.4l0.3-1.5c-0.3,0-0.6,0.1-0.8,0.1C15.1,21.6,15,21.6,14.9,21.6"/>
			<path clip-path="url(#SVGID_2_)" fill="#323678" d="M29.6,18.9c-0.2,0-0.4,0.2-0.6,0.3c-0.2,0.3-0.4,0.6-0.5,1.1h1.2h1.1
				c0-0.1,0-0.1,0-0.2c0-0.1,0-0.1,0-0.2c0-0.3-0.1-0.6-0.2-0.8c-0.2-0.2-0.4-0.3-0.7-0.3C29.8,18.9,29.7,18.9,29.6,18.9 M29.6,23.4
				h0.3c0.4,0,0.7-0.1,1.1-0.2c0.3-0.2,0.6-0.4,0.9-0.6H32l-0.3,1.8c-0.3,0.2-0.7,0.3-1,0.4c-0.3,0.1-0.6,0.1-1,0.2h-0.2
				c-0.9,0-1.6-0.3-2.1-0.8c-0.5-0.5-0.7-1.3-0.7-2.2c0-0.6,0.1-1.3,0.2-1.8c0.2-0.6,0.4-1,0.7-1.4c0.3-0.4,0.6-0.7,1.1-1
				c0.3-0.2,0.6-0.3,1-0.3c0.2,0,0.3,0,0.5,0c0.8,0,1.4,0.2,1.8,0.6c0.4,0.4,0.6,1.1,0.6,1.9c0,0.3,0,0.6-0.1,0.9
				c0,0.3-0.1,0.6-0.2,0.8h-2.6h-1.3v0.1v0.1c0,0.5,0.1,0.9,0.4,1.2C28.9,23.2,29.2,23.4,29.6,23.4"/>
			<path clip-path="url(#SVGID_2_)" fill="#323678" d="M45.5,24.6c-0.1,0.1-0.1,0.1-0.2,0.1c-0.2,0.1-0.3,0.2-0.5,0.2
				c-0.2,0-0.4,0.1-0.6,0.1c-0.4,0-0.8-0.2-1.1-0.5c-0.3-0.3-0.4-0.8-0.4-1.3c0-0.6,0.1-1,0.3-1.4c0.2-0.4,0.5-0.7,0.9-0.9
				c0.4-0.2,0.8-0.4,1.3-0.5c0.1,0,0.2,0,0.4-0.1c0.4-0.1,0.8-0.1,1.3-0.2c0,0,0-0.1,0-0.1c0-0.1,0-0.1,0-0.2c0-0.3-0.1-0.5-0.3-0.6
				C46.3,19.1,46,19,45.6,19h-0.1c-0.3,0-0.5,0.1-0.8,0.2c-0.3,0.1-0.6,0.2-0.8,0.3h-0.2l0.2-1.7c0.2-0.1,0.5-0.2,0.9-0.2
				c0.2-0.1,0.4-0.1,0.6-0.1c0.2,0,0.4,0,0.6,0c0.8,0,1.4,0.2,1.8,0.4c0.4,0.3,0.6,0.7,0.6,1.4c0,0.1,0,0.2,0,0.3c0,0.1,0,0.2,0,0.4
				l-0.8,4.9H46l0.1-0.8c-0.1,0.1-0.2,0.2-0.4,0.3L45.5,24.6z M45.5,21.6c-0.2,0-0.3,0.1-0.5,0.2c-0.2,0.1-0.3,0.2-0.4,0.4
				c-0.1,0.2-0.2,0.4-0.2,0.7c0,0.2,0.1,0.4,0.2,0.5c0.1,0.1,0.3,0.2,0.6,0.2c0.1,0,0.2,0,0.3-0.1c0.1,0,0.2-0.1,0.3-0.1
				c0.2-0.1,0.4-0.2,0.5-0.4l0.3-1.5c-0.3,0-0.6,0.1-0.9,0.1C45.6,21.6,45.6,21.6,45.5,21.6"/>
			<path clip-path="url(#SVGID_2_)" fill="#323678" d="M52.7,19.7c-0.4-0.3-1.2-0.2-1.4,0.4l-0.8,4.8h-1.7l1.2-7.2h1.7l0,0.6
				c0.3-0.3,0.7-0.6,1.6-0.6C53.3,17.7,52.7,18.8,52.7,19.7"/>
			<path clip-path="url(#SVGID_2_)" fill-rule="evenodd" clip-rule="evenodd" fill="#323678" d="M56,19.2c-0.1,0-0.2,0.1-0.2,0.2
				c-0.2,0.2-0.4,0.4-0.6,0.6c-0.1,0.3-0.2,0.6-0.3,1c-0.1,0.4-0.1,0.8-0.1,1.1c0,0.4,0.1,0.7,0.2,0.9c0.2,0.2,0.4,0.3,0.7,0.3
				c0.1,0,0.2,0,0.3-0.1c0.1,0,0.1,0,0.2-0.1c0.2-0.1,0.3-0.2,0.5-0.3l0.6-3.5c-0.1-0.1-0.2-0.1-0.4-0.2c-0.1-0.1-0.3-0.1-0.4-0.1
				C56.3,19.1,56.2,19.1,56,19.2 M56,24.5c-0.1,0.1-0.3,0.2-0.4,0.3c-0.1,0.1-0.3,0.2-0.4,0.2C55,25,54.9,25,54.7,25
				c-0.5,0-0.9-0.2-1.2-0.7c-0.3-0.5-0.4-1.1-0.4-1.9c0-0.7,0.1-1.3,0.2-1.9c0.2-0.6,0.4-1.1,0.7-1.6c0.3-0.5,0.6-0.8,1-1.1
				c0.4-0.2,0.7-0.4,1.1-0.4h0.1c0.3,0,0.5,0,0.8,0.1c0.2,0.1,0.4,0.2,0.7,0.4l0.4-2.5h1.7L58,24.8h-1.7l0.1-0.7
				C56.3,24.2,56.1,24.3,56,24.5"/>
			<path clip-path="url(#SVGID_2_)" fill="#FFFFFF" d="M23.4,17.3l-0.3,1.6l-1.6,0c0,0-0.8,0.2-0.8,0.5c0,0.3,0.6,0.7,1.4,1.1
				c0.9,0.4,0.9,1.4,0.8,2.1c-0.1,0.7-0.2,2.1-2.7,2.2c-1.4,0-2.2-0.2-2.2-0.2l0.3-1.6c0,0,1.8,0.5,2.3,0.2c0.4-0.3,0.9-0.8,0.1-1.1
				c-0.8-0.3-2-0.9-2-2.2c0-1.3,0.5-2,1.4-2.4C20.9,17,22.4,17.1,23.4,17.3"/>
			<polygon clip-path="url(#SVGID_2_)" fill="#FFFFFF" points="11.1,24.6 9.3,24.6 10.3,18.4 8.1,24.5 6.8,24.5 6.5,18.1 5.4,24.6 
				3.7,24.6 5.3,15.1 7.4,15.1 8.1,20.6 10.6,15.1 12.7,15.1 			"/>
			<path clip-path="url(#SVGID_2_)" fill="#FFFFFF" d="M25,24.7c-0.6,0-1-0.1-1.3-0.4c-0.3-0.3-0.4-0.7-0.4-1.2c0-0.1,0-0.3,0-0.4
				c0-0.1,0-0.3,0.1-0.5l1.1-6.1h1.7L26,17.4h1.6l-0.3,1.5h-1.6l-0.4,2.6c0,0.2-0.1,0.3-0.1,0.5c0,0.2,0,0.3,0,0.5
				c0,0.3,0,0.4,0.2,0.5c0.1,0.1,0.3,0.2,0.5,0.2c0.1,0,0.2,0,0.3-0.1c0.1-0.1,0.3-0.1,0.4-0.2h0.1l-0.3,1.5
				c-0.2,0.1-0.4,0.1-0.6,0.2C25.6,24.7,25.3,24.7,25,24.7"/>
			<path clip-path="url(#SVGID_2_)" fill="#FFFFFF" d="M37.2,19.4c-0.4-0.3-1.2-0.2-1.4,0.4L35,24.6h-1.7l1.2-7.2h1.7l0,0.6
				c0.3-0.3,0.7-0.6,1.6-0.6C37.8,17.4,37.2,18.5,37.2,19.4"/>
			<path clip-path="url(#SVGID_2_)" fill="#FFFFFF" d="M40.4,24.8c-0.9,0-1.7-0.3-2.2-1c-0.5-0.6-0.8-1.5-0.8-2.7
				c0-0.9,0.1-1.8,0.3-2.5c0.2-0.8,0.5-1.4,0.9-2c0.4-0.5,0.9-1,1.4-1.3c0.5-0.3,1.1-0.5,1.7-0.5c0.5,0,0.9,0.1,1.3,0.2
				c0.2,0.1,0.6,0.3,0.6,0.3l-0.4,2.3c-0.2-0.2-0.4-0.4-0.6-0.6c-0.3-0.2-0.6-0.3-1-0.3c-0.7,0-1.3,0.4-1.7,1.1
				c-0.5,0.8-0.7,1.7-0.7,2.9c0,0.8,0.1,1.3,0.4,1.7c0.3,0.3,0.6,0.5,1.1,0.5c0.4,0,0.8-0.1,1.2-0.3c0.2-0.1,0.4-0.2,0.5-0.4
				l-0.4,2.2c0,0-0.2,0.1-0.3,0.1c-0.2,0.1-0.4,0.2-0.6,0.2C41,24.7,40.7,24.8,40.4,24.8"/>
			<path clip-path="url(#SVGID_2_)" fill="#FFFFFF" d="M15.3,24.3c-0.1,0.1-0.1,0.1-0.2,0.1c-0.2,0.1-0.3,0.2-0.5,0.2
				c-0.2,0-0.4,0.1-0.6,0.1c-0.4,0-0.8-0.2-1.1-0.5c-0.3-0.3-0.4-0.8-0.4-1.3c0-0.6,0.1-1,0.3-1.4c0.2-0.4,0.5-0.7,0.9-0.9
				c0.4-0.2,0.8-0.4,1.3-0.5l0.3-0.1c0.4-0.1,0.8-0.1,1.3-0.2c0,0,0-0.1,0-0.1c0-0.1,0-0.1,0-0.2c0-0.3-0.1-0.5-0.3-0.6
				c-0.2-0.1-0.5-0.2-0.9-0.2h-0.1c-0.3,0-0.5,0.1-0.8,0.2c-0.3,0.1-0.6,0.2-0.8,0.3h-0.2l0.3-1.7c0.2-0.1,0.5-0.2,0.9-0.2
				c0.2-0.1,0.4-0.1,0.6-0.1c0.2,0,0.4,0,0.6,0c0.8,0,1.4,0.2,1.8,0.4c0.4,0.3,0.6,0.7,0.6,1.4c0,0.1,0,0.2,0,0.3c0,0.1,0,0.2,0,0.4
				l-0.8,4.9h-1.7l0.1-0.8c-0.1,0.1-0.2,0.2-0.4,0.3C15.4,24.2,15.3,24.3,15.3,24.3 M15.3,21.4c-0.2,0-0.3,0.1-0.5,0.2
				c-0.2,0.1-0.3,0.2-0.4,0.4c-0.1,0.2-0.2,0.4-0.2,0.7c0,0.2,0.1,0.4,0.2,0.5c0.1,0.1,0.3,0.2,0.6,0.2c0.1,0,0.2,0,0.3-0.1
				c0.1,0,0.2-0.1,0.3-0.1c0.2-0.1,0.4-0.2,0.5-0.4l0.3-1.5c-0.3,0-0.6,0.1-0.8,0.1C15.4,21.3,15.3,21.3,15.3,21.4"/>
			<path clip-path="url(#SVGID_2_)" fill="#FFFFFF" d="M29.9,18.7c-0.2,0-0.4,0.2-0.6,0.3c-0.2,0.3-0.4,0.6-0.5,1.1h1.2h1.1
				c0-0.1,0-0.1,0-0.2c0-0.1,0-0.1,0-0.2c0-0.3-0.1-0.6-0.2-0.8c-0.2-0.2-0.4-0.3-0.7-0.3C30.1,18.6,30,18.6,29.9,18.7 M29.9,23.2
				h0.3c0.4,0,0.7-0.1,1.1-0.2c0.3-0.2,0.6-0.4,0.9-0.6h0.2L32,24.2c-0.3,0.2-0.7,0.3-1,0.4c-0.3,0.1-0.6,0.1-1,0.2h-0.2
				c-0.9,0-1.6-0.3-2.1-0.8c-0.5-0.5-0.7-1.3-0.7-2.2c0-0.6,0.1-1.3,0.2-1.8c0.2-0.6,0.4-1,0.7-1.4c0.3-0.4,0.6-0.7,1.1-1
				c0.3-0.2,0.6-0.3,1-0.3c0.2,0,0.3,0,0.5,0c0.8,0,1.4,0.2,1.8,0.6c0.4,0.4,0.6,1.1,0.6,1.9c0,0.3,0,0.6-0.1,0.9
				c0,0.3-0.1,0.6-0.2,0.8h-2.6h-1.3v0.1v0.1c0,0.5,0.1,0.9,0.4,1.2C29.2,23,29.5,23.1,29.9,23.2"/>
			<path clip-path="url(#SVGID_2_)" fill="#FFFFFF" d="M45.8,24.3c-0.1,0.1-0.1,0.1-0.2,0.1c-0.2,0.1-0.3,0.2-0.5,0.2
				c-0.2,0-0.4,0.1-0.6,0.1c-0.4,0-0.8-0.2-1.1-0.5C43.1,23.9,43,23.5,43,23c0-0.6,0.1-1,0.3-1.4c0.2-0.4,0.5-0.7,0.9-0.9
				c0.4-0.2,0.8-0.4,1.3-0.5c0.1,0,0.2,0,0.4-0.1c0.4-0.1,0.8-0.1,1.3-0.2c0,0,0-0.1,0-0.1c0-0.1,0-0.1,0-0.2c0-0.3-0.1-0.5-0.3-0.6
				c-0.2-0.1-0.5-0.2-0.9-0.2h-0.1c-0.3,0-0.5,0.1-0.8,0.2c-0.3,0.1-0.6,0.2-0.8,0.3h-0.2l0.2-1.7c0.2-0.1,0.5-0.2,0.9-0.2
				c0.2-0.1,0.4-0.1,0.6-0.1c0.2,0,0.4,0,0.6,0c0.8,0,1.4,0.2,1.8,0.4c0.4,0.3,0.6,0.7,0.6,1.4c0,0.1,0,0.2,0,0.3c0,0.1,0,0.2,0,0.4
				L48,24.6h-1.7l0.1-0.8c-0.1,0.1-0.2,0.2-0.4,0.3L45.8,24.3z M45.8,21.4c-0.2,0-0.3,0.1-0.5,0.2c-0.2,0.1-0.3,0.2-0.4,0.4
				c-0.1,0.2-0.2,0.4-0.2,0.7c0,0.2,0.1,0.4,0.2,0.5c0.1,0.1,0.3,0.2,0.6,0.2c0.1,0,0.2,0,0.3-0.1c0.1,0,0.2-0.1,0.3-0.1
				c0.2-0.1,0.4-0.2,0.5-0.4l0.3-1.5c-0.3,0-0.6,0.1-0.9,0.1C46,21.3,45.9,21.3,45.8,21.4"/>
			<path clip-path="url(#SVGID_2_)" fill="#FFFFFF" d="M53,19.4c-0.4-0.3-1.2-0.2-1.4,0.4l-0.8,4.8h-1.7l1.2-7.2H52l0,0.6
				c0.3-0.3,0.7-0.6,1.6-0.6C53.7,17.4,53,18.5,53,19.4"/>
			<path clip-path="url(#SVGID_2_)" fill-rule="evenodd" clip-rule="evenodd" fill="#FFFFFF" d="M56.3,19c-0.1,0-0.2,0.1-0.2,0.2
				c-0.2,0.2-0.4,0.4-0.6,0.6c-0.1,0.3-0.2,0.6-0.3,1c-0.1,0.4-0.1,0.8-0.1,1.1c0,0.4,0.1,0.7,0.2,0.9c0.2,0.2,0.4,0.3,0.7,0.3
				c0.1,0,0.2,0,0.3-0.1c0.1,0,0.1,0,0.2-0.1c0.2-0.1,0.3-0.2,0.5-0.3l0.6-3.5c-0.1-0.1-0.2-0.1-0.4-0.2c-0.1-0.1-0.3-0.1-0.4-0.1
				C56.6,18.9,56.5,18.9,56.3,19 M56.3,24.2c-0.1,0.1-0.3,0.2-0.4,0.3c-0.1,0.1-0.3,0.2-0.4,0.2c-0.1,0-0.3,0.1-0.5,0.1
				c-0.5,0-0.9-0.2-1.2-0.7c-0.3-0.5-0.4-1.1-0.4-1.9c0-0.7,0.1-1.3,0.2-1.9c0.2-0.6,0.4-1.1,0.7-1.6c0.3-0.5,0.6-0.8,1-1.1
				c0.4-0.2,0.7-0.4,1.1-0.4h0.1c0.3,0,0.5,0,0.8,0.1c0.2,0.1,0.4,0.2,0.7,0.4l0.4-2.5h1.7l-1.6,9.4h-1.7l0.1-0.7
				C56.6,24,56.5,24.1,56.3,24.2"/>
		</g>
	</g>
</g>
</svg>
