<?xml version="1.0" encoding="utf-8"?>
<!-- Generator: Adobe Illustrator 18.0.0, SVG Export Plug-In . SVG Version: 6.00 Build 0)  -->
<!DOCTYPE svg PUBLIC "-//W3C//DTD SVG 1.1//EN" "http://www.w3.org/Graphics/SVG/1.1/DTD/svg11.dtd">
<svg version="1.1" id="Layer_1" xmlns="http://www.w3.org/2000/svg" xmlns:xlink="http://www.w3.org/1999/xlink" x="0px" y="0px"
	 width="400px" height="207.9px" viewBox="0 0 400 207.9" enable-background="new 0 0 400 207.9" xml:space="preserve">
<linearGradient id="SVGID_1_" gradientUnits="userSpaceOnUse" x1="200" y1="2.0848" x2="200" y2="209.8" gradientTransform="matrix(1 0 0 -1 0 210)">
	<stop  offset="0" style="stop-color:#FFFFFF"/>
	<stop  offset="0.6286" style="stop-color:#ECF0F1"/>
</linearGradient>
<path fill="url(#SVGID_1_)" d="M395.6,207.9l-192.9-20.8c-0.3,0-0.6,0-0.8,0L4.4,207.9c-2.4,0.2-4.4-1.6-4.4-4V0.2h400v203.7
	C400,206.3,397.9,208.1,395.6,207.9z"/>
<g>
	<g>
		<rect x="387.9" fill="#7F8C8D" width="2" height="2.5"/>
	</g>
	<g>
		<path fill="#7F8C8D" d="M13,197.2c-0.3,0-0.6,0-0.9-0.1l0.4-2c0.3,0.1,0.6,0.1,0.9,0l3.8-0.4l0.2,2l-3.8,0.4
			C13.4,197.2,13.2,197.2,13,197.2z M385,197.2c-0.2,0-0.4,0-0.5,0l-3.8-0.4l0.2-2l3.8,0.4c0.1,0,0.2,0,0.3,0c0.2,0,0.4,0,0.5-0.1
			l0.4,2C385.6,197.1,385.3,197.2,385,197.2z M22.3,196.3l-0.2-2l5-0.5l0.2,2L22.3,196.3z M375.6,196.2l-5-0.5l0.2-2l5,0.5
			L375.6,196.2z M32.3,195.3l-0.2-2l5-0.5l0.2,2L32.3,195.3z M365.7,195.2l-5-0.5l0.2-2l5,0.5L365.7,195.2z M42.3,194.3l-0.2-2
			l5-0.5l0.2,2L42.3,194.3z M355.7,194.1l-5-0.5l0.2-2l5,0.5L355.7,194.1z M52.2,193.2l-0.2-2l5-0.5l0.2,2L52.2,193.2z M345.8,193.1
			l-5-0.5l0.2-2l5,0.5L345.8,193.1z M8.1,192.9c0-0.2,0-0.4,0-0.6v-4.5h2v4.5c0,0.1,0,0.3,0,0.4L8.1,192.9z M389.9,192.8l-2-0.3
			c0-0.1,0-0.3,0-0.4v-4.5h2v4.5C389.9,192.4,389.9,192.6,389.9,192.8z M62.2,192.2l-0.2-2l5-0.5l0.2,2L62.2,192.2z M335.8,192.1
			l-5-0.5l0.2-2l5,0.5L335.8,192.1z M72.1,191.2l-0.2-2l5-0.5l0.2,2L72.1,191.2z M325.8,191l-5-0.5l0.2-2l5,0.5L325.8,191z
			 M82.1,190.2l-0.2-2l5-0.5l0.2,2L82.1,190.2z M315.9,190l-5-0.5l0.2-2l5,0.5L315.9,190z M92.1,189.1l-0.2-2l5-0.5l0.2,2
			L92.1,189.1z M305.9,188.9l-5-0.5l0.2-2l5,0.5L305.9,188.9z M102,188.1l-0.2-2l5-0.5l0.2,2L102,188.1z M296,187.9l-5-0.5l0.2-2
			l5,0.5L296,187.9z M112,187.1l-0.2-2l5-0.5l0.2,2L112,187.1z M286,186.8l-5-0.5l0.2-2l5,0.5L286,186.8z M121.9,186.1l-0.2-2l5-0.5
			l0.2,2L121.9,186.1z M276.1,185.8l-5-0.5l0.2-2l5,0.5L276.1,185.8z M131.9,185.1l-0.2-2l5-0.5l0.2,2L131.9,185.1z M266.1,184.7
			l-5-0.5l0.2-2l5,0.5L266.1,184.7z M141.8,184l-0.2-2l5-0.5l0.2,2L141.8,184z M256.2,183.7l-5-0.5l0.2-2l5,0.5L256.2,183.7z
			 M151.8,183l-0.2-2l5-0.5l0.2,2L151.8,183z M10,182.7H8v-5h2V182.7z M389.9,182.7h-2v-5h2V182.7z M246.2,182.7l-5-0.5l0.2-2l5,0.5
			L246.2,182.7z M161.8,182l-0.2-2l5-0.5l0.2,2L161.8,182z M236.2,181.6l-5-0.5l0.2-2l5,0.5L236.2,181.6z M171.7,181l-0.2-2l5-0.5
			l0.2,2L171.7,181z M226.3,180.6l-5-0.5l0.2-2l5,0.5L226.3,180.6z M181.7,180l-0.2-2l5-0.5l0.2,2L181.7,180z M216.3,179.5l-5-0.5
			l0.2-2l5,0.5L216.3,179.5z M191.6,178.9l-0.2-2l5-0.5l0.2,2L191.6,178.9z M206.4,178.5l-4.8-0.5v-2c0.1,0,0.2,0,0.2,0l4.8,0.5
			L206.4,178.5z M10,172.7H8v-5h2V172.7z M389.9,172.7h-2v-5h2V172.7z M10,162.7H8v-5h2V162.7z M389.9,162.7h-2v-5h2V162.7z
			 M10,152.7H8v-5h2V152.7z M389.9,152.7h-2v-5h2V152.7z M10,142.7H8v-5h2V142.7z M389.9,142.7h-2v-5h2V142.7z M10,132.7H8v-5h2
			V132.7z M389.9,132.6h-2v-5h2V132.6z M10,122.7H8v-5h2V122.7z M389.9,122.6h-2v-5h2V122.6z M10,112.7H8v-5h2V112.7z M389.9,112.6
			h-2v-5h2V112.6z M10,102.6H8v-5h2V102.6z M389.9,102.6h-2v-5h2V102.6z M10,92.6H8v-5h2V92.6z M389.9,92.6h-2v-5h2V92.6z M10,82.6
			H8v-5h2V82.6z M389.9,82.6h-2v-5h2V82.6z M10,72.6H8v-5h2V72.6z M389.9,72.6h-2v-5h2V72.6z M10,62.6H8v-5h2V62.6z M389.9,62.6h-2
			v-5h2V62.6z M10,52.6H8v-5h2V52.6z M389.9,52.6h-2v-5h2V52.6z M10,42.6H8v-5h2V42.6z M389.9,42.5h-2v-5h2V42.5z M10,32.6H8v-5h2
			V32.6z M389.9,32.5h-2v-5h2V32.5z M10,22.6H8v-5h2V22.6z M389.9,22.5h-2v-5h2V22.5z M10,12.5H8v-5h2V12.5z M389.9,12.5h-2v-5h2
			V12.5z"/>
	</g>
	<g>
		<rect x="8" fill="#7F8C8D" width="2" height="2.5"/>
	</g>
</g>
<linearGradient id="SVGID_2_" gradientUnits="userSpaceOnUse" x1="200" y1="210" x2="200" y2="172.5" gradientTransform="matrix(1 0 0 -1 0 210)">
	<stop  offset="0" style="stop-color:#000000"/>
	<stop  offset="0.3807" style="stop-color:#B7B7B7"/>
	<stop  offset="1" style="stop-color:#FFFFFF;stop-opacity:0"/>
</linearGradient>
<rect opacity="0.2" fill="url(#SVGID_2_)" enable-background="new    " width="400" height="37.5"/>
</svg>
