<?xml version="1.0" encoding="utf-8"?>
<!-- Generator: Adobe Illustrator 18.1.1, SVG Export Plug-In . SVG Version: 6.00 Build 0)  -->
<svg version="1.1" id="Layer_1" xmlns="http://www.w3.org/2000/svg" xmlns:xlink="http://www.w3.org/1999/xlink" x="0px" y="0px"
	 viewBox="0 0 100 400" enable-background="new 0 0 100 400" xml:space="preserve">
<rect x="0" y="0" fill="none" width="100" height="100"/>
<rect x="0" y="100" fill="none" width="100" height="100"/>
<rect x="0" y="200" fill="none" width="100" height="100"/>
<rect x="0" y="300" fill="none" width="100" height="100"/>
<g>
	<path fill="#FFFFFF" d="M50,225l-25.9,19.3V275h51.7v-30.7C75.8,244.3,50.1,225,50,225z M42.8,238.8c0.8-1.4,1.8-2.4,3.1-3.1
		s2.8-1.1,4.5-1.1c1.4,0,2.7,0.3,3.9,0.8c1.1,0.6,2,1.4,2.6,2.4s0.9,2.2,0.9,3.4c0,1.5-0.5,2.8-1.4,4c-1.1,1.5-2.6,2.2-4.3,2.2
		c-0.5,0-0.8-0.1-1.1-0.2c-0.2-0.2-0.4-0.4-0.5-0.7c-0.7,0.7-1.5,1-2.3,1c-1,0-1.7-0.3-2.4-1c-0.6-0.7-0.9-1.5-0.9-2.6
		c0-1.4,0.4-2.6,1.1-3.7c0.9-1.4,2.1-2,3.5-2c1,0,1.8,0.4,2.3,1.2l0.2-1h2.3l-1.3,6.2c-0.1,0.4-0.1,0.6-0.1,0.8c0,0.1,0,0.2,0.1,0.3
		c0.1,0.1,0.1,0.1,0.2,0.1c0.3,0,0.6-0.2,1.1-0.5c0.6-0.4,1.1-1,1.4-1.8c0.4-0.7,0.5-1.5,0.5-2.3c0-1.4-0.5-2.6-1.5-3.5
		s-2.5-1.4-4.3-1.4c-1.6,0-2.9,0.3-4,1c-1.1,0.6-1.9,1.5-2.4,2.7c-0.5,1.1-0.8,2.3-0.8,3.6c0,1.2,0.3,2.3,0.9,3.3
		c0.6,1,1.5,1.7,2.6,2.2s2.4,0.7,3.8,0.7s2.5-0.2,3.5-0.6s1.8-0.9,2.4-1.7h1.8c-0.6,1.2-1.5,2.1-2.6,2.7c-1.4,0.8-3,1.1-5,1.1
		c-1.9,0-3.5-0.3-4.9-1c-1.4-0.6-2.4-1.6-3.1-2.8s-1-2.6-1-4.1C41.8,241.7,42.1,240.2,42.8,238.8z M25.9,244.9L45,257.7l-19.1,14.8
		C25.9,272.5,25.9,244.9,25.9,244.9z M27.4,273.5L50,256l22.6,17.5C72.7,273.5,27.4,273.5,27.4,273.5z M74.1,272.5L55,257.7
		l19.1-12.8V272.5z M50.9,240.2c0.3,0.3,0.5,0.8,0.5,1.5c0,0.6-0.1,1.2-0.3,1.9c-0.2,0.7-0.5,1.2-0.8,1.5c-0.2,0.2-0.4,0.4-0.6,0.5
		c-0.3,0.2-0.6,0.2-0.9,0.2c-0.4,0-0.8-0.2-1.1-0.5c-0.4-0.3-0.6-0.8-0.6-1.6c0-0.5,0.1-1.2,0.3-1.9c0.2-0.7,0.5-1.2,0.9-1.6
		c0.4-0.4,0.9-0.6,1.4-0.6C50.3,239.7,50.6,239.8,50.9,240.2z"/>
</g>
<g>
	<path fill="#FFFFFF" d="M74.3,145.9c-0.5-0.5-1-0.7-1.7-0.7h-8.4v-19c0-0.3-0.1-0.6-0.3-0.9c-0.2-0.2-0.5-0.3-0.8-0.3H36.9
		c-0.3,0-0.6,0.1-0.8,0.3c-0.2,0.2-0.3,0.5-0.3,0.9v19h-8.4c-0.7,0-1.2,0.2-1.7,0.7s-0.7,1-0.7,1.7v19c0,0.7,0.2,1.3,0.7,1.8
		c0.5,0.5,1,0.7,1.6,0.6c0.7-0.2,1.3,0.1,2,0.7c0.6,0.6,1.1,1.3,1.4,2.1c0.3,0.8,0.7,1.4,1.1,1.9c0.4,0.5,0.8,0.5,1.2,0.1V169h2.7
		v4.8c0,0.3,0.1,0.6,0.3,0.8c0.2,0.3,0.5,0.4,0.8,0.4H63c0.3,0,0.6-0.1,0.8-0.4c0.2-0.3,0.3-0.5,0.3-0.8V169H67v4.8
		c0.7-0.1,1.3-0.4,1.7-0.9c0.5-0.5,0.8-1.1,1-1.7c0.2-0.6,0.5-1.1,1-1.6c0.5-0.4,1.1-0.6,1.9-0.6c0.6,0.1,1.2-0.1,1.6-0.6
		c0.5-0.5,0.7-1.1,0.7-1.8v-19C75,146.9,74.8,146.4,74.3,145.9z M61.5,172.1h-23V164h23.1L61.5,172.1L61.5,172.1z M61.5,151.3h-23
		v-23.1h23.1L61.5,151.3L61.5,151.3z M70.6,154.1c-0.4,0.4-0.9,0.6-1.5,0.6s-1.1-0.2-1.5-0.6c-0.4-0.4-0.6-0.9-0.6-1.5
		c0-0.6,0.2-1.1,0.6-1.5c0.4-0.4,0.9-0.6,1.5-0.6s1.1,0.2,1.5,0.6c0.4,0.4,0.6,0.9,0.6,1.5C71.2,153.2,71,153.7,70.6,154.1z"/>
</g>
<g>
	<path fill="#FFFFFF" d="M46,52.5c0,1.4-1.2,2.6-2.6,2.6c-1.4,0-2.6-1.2-2.6-2.6c0-1.4,1.2-2.6,2.6-2.6C44.8,49.9,46,51.1,46,52.5z
		 M56.6,49.9c-1.4,0-2.6,1.2-2.6,2.6c0,1.4,1.2,2.6,2.6,2.6s2.6-1.2,2.6-2.6C59.2,51.1,58,49.9,56.6,49.9z M75.4,51v5
		c0,2.5-2,4.5-4.5,4.5h-3.3C64.4,69.6,56.2,75,50,75s-14.5-5.4-17.7-14.5H29c-2.5,0-4.5-2-4.5-4.5v-5c0-1.7,1-3.2,2.4-4
		c0-7,2.1-12.5,6.1-16.3S42.8,25,50,25s13,1.9,17,5.7s6.1,9.3,6.1,16.4C74.5,47.8,75.4,49.3,75.4,51z M65.9,52.5
		c0-1.2-0.1-2.3-0.1-3.3c-2-1.8-5.6-3.2-10.2-3.7c0.6,0.7,1.1,1.6,1.4,2.7c-2.8-2.2-8.3-1.7-12.5-6.6c-0.2-0.3-0.4-0.5-0.6-0.8l0,0
		l0,0c-0.7-1-1-1.6-1-0.9c-0.1,5.7-4.2,10.1-8.7,10.8c0,0.6-0.1,1.3-0.1,1.9c0,2.4,0.4,4.6,1.1,6.6c2.5,3,6.7,3.9,10.4,4.1
		c0.7-1.1,2.2-1.8,4-1.8c2.4,0,4.4,1.4,4.4,3.1c0,1.7-2,3.1-4.4,3.1c-1.9,0-3.5-0.8-4.1-2c-2.6-0.1-5.4-0.6-7.9-1.8
		c3.5,5.2,9,8,12.5,8C55.5,71.8,65.9,65,65.9,52.5z M70.3,46.5C70.1,34.2,63,27.7,50,27.7s-20.1,6.5-20.4,18.8h1.7
		c0.6-4.1,2-7.6,4-10.2C38.6,32.2,43.5,30,50,30s11.4,2.1,14.6,6.3c2,2.6,3.4,6,4,10.2H70.3z"/>
</g>
<g>
	<path fill="#FFFFFF" d="M50,325c-13.7,0-25,11.3-25,25s11.3,25,25,25s25-11.3,25-25S63.8,325,50,325z M50,370c-11,0-20-9-20-20
		s9-20,20-20s20,9,20,20S61,370,50,370z"/>
	<path fill="#FFFFFF" d="M51.3,337.5h-3.8v15l13,8l2-3.2l-11.2-6.8V337.5z"/>
</g>
</svg>
